<svg width="32" height="32" viewBox="0 0 32 32" fill="none" xmlns="http://www.w3.org/2000/svg">
<path fill-rule="evenodd" clip-rule="evenodd" d="M16 28.8C19.3948 28.8 22.6505 27.4514 25.051 25.0509C27.4514 22.6505 28.8 19.3947 28.8 16C28.8 12.6052 27.4514 9.34945 25.051 6.94898C22.6505 4.54852 19.3948 3.19995 16 3.19995C12.6052 3.19995 9.34951 4.54852 6.94905 6.94898C4.54858 9.34945 3.20001 12.6052 3.20001 16C3.20001 19.3947 4.54858 22.6505 6.94905 25.0509C9.34951 27.4514 12.6052 28.8 16 28.8ZM13.248 11.552C13.0205 11.34 12.7197 11.2246 12.4088 11.2301C12.0979 11.2356 11.8013 11.3615 11.5814 11.5814C11.3616 11.8012 11.2356 12.0978 11.2301 12.4087C11.2246 12.7196 11.34 13.0205 11.552 13.248L14.304 16L11.552 18.752C11.4341 18.8618 11.3396 18.9943 11.274 19.1415C11.2084 19.2887 11.1731 19.4476 11.1703 19.6087C11.1674 19.7698 11.1971 19.9299 11.2574 20.0793C11.3178 20.2287 11.4076 20.3645 11.5216 20.4784C11.6355 20.5924 11.7712 20.6822 11.9207 20.7425C12.0701 20.8029 12.2301 20.8325 12.3912 20.8297C12.5524 20.8269 12.7113 20.7916 12.8585 20.726C13.0057 20.6604 13.1382 20.5658 13.248 20.448L16 17.696L18.752 20.448C18.8619 20.5658 18.9944 20.6604 19.1416 20.726C19.2887 20.7916 19.4477 20.8269 19.6088 20.8297C19.7699 20.8325 19.9299 20.8029 20.0794 20.7425C20.2288 20.6822 20.3645 20.5924 20.4785 20.4784C20.5924 20.3645 20.6823 20.2287 20.7426 20.0793C20.803 19.9299 20.8326 19.7698 20.8298 19.6087C20.8269 19.4476 20.7916 19.2887 20.7261 19.1415C20.6605 18.9943 20.5659 18.8618 20.448 18.752L17.696 16L20.448 13.248C20.66 13.0205 20.7754 12.7196 20.7699 12.4087C20.7644 12.0978 20.6385 11.8012 20.4186 11.5814C20.1987 11.3615 19.9021 11.2356 19.5912 11.2301C19.2804 11.2246 18.9795 11.34 18.752 11.552L16 14.304L13.248 11.552Z" fill="#262728"/>
</svg>
