<svg width="100" height="100" viewBox="0 0 100 100" fill="none" xmlns="http://www.w3.org/2000/svg">
<path d="M44.2029 61.6766L39.1381 54.9378C39.078 54.8582 39.0363 54.7688 39.0154 54.6748C38.9945 54.5809 38.9949 54.4842 39.0165 54.3904C39.0381 54.2965 39.0805 54.2074 39.1413 54.1281C39.202 54.0489 39.2799 53.981 39.3705 53.9285L42.5693 52.1154C42.7485 52.014 42.9649 51.9775 43.1736 52.0135C43.3824 52.0496 43.5674 52.1553 43.6903 52.3088L48.8576 58.9569C48.9184 59.0358 48.961 59.1246 48.9829 59.218C49.0048 59.3115 49.0057 59.4079 48.9853 59.5017C48.965 59.5955 48.924 59.6848 48.8645 59.7645C48.8051 59.8442 48.7284 59.9128 48.6389 59.9662L45.3444 61.876C45.2547 61.9295 45.154 61.9667 45.048 61.9857C44.942 62.0046 44.8328 62.0048 44.7267 61.9862C44.6207 61.9677 44.5198 61.9308 44.4299 61.8777C44.34 61.8245 44.2628 61.7562 44.2029 61.6766Z" stroke="black" stroke-width="2" stroke-linecap="round"/>
<path d="M45 52.5225L49.7386 49.2271C49.8905 49.1204 50.0605 49.0493 50.2381 49.0181C50.4157 48.9868 50.5972 48.9962 50.7714 49.0455C52.4543 49.523 57.5149 51.0631 59.38 51.7894C60.7833 52.3342 61.3483 53.8676 60.7833 54.8764C60.0179 56.2215 58.8514 56.0937 58.0131 55.8314L57.6789 55.6969L54.3619 54.1299" stroke="black" stroke-width="2" stroke-linecap="round"/>
<path d="M48 57.4588L49.7202 56.5866L59.4543 58.976C59.5542 59.0011 59.659 59.0066 59.7615 58.9921C59.864 58.9777 59.9617 58.9437 60.0479 58.8924C61.3971 58.1159 67.2726 54.6751 70.1665 52.8652C70.4012 52.7499 70.5997 52.5848 70.7444 52.3847C70.8891 52.1846 70.9754 51.9558 70.9955 51.7188C71.0155 51.4819 70.9688 51.2442 70.8594 51.0272C70.75 50.8103 70.5815 50.6208 70.3689 50.4758C70.0322 50.2073 69.6061 50.0428 69.1547 50.0073C68.7034 49.9717 68.2512 50.067 67.8662 50.2787C66.8544 50.7804 64.0414 52.6322 64.0414 52.6322" stroke="black" stroke-width="2" stroke-linecap="round"/>
<path d="M65 44.769C64.124 45.4138 63.0862 45.8227 61.9926 45.954C60.899 46.0853 59.7888 45.9343 58.7756 45.5164C57.7624 45.0985 56.8824 44.4287 56.2257 43.5754C55.569 42.7222 55.159 41.7161 55.0378 40.6601C54.9165 39.6041 55.0883 38.5359 55.5356 37.5649C55.9829 36.5938 56.6896 35.7547 57.5835 35.1333C58.4774 34.5118 59.5265 34.1304 60.6234 34.028C61.7203 33.9255 62.8258 34.1057 63.8268 34.5502" stroke="black" stroke-width="2"/>
<path d="M52 39H62" stroke="black" stroke-width="2"/>
<path d="M52 42H61" stroke="black" stroke-width="2"/>
</svg>
