<svg width="32" height="32" viewBox="0 0 32 32" fill="none" xmlns="http://www.w3.org/2000/svg">
<g clip-path="url(#clip0_44_1235)">
<path d="M5.20294 29.6766L4.40355 30.2774L4.40396 30.2779L5.20294 29.6766ZM0.13812 22.9378L0.93751 22.337L0.936096 22.3351L0.13812 22.9378ZM0.370513 21.9285L-0.122615 21.0585L-0.131003 21.0634L0.370513 21.9285ZM3.56934 20.1154L3.07674 19.2451L3.07624 19.2454L3.56934 20.1154ZM4.6903 20.3088L5.47985 19.6951L5.47545 19.6894L5.47097 19.6839L4.6903 20.3088ZM9.85765 26.9569L10.6498 26.3466L10.6472 26.3432L9.85765 26.9569ZM9.63892 27.9662L10.1405 28.8314L10.1517 28.8247L9.63892 27.9662ZM6.3444 29.876L5.84284 29.0108L5.83218 29.0172L6.3444 29.876ZM5.42905 19.7015C4.97563 20.0168 4.86369 20.64 5.17901 21.0935C5.49434 21.5469 6.11753 21.6588 6.57095 21.3435L5.42905 19.7015ZM10.7386 17.2271L11.3096 18.0481L11.3134 18.0454L10.7386 17.2271ZM11.7714 17.0455L12.0444 16.0835L12.0438 16.0833L11.7714 17.0455ZM20.38 19.7894L20.0171 20.7213L20.0181 20.7217L20.38 19.7894ZM21.7833 22.8764L22.6525 23.371L22.6558 23.365L21.7833 22.8764ZM19.0131 23.8314L18.6396 24.759L18.6765 24.7739L18.7145 24.7858L19.0131 23.8314ZM18.6789 23.6969L18.2518 24.6011L18.2783 24.6136L18.3055 24.6245L18.6789 23.6969ZM15.789 21.2257C15.2896 20.9898 14.6936 21.2034 14.4577 21.7027C14.2218 22.2021 14.4354 22.7981 14.9347 23.0341L15.789 21.2257ZM8.5478 24.5669C8.05521 24.8166 7.85834 25.4184 8.10808 25.911C8.35783 26.4036 8.95961 26.6004 9.4522 26.3507L8.5478 24.5669ZM10.7202 24.5866L10.9586 23.6155L10.5986 23.5271L10.268 23.6947L10.7202 24.5866ZM20.4543 26.976L20.6976 26.0061L20.6927 26.0049L20.4543 26.976ZM21.0479 26.8924L20.5491 26.0257L20.5428 26.0293L20.5366 26.033L21.0479 26.8924ZM31.1665 20.8652L30.7255 19.9677L30.6796 19.9902L30.6363 20.0173L31.1665 20.8652ZM31.3689 18.4758L30.7454 19.2576L30.7746 19.2809L30.8055 19.3019L31.3689 18.4758ZM28.8662 18.2787L29.3105 19.1746L29.3295 19.1651L29.3481 19.1549L28.8662 18.2787ZM24.4915 19.7969C24.0302 20.1006 23.9025 20.7208 24.2061 21.1821C24.5098 21.6434 25.1299 21.7711 25.5912 21.4675L24.4915 19.7969ZM6.00232 29.0758L0.937507 22.337L-0.661268 23.5386L4.40355 30.2774L6.00232 29.0758ZM0.936096 22.3351C0.959051 22.3655 0.980225 22.4068 0.99158 22.458L-0.960815 22.8917C-0.907707 23.1308 -0.803103 23.3508 -0.659857 23.5405L0.936096 22.3351ZM0.99158 22.458C1.00302 22.5094 1.00279 22.5635 0.99099 22.6147L-0.958013 22.166C-1.01302 22.4049 -1.014 22.6523 -0.960815 22.8917L0.99158 22.458ZM0.99099 22.6147C0.97928 22.6656 0.957894 22.7065 0.934913 22.7365L-0.652383 21.5197C-0.79689 21.7083 -0.903092 21.9274 -0.958013 22.166L0.99099 22.6147ZM0.934913 22.7365C0.912231 22.7661 0.889153 22.7837 0.872028 22.7937L-0.131003 21.0634C-0.329269 21.1783 -0.508175 21.3316 -0.652383 21.5197L0.934913 22.7365ZM0.863618 22.7985L4.06245 20.9854L3.07624 19.2454L-0.122592 21.0585L0.863618 22.7985ZM4.06195 20.9856C4.0464 20.9945 4.03423 20.9977 4.02659 20.999C4.01891 21.0003 4.01151 21.0003 4.00362 20.999L4.34366 19.0281C3.91457 18.9541 3.46309 19.0264 3.07674 19.2451L4.06195 20.9856ZM4.00362 20.999C3.99183 20.9969 3.95178 20.9864 3.90963 20.9337L5.47097 19.6839C5.18307 19.3242 4.77295 19.1022 4.34366 19.0281L4.00362 20.999ZM3.90075 20.9225L9.0681 27.5706L10.6472 26.3432L5.47985 19.6951L3.90075 20.9225ZM9.06549 27.5672C9.04258 27.5375 9.02118 27.4968 9.00932 27.4463L10.9565 26.9898C10.9009 26.7523 10.7943 26.5341 10.6498 26.3466L9.06549 27.5672ZM9.00932 27.4463C8.99738 27.3953 8.99688 27.3414 9.00803 27.2899L10.9627 27.7135C11.0145 27.4745 11.0123 27.2278 10.9565 26.9898L9.00932 27.4463ZM9.00803 27.2899C9.01911 27.2388 9.04004 27.1973 9.06291 27.1666L10.6661 28.3624C10.8079 28.1723 10.9109 27.9522 10.9627 27.7135L9.00803 27.2899ZM9.06291 27.1666C9.08548 27.1364 9.10871 27.1181 9.12612 27.1077L10.1517 28.8247C10.3481 28.7074 10.5246 28.552 10.6661 28.3624L9.06291 27.1666ZM9.1374 27.1011L5.84288 29.0109L6.84592 30.7412L10.1404 28.8313L9.1374 27.1011ZM5.83218 29.0172C5.84948 29.0068 5.86331 29.0028 5.87234 29.0012L6.22371 30.9701C6.44474 30.9307 6.66001 30.8521 6.85662 30.7349L5.83218 29.0172ZM5.87234 29.0012C5.88137 28.9996 5.8899 28.9996 5.89887 29.0012L5.55463 30.9713C5.77577 31.01 6.00267 31.0096 6.22371 30.9701L5.87234 29.0012ZM5.89887 29.0012C5.90783 29.0027 5.92156 29.0067 5.93877 29.0168L4.92097 30.7385C5.11797 30.855 5.3335 30.9327 5.55463 30.9713L5.89887 29.0012ZM5.93877 29.0168C5.9561 29.0271 5.97929 29.0452 6.00191 29.0752L4.40396 30.2779C4.54641 30.4672 4.72384 30.6219 4.92097 30.7385L5.93877 29.0168ZM6.57095 21.3435L11.3096 18.0481L10.1677 16.4061L5.42905 19.7015L6.57095 21.3435ZM11.3134 18.0454C11.3488 18.0205 11.3823 18.008 11.4112 18.003L11.0649 16.0332C10.7386 16.0905 10.4322 16.2203 10.1639 16.4087L11.3134 18.0454ZM11.4112 18.003C11.4399 17.9979 11.4691 17.9992 11.4991 18.0077L12.0438 16.0833C11.7253 15.9931 11.3915 15.9758 11.0649 16.0332L11.4112 18.003ZM11.4985 18.0075C13.1823 18.4853 18.2013 20.0141 20.0171 20.7213L20.7429 18.8576C18.8285 18.1121 13.7262 16.5607 12.0444 16.0835L11.4985 18.0075ZM20.0181 20.7217C20.9669 21.09 21.1229 22.0091 20.9109 22.3877L22.6558 23.365C23.5737 21.726 22.5998 19.5784 20.7418 18.8572L20.0181 20.7217ZM20.9142 22.3818C20.6624 22.8243 20.4111 22.9378 20.2199 22.978C19.9747 23.0295 19.6683 22.9886 19.3116 22.877L18.7145 24.7858C19.1961 24.9365 19.8922 25.0906 20.6312 24.9353C21.4241 24.7687 22.1388 24.2735 22.6525 23.371L20.9142 22.3818ZM19.3865 22.9037L19.0523 22.7692L18.3055 24.6245L18.6396 24.759L19.3865 22.9037ZM19.1061 22.7927L15.789 21.2257L14.9347 23.0341L18.2518 24.6011L19.1061 22.7927ZM9.4522 26.3507L11.1724 25.4786L10.268 23.6947L8.5478 24.5669L9.4522 26.3507ZM10.4818 25.5578L20.2159 27.9472L20.6927 26.0049L10.9586 23.6155L10.4818 25.5578ZM20.211 27.946C20.4367 28.0026 20.6715 28.0147 20.901 27.9824L20.622 26.0019C20.6465 25.9985 20.6717 25.9996 20.6976 26.0061L20.211 27.946ZM20.901 27.9824C21.1305 27.95 21.3553 27.8731 21.5592 27.7518L20.5366 26.033C20.5682 26.0142 20.5975 26.0054 20.622 26.0019L20.901 27.9824ZM21.5468 27.7591C22.8983 26.9812 28.7868 23.533 31.6968 21.713L30.6363 20.0173C27.7584 21.8172 21.8959 25.2505 20.5491 26.0257L21.5468 27.7591ZM31.6075 21.7627C31.98 21.5797 32.3087 21.311 32.5548 20.9706L30.9341 19.7987C30.8908 19.8585 30.8223 19.9201 30.7255 19.9677L31.6075 21.7627ZM32.5548 20.9706C32.8016 20.6293 32.9559 20.2283 32.9919 19.8032L30.999 19.6344C30.9949 19.6832 30.9767 19.7399 30.9341 19.7987L32.5548 20.9706ZM32.9919 19.8032C33.0279 19.3778 32.9431 18.9555 32.7524 18.5771L30.9664 19.4774C30.9945 19.533 31.0031 19.586 30.999 19.6344L32.9919 19.8032ZM32.7524 18.5771C32.5623 18.2 32.2763 17.8842 31.9324 17.6496L30.8055 19.3019C30.8867 19.3573 30.9378 19.4206 30.9664 19.4774L32.7524 18.5771ZM31.9924 17.694C31.4913 17.2944 30.8729 17.0608 30.2332 17.0104L30.0762 19.0042C30.3393 19.0249 30.573 19.1201 30.7454 19.2576L31.9924 17.694ZM30.2332 17.0104C29.5936 16.96 28.9458 17.0937 28.3844 17.4024L29.3481 19.1549C29.5566 19.0403 29.8131 18.9835 30.0762 19.0042L30.2332 17.0104ZM28.422 17.3828C27.8599 17.6615 26.8567 18.2809 26.0392 18.7989C25.6203 19.0642 25.2339 19.3134 24.9523 19.4962C24.8114 19.5877 24.6965 19.6626 24.6168 19.7148C24.5769 19.7409 24.5457 19.7613 24.5245 19.7753C24.5139 19.7823 24.5057 19.7876 24.5002 19.7913C24.4974 19.7931 24.4953 19.7945 24.4939 19.7954C24.4931 19.7959 24.4926 19.7963 24.4922 19.7965C24.492 19.7966 24.4918 19.7967 24.4917 19.7968C24.4917 19.7969 24.4916 19.7969 24.4916 19.7969C24.4916 19.7969 24.4915 19.7969 25.0414 20.6322C25.5912 21.4675 25.5912 21.4675 25.5912 21.4675C25.5913 21.4675 25.5913 21.4674 25.5913 21.4674C25.5914 21.4674 25.5915 21.4673 25.5916 21.4672C25.5919 21.467 25.5924 21.4667 25.593 21.4663C25.5943 21.4655 25.5962 21.4642 25.5988 21.4625C25.604 21.4591 25.6117 21.454 25.622 21.4473C25.6424 21.4339 25.6727 21.414 25.7117 21.3885C25.7897 21.3374 25.9026 21.2638 26.0412 21.1738C26.3186 20.9937 26.6987 20.7487 27.1095 20.4883C27.9515 19.9549 28.8607 19.3976 29.3105 19.1746L28.422 17.3828ZM25.4072 11.9637C24.6721 12.5047 23.7979 12.8501 22.8734 12.9611L23.1118 14.9469C24.3745 14.7953 25.576 14.3228 26.5928 13.5744L25.4072 11.9637ZM22.8734 12.9611C21.9488 13.0721 21.0111 12.9442 20.1569 12.5919L19.3943 14.4408C20.5666 14.9243 21.8491 15.0985 23.1118 14.9469L22.8734 12.9611ZM20.1569 12.5919C19.3029 12.2397 18.5658 11.677 18.0181 10.9655L16.4332 12.1854C17.199 13.1803 18.2218 13.9573 19.3943 14.4408L20.1569 12.5919ZM18.0181 10.9655C17.4707 10.2543 17.1315 9.41915 17.0313 8.54603L15.0443 8.77415C15.1865 10.0131 15.6672 11.1901 16.4332 12.1854L18.0181 10.9655ZM17.0313 8.54603C16.931 7.67303 17.0728 6.78896 17.4439 5.98323L15.6273 5.1465C15.1039 6.28286 14.902 7.53508 15.0443 8.77415L17.0313 8.54603ZM17.4439 5.98323C17.8152 5.17719 18.404 4.47597 19.1543 3.95435L18.0127 2.31218C16.9752 3.0334 16.1506 4.01044 15.6273 5.1465L17.4439 5.98323ZM19.1543 3.95435C19.9049 3.43256 20.7889 3.11024 21.7164 3.02363L21.5304 1.03229C20.264 1.15057 19.0499 1.59112 18.0127 2.31218L19.1543 3.95435ZM21.7164 3.02363C22.6438 2.93701 23.5775 3.08961 24.421 3.46413L25.2326 1.63621C24.0741 1.12184 22.7968 0.914017 21.5304 1.03229L21.7164 3.02363ZM13 8H23V6H13V8ZM13 11H22V9H13V11Z" fill="#8FC1DD"/>
</g>
<defs>
<clipPath id="clip0_44_1235">
<rect width="32" height="32" fill="white"/>
</clipPath>
</defs>
</svg>
