<svg width="32" height="32" viewBox="0 0 32 32" fill="none" xmlns="http://www.w3.org/2000/svg">
<g clip-path="url(#clip0_21_1012)">
<path d="M2.36625 5.385L10 7.56563V31.6725L1.63375 29.2819C1.35519 29.2023 1.11013 29.0341 0.935679 28.8028C0.761223 28.5715 0.66686 28.2897 0.66687 28V6.66687C0.666963 6.4605 0.714946 6.25696 0.807043 6.07228C0.899139 5.88759 1.03284 5.7268 1.19762 5.60255C1.3624 5.4783 1.55376 5.39398 1.75665 5.35623C1.95954 5.31848 2.16843 5.32833 2.36687 5.385H2.36625ZM22 16.895C19.5694 14.6844 15.3331 10.1706 15.3331 7C15.3331 3.20563 18.3862 0 22 0C25.6137 0 28.6669 3.20563 28.6669 7C28.6669 10.165 24.43 14.6819 22 16.895ZM22 9.3325C22.5275 9.3325 23.0431 9.17609 23.4816 8.88305C23.9202 8.59001 24.262 8.1735 24.4639 7.68619C24.6657 7.19889 24.7185 6.66267 24.6156 6.14534C24.5127 5.62802 24.2587 5.15283 23.8858 4.77986C23.5128 4.40689 23.0376 4.15289 22.5203 4.04999C22.003 3.94709 21.4667 3.9999 20.9794 4.20175C20.4921 4.4036 20.0756 4.74542 19.7826 5.18399C19.4895 5.62255 19.3331 6.13817 19.3331 6.66563C19.333 7.0159 19.402 7.36275 19.5359 7.68639C19.6699 8.01002 19.8664 8.30409 20.114 8.55179C20.3617 8.7995 20.6557 8.996 20.9793 9.13006C21.3029 9.26412 21.6497 9.33313 22 9.33313V9.3325ZM31.125 8.64C30.04 13.1063 25.025 17.7994 23.3356 19.2787V30.1488L29.6356 31.9487C29.8341 32.0054 30.0429 32.0153 30.2458 31.9775C30.4487 31.9398 30.6401 31.8555 30.8049 31.7312C30.9697 31.607 31.1033 31.4462 31.1954 31.2615C31.2875 31.0768 31.3355 30.8733 31.3356 30.6669V9.33313C31.3315 9.08715 31.2585 8.84725 31.125 8.64062V8.64ZM12.6937 7.55813L12.6669 7.56563V31.6725L20.6669 29.3869V19.2794C18.8394 17.68 13.125 12.3225 12.6937 7.55813Z" fill="#8FC1DD"/>
</g>
<defs>
<clipPath id="clip0_21_1012">
<rect width="32" height="32" fill="white"/>
</clipPath>
</defs>
</svg>
