<svg width="32" height="32" viewBox="0 0 32 32" fill="none" xmlns="http://www.w3.org/2000/svg">
<path d="M26.6667 18.6667H20.9333L21.9067 13.3334H26.6667C27.0203 13.3334 27.3594 13.1929 27.6095 12.9429C27.8595 12.6928 28 12.3537 28 12C28 11.6464 27.8595 11.3073 27.6095 11.0572C27.3594 10.8072 27.0203 10.6667 26.6667 10.6667H22.3867L23.3067 5.58671C23.343 5.40845 23.3425 5.22463 23.3052 5.04658C23.2678 4.86852 23.1944 4.69999 23.0895 4.55136C22.9846 4.40273 22.8504 4.27715 22.6951 4.18233C22.5398 4.08752 22.3668 4.02548 22.1867 4.00004C22.0075 3.95737 21.8215 3.95226 21.6403 3.98504C21.4592 4.01781 21.2867 4.08776 21.1339 4.19048C20.9811 4.29319 20.8512 4.42644 20.7524 4.58184C20.6536 4.73724 20.5881 4.91141 20.56 5.09337L19.56 10.6667H14.3867L15.3067 5.58671C15.343 5.40845 15.3425 5.22463 15.3052 5.04658C15.2678 4.86852 15.1944 4.69999 15.0895 4.55136C14.9846 4.40273 14.8504 4.27715 14.6951 4.18233C14.5398 4.08752 14.3668 4.02548 14.1867 4.00004C14.0075 3.95737 13.8215 3.95226 13.6403 3.98504C13.4592 4.01781 13.2867 4.08776 13.1339 4.19048C12.9811 4.29319 12.8512 4.42644 12.7524 4.58184C12.6536 4.73724 12.5881 4.91141 12.56 5.09337L11.56 10.6667H5.33333C4.97971 10.6667 4.64057 10.8072 4.39052 11.0572C4.14048 11.3073 4 11.6464 4 12C4 12.3537 4.14048 12.6928 4.39052 12.9429C4.64057 13.1929 4.97971 13.3334 5.33333 13.3334H11.0667L10.0933 18.6667H5.33333C4.97971 18.6667 4.64057 18.8072 4.39052 19.0572C4.14048 19.3073 4 19.6464 4 20C4 20.3537 4.14048 20.6928 4.39052 20.9429C4.64057 21.1929 4.97971 21.3334 5.33333 21.3334H9.61333L8.69333 26.4134C8.65698 26.5916 8.65749 26.7754 8.69484 26.9535C8.73218 27.1316 8.80557 27.3001 8.91049 27.4487C9.0154 27.5973 9.14962 27.7229 9.30489 27.8178C9.46016 27.9126 9.63319 27.9746 9.81333 28C9.99245 28.0427 10.1785 28.0478 10.3597 28.015C10.5408 27.9823 10.7133 27.9123 10.8661 27.8096C11.0189 27.7069 11.1488 27.5736 11.2476 27.4182C11.3464 27.2628 11.4119 27.0887 11.44 26.9067L12.44 21.3334H17.6133L16.6933 26.4134C16.657 26.5916 16.6575 26.7754 16.6948 26.9535C16.7322 27.1316 16.8056 27.3001 16.9105 27.4487C17.0154 27.5973 17.1496 27.7229 17.3049 27.8178C17.4602 27.9126 17.6332 27.9746 17.8133 28C17.9925 28.0427 18.1785 28.0478 18.3597 28.015C18.5408 27.9823 18.7133 27.9123 18.8661 27.8096C19.0189 27.7069 19.1488 27.5736 19.2476 27.4182C19.3464 27.2628 19.4119 27.0887 19.44 26.9067L20.44 21.3334H26.6667C27.0203 21.3334 27.3594 21.1929 27.6095 20.9429C27.8595 20.6928 28 20.3537 28 20C28 19.6464 27.8595 19.3073 27.6095 19.0572C27.3594 18.8072 27.0203 18.6667 26.6667 18.6667ZM12.9333 18.6667L13.9067 13.3334H19.0667L18.0933 18.6667H12.9333Z" fill="#262728"/>
</svg>
