<svg width="32" height="32" viewBox="0 0 32 32" fill="none" xmlns="http://www.w3.org/2000/svg">
<path d="M21.5333 17.3333H6.66665C6.28887 17.3333 5.97198 17.2053 5.71598 16.9493C5.45998 16.6933 5.33243 16.3768 5.33332 16C5.33332 15.6222 5.46132 15.3053 5.71732 15.0493C5.97332 14.7933 6.28976 14.6657 6.66665 14.6666H21.5333L17.7333 10.8666C17.4667 10.6 17.3387 10.2888 17.3493 9.93329C17.36 9.57774 17.488 9.26663 17.7333 8.99996C18 8.73329 18.3169 8.59418 18.684 8.58263C19.0511 8.57107 19.3675 8.69907 19.6333 8.96663L25.7333 15.0666C25.8667 15.2 25.9613 15.3444 26.0173 15.5C26.0733 15.6555 26.1009 15.8222 26.1 16C26.1 16.1777 26.072 16.3444 26.016 16.5C25.96 16.6555 25.8658 16.8 25.7333 16.9333L19.6333 23.0333C19.3667 23.3 19.0502 23.428 18.684 23.4173C18.3178 23.4066 18.0009 23.2675 17.7333 23C17.4889 22.7333 17.3609 22.4222 17.3493 22.0666C17.3378 21.7111 17.4658 21.4 17.7333 21.1333L21.5333 17.3333Z" fill="#262728"/>
</svg>
