<svg width="18" height="17" viewBox="0 0 18 17" fill="none" xmlns="http://www.w3.org/2000/svg">
<rect x="0.5" y="0.5" width="17" height="16" rx="2.5" fill="#5FADE0"/>
<rect x="0.5" y="0.5" width="17" height="16" rx="2.5" stroke="#ECF0F1" stroke-miterlimit="1.41421" stroke-linecap="round" stroke-linejoin="round"/>
<g clip-path="url(#clip0_22_1361)">
<path d="M14.7422 3.09561C13.756 3.65907 12.6413 4.46574 11.5932 5.37544C10.7485 6.10878 9.84753 6.99249 9.01315 7.90591C8.43753 8.53713 7.8169 9.27139 7.25628 9.98523C7.06128 10.234 6.5569 10.9005 6.39846 11.1205C6.3169 11.2338 6.2719 11.2885 6.26253 11.2857C6.25503 11.2839 5.54159 10.8866 4.67815 10.4039L3.10784 9.52481L3.07221 9.56473C3.05346 9.587 3.03284 9.61114 3.02815 9.61949C3.01971 9.63435 3.15284 9.78844 6.54753 13.6862L6.82034 14H6.85784H6.89534L7.10815 13.5795C8.15909 11.5085 9.19128 9.80329 10.3622 8.20295C11.6532 6.44017 13.1147 4.81662 14.7591 3.32118C14.8763 3.21443 14.9719 3.12439 14.9719 3.12068C14.9719 3.11603 14.9072 3.02506 14.895 3.013C14.8932 3.01207 14.8247 3.0492 14.7422 3.09561Z" fill="#ECF0F1"/>
</g>
<defs>
<clipPath id="clip0_22_1361">
<rect width="12" height="11" fill="white" transform="translate(3 3)"/>
</clipPath>
</defs>
</svg>
