<svg width="18" height="17" viewBox="0 0 18 17" fill="none" xmlns="http://www.w3.org/2000/svg">
<rect x="0.5" y="0.5" width="17" height="16" rx="2.5" fill="#262728"/>
<rect x="0.5" y="0.5" width="17" height="16" rx="2.5" stroke="#E84B3C" stroke-miterlimit="1.41421" stroke-linecap="round" stroke-linejoin="round"/>
<path d="M16.2447 4.84847L7.01669 13.2678C6.93632 13.3414 6.84082 13.3998 6.73566 13.4397C6.6305 13.4795 6.51776 13.5 6.40389 13.5C6.29003 13.5 6.17729 13.4795 6.07213 13.4397C5.96697 13.3998 5.87147 13.3414 5.79109 13.2678L1.75383 9.58437C1.67336 9.51095 1.60952 9.42378 1.56597 9.32785C1.52242 9.23192 1.5 9.1291 1.5 9.02527C1.5 8.92143 1.52242 8.81862 1.56597 8.72269C1.60952 8.62676 1.67336 8.53959 1.75383 8.46617C1.8343 8.39275 1.92984 8.33451 2.03498 8.29477C2.14013 8.25503 2.25282 8.23458 2.36663 8.23458C2.48044 8.23458 2.59313 8.25503 2.69827 8.29477C2.80342 8.33451 2.89895 8.39275 2.97943 8.46617L6.40461 11.5912L15.0206 3.73159C15.1831 3.5833 15.4035 3.5 15.6334 3.5C15.8632 3.5 16.0836 3.5833 16.2462 3.73159C16.4087 3.87987 16.5 4.08098 16.5 4.29069C16.5 4.50039 16.4087 4.7015 16.2462 4.84978L16.2447 4.84847Z" fill="#262728"/>
</svg>
