<svg width="154" height="62" viewBox="0 0 154 62" fill="none" xmlns="http://www.w3.org/2000/svg">
<g filter="url(#filter0_d_70_1164)">
<rect width="146" height="54" transform="translate(4)" fill="#262728"/>
<path d="M33.5334 28.3333H18.6667C18.2889 28.3333 17.972 28.2053 17.716 27.9493C17.46 27.6933 17.3325 27.3768 17.3334 27C17.3334 26.6222 17.4614 26.3053 17.7174 26.0493C17.9734 25.7933 18.2898 25.6657 18.6667 25.6666H33.5334L29.7334 21.8666C29.4667 21.6 29.3387 21.2888 29.3494 20.9333C29.36 20.5777 29.488 20.2666 29.7334 20C30 19.7333 30.3169 19.5942 30.684 19.5826C31.0512 19.5711 31.3676 19.6991 31.6334 19.9666L37.7334 26.0666C37.8667 26.2 37.9614 26.3444 38.0174 26.5C38.0734 26.6555 38.1009 26.8222 38.1 27C38.1 27.1777 38.072 27.3444 38.016 27.5C37.96 27.6555 37.8658 27.8 37.7334 27.9333L31.6334 34.0333C31.3667 34.3 31.0503 34.428 30.684 34.4173C30.3178 34.4066 30.0009 34.2675 29.7334 34C29.4889 33.7333 29.3609 33.4222 29.3494 33.0666C29.3378 32.7111 29.4658 32.4 29.7334 32.1333L33.5334 28.3333Z" fill="#ECF0F1"/>
<path d="M58.1476 31.62C57.4996 31.62 56.8716 31.528 56.2636 31.344C55.6636 31.16 55.1876 30.916 54.8356 30.612L55.3756 29.4C55.7196 29.672 56.1396 29.896 56.6356 30.072C57.1396 30.24 57.6436 30.324 58.1476 30.324C58.7716 30.324 59.2356 30.224 59.5396 30.024C59.8516 29.824 60.0076 29.56 60.0076 29.232C60.0076 28.992 59.9196 28.796 59.7436 28.644C59.5756 28.484 59.3596 28.36 59.0956 28.272C58.8316 28.184 58.4716 28.084 58.0156 27.972C57.3756 27.82 56.8556 27.668 56.4556 27.516C56.0636 27.364 55.7236 27.128 55.4356 26.808C55.1556 26.48 55.0156 26.04 55.0156 25.488C55.0156 25.024 55.1396 24.604 55.3876 24.228C55.6436 23.844 56.0236 23.54 56.5276 23.316C57.0396 23.092 57.6636 22.98 58.3996 22.98C58.9116 22.98 59.4156 23.044 59.9116 23.172C60.4076 23.3 60.8356 23.484 61.1956 23.724L60.7036 24.936C60.3356 24.72 59.9516 24.556 59.5516 24.444C59.1516 24.332 58.7636 24.276 58.3876 24.276C57.7716 24.276 57.3116 24.38 57.0076 24.588C56.7116 24.796 56.5636 25.072 56.5636 25.416C56.5636 25.656 56.6476 25.852 56.8156 26.004C56.9916 26.156 57.2116 26.276 57.4756 26.364C57.7396 26.452 58.0996 26.552 58.5556 26.664C59.1796 26.808 59.6916 26.96 60.0916 27.12C60.4916 27.272 60.8316 27.508 61.1116 27.828C61.3996 28.148 61.5436 28.58 61.5436 29.124C61.5436 29.588 61.4156 30.008 61.1596 30.384C60.9116 30.76 60.5316 31.06 60.0196 31.284C59.5076 31.508 58.8836 31.62 58.1476 31.62ZM72.0425 30.696C71.6665 30.992 71.1825 31.22 70.5905 31.38C69.9985 31.54 69.3585 31.62 68.6705 31.62C67.8625 31.62 67.1745 31.516 66.6065 31.308C66.0465 31.1 65.6225 30.812 65.3345 30.444C65.0465 30.076 64.9025 29.652 64.9025 29.172C64.9025 28.708 65.0305 28.304 65.2865 27.96C65.5425 27.616 65.8865 27.364 66.3185 27.204C65.9905 27.028 65.7305 26.784 65.5385 26.472C65.3545 26.152 65.2625 25.796 65.2625 25.404C65.2625 24.956 65.3945 24.552 65.6585 24.192C65.9305 23.824 66.3345 23.532 66.8705 23.316C67.4065 23.092 68.0665 22.98 68.8505 22.98C69.3785 22.98 69.8945 23.036 70.3985 23.148C70.9025 23.26 71.3425 23.412 71.7185 23.604L71.2745 24.84C70.5705 24.472 69.7825 24.288 68.9105 24.288C68.2225 24.288 67.7025 24.4 67.3505 24.624C67.0065 24.84 66.8345 25.132 66.8345 25.5C66.8345 25.86 66.9625 26.136 67.2185 26.328C67.4745 26.512 67.8505 26.604 68.3465 26.604H70.5665V27.9H68.2625C67.6945 27.9 67.2545 28 66.9425 28.2C66.6305 28.392 66.4745 28.68 66.4745 29.064C66.4745 29.448 66.6625 29.752 67.0385 29.976C67.4145 30.2 67.9825 30.312 68.7425 30.312C69.2705 30.312 69.7825 30.24 70.2785 30.096C70.7825 29.952 71.2025 29.752 71.5385 29.496L72.0425 30.696ZM82.2472 30.696C81.8712 30.992 81.3872 31.22 80.7952 31.38C80.2032 31.54 79.5632 31.62 78.8752 31.62C78.0672 31.62 77.3792 31.516 76.8112 31.308C76.2512 31.1 75.8272 30.812 75.5392 30.444C75.2512 30.076 75.1072 29.652 75.1072 29.172C75.1072 28.708 75.2352 28.304 75.4912 27.96C75.7472 27.616 76.0912 27.364 76.5232 27.204C76.1952 27.028 75.9352 26.784 75.7432 26.472C75.5592 26.152 75.4672 25.796 75.4672 25.404C75.4672 24.956 75.5992 24.552 75.8632 24.192C76.1352 23.824 76.5392 23.532 77.0752 23.316C77.6112 23.092 78.2712 22.98 79.0552 22.98C79.5832 22.98 80.0992 23.036 80.6032 23.148C81.1072 23.26 81.5472 23.412 81.9232 23.604L81.4792 24.84C80.7752 24.472 79.9872 24.288 79.1152 24.288C78.4272 24.288 77.9072 24.4 77.5552 24.624C77.2112 24.84 77.0392 25.132 77.0392 25.5C77.0392 25.86 77.1672 26.136 77.4232 26.328C77.6792 26.512 78.0552 26.604 78.5512 26.604H80.7712V27.9H78.4672C77.8992 27.9 77.4592 28 77.1472 28.2C76.8352 28.392 76.6792 28.68 76.6792 29.064C76.6792 29.448 76.8672 29.752 77.2432 29.976C77.6192 30.2 78.1872 30.312 78.9472 30.312C79.4752 30.312 79.9872 30.24 80.4832 30.096C80.9872 29.952 81.4072 29.752 81.7432 29.496L82.2472 30.696ZM101.059 22.98C102.043 22.98 102.811 23.268 103.363 23.844C103.915 24.412 104.191 25.232 104.191 26.304V31.5H102.631V26.364C102.631 25.7 102.455 25.2 102.103 24.864C101.759 24.52 101.307 24.348 100.747 24.348C100.123 24.348 99.6229 24.524 99.2469 24.876C98.8789 25.228 98.6949 25.768 98.6949 26.496V31.5H97.1349V26.364C97.1349 25.692 96.9709 25.188 96.6429 24.852C96.3229 24.516 95.8829 24.348 95.3229 24.348C94.6909 24.348 94.1829 24.528 93.7989 24.888C93.4229 25.24 93.2349 25.776 93.2349 26.496V31.5H91.6749V23.1H93.1869V24.204C93.4429 23.812 93.7909 23.512 94.2309 23.304C94.6709 23.088 95.1789 22.98 95.7549 22.98C96.3469 22.98 96.8629 23.092 97.3029 23.316C97.7429 23.54 98.0749 23.856 98.2989 24.264C98.5789 23.856 98.9589 23.54 99.4389 23.316C99.9269 23.092 100.467 22.98 101.059 22.98ZM112.694 31.62C111.838 31.62 111.066 31.436 110.378 31.068C109.69 30.692 109.15 30.176 108.758 29.52C108.366 28.856 108.17 28.116 108.17 27.3C108.17 26.484 108.366 25.748 108.758 25.092C109.15 24.428 109.69 23.912 110.378 23.544C111.066 23.168 111.838 22.98 112.694 22.98C113.55 22.98 114.322 23.168 115.01 23.544C115.698 23.912 116.238 24.424 116.63 25.08C117.022 25.736 117.218 26.476 117.218 27.3C117.218 28.124 117.022 28.864 116.63 29.52C116.238 30.176 115.698 30.692 115.01 31.068C114.322 31.436 113.55 31.62 112.694 31.62ZM112.694 30.252C113.254 30.252 113.758 30.128 114.206 29.88C114.654 29.624 115.006 29.272 115.262 28.824C115.518 28.368 115.646 27.86 115.646 27.3C115.646 26.74 115.518 26.236 115.262 25.788C115.006 25.332 114.654 24.98 114.206 24.732C113.758 24.476 113.254 24.348 112.694 24.348C112.134 24.348 111.63 24.476 111.182 24.732C110.734 24.98 110.382 25.332 110.126 25.788C109.87 26.236 109.742 26.74 109.742 27.3C109.742 27.86 109.87 28.368 110.126 28.824C110.382 29.272 110.734 29.624 111.182 29.88C111.63 30.128 112.134 30.252 112.694 30.252ZM126.768 31.5L125.052 29.04C124.98 29.048 124.872 29.052 124.728 29.052H122.832V31.5H121.272V23.1H124.728C125.456 23.1 126.088 23.22 126.624 23.46C127.168 23.7 127.584 24.044 127.872 24.492C128.16 24.94 128.304 25.472 128.304 26.088C128.304 26.72 128.148 27.264 127.836 27.72C127.532 28.176 127.092 28.516 126.516 28.74L128.448 31.5H126.768ZM126.732 26.088C126.732 25.552 126.556 25.14 126.204 24.852C125.852 24.564 125.336 24.42 124.656 24.42H122.832V27.768H124.656C125.336 27.768 125.852 27.624 126.204 27.336C126.556 27.04 126.732 26.624 126.732 26.088ZM139.001 30.696C138.625 30.992 138.141 31.22 137.549 31.38C136.957 31.54 136.317 31.62 135.629 31.62C134.821 31.62 134.133 31.516 133.565 31.308C133.005 31.1 132.581 30.812 132.293 30.444C132.005 30.076 131.861 29.652 131.861 29.172C131.861 28.708 131.989 28.304 132.245 27.96C132.501 27.616 132.845 27.364 133.277 27.204C132.949 27.028 132.689 26.784 132.497 26.472C132.313 26.152 132.221 25.796 132.221 25.404C132.221 24.956 132.353 24.552 132.617 24.192C132.889 23.824 133.293 23.532 133.829 23.316C134.365 23.092 135.025 22.98 135.809 22.98C136.337 22.98 136.853 23.036 137.357 23.148C137.861 23.26 138.301 23.412 138.677 23.604L138.233 24.84C137.529 24.472 136.741 24.288 135.869 24.288C135.181 24.288 134.661 24.4 134.309 24.624C133.965 24.84 133.793 25.132 133.793 25.5C133.793 25.86 133.921 26.136 134.177 26.328C134.433 26.512 134.809 26.604 135.305 26.604H137.525V27.9H135.221C134.653 27.9 134.213 28 133.901 28.2C133.589 28.392 133.433 28.68 133.433 29.064C133.433 29.448 133.621 29.752 133.997 29.976C134.373 30.2 134.941 30.312 135.701 30.312C136.229 30.312 136.741 30.24 137.237 30.096C137.741 29.952 138.161 29.752 138.497 29.496L139.001 30.696Z" fill="#ECF0F1"/>
</g>
<defs>
<filter id="filter0_d_70_1164" x="0" y="0" width="154" height="62" filterUnits="userSpaceOnUse" color-interpolation-filters="sRGB">
<feFlood flood-opacity="0" result="BackgroundImageFix"/>
<feColorMatrix in="SourceAlpha" type="matrix" values="0 0 0 0 0 0 0 0 0 0 0 0 0 0 0 0 0 0 127 0" result="hardAlpha"/>
<feOffset dy="4"/>
<feGaussianBlur stdDeviation="2"/>
<feComposite in2="hardAlpha" operator="out"/>
<feColorMatrix type="matrix" values="0 0 0 0 0 0 0 0 0 0 0 0 0 0 0 0 0 0 0.25 0"/>
<feBlend mode="normal" in2="BackgroundImageFix" result="effect1_dropShadow_70_1164"/>
<feBlend mode="normal" in="SourceGraphic" in2="effect1_dropShadow_70_1164" result="shape"/>
</filter>
</defs>
</svg>
