<svg width="207" height="62" viewBox="0 0 207 62" fill="none" xmlns="http://www.w3.org/2000/svg">
<g filter="url(#filter0_d_70_1172)">
<rect width="199" height="54" transform="translate(4)" fill="#262728"/>
<path d="M33.5334 28.3333H18.6667C18.2889 28.3333 17.972 28.2053 17.716 27.9493C17.46 27.6933 17.3325 27.3768 17.3334 27C17.3334 26.6222 17.4614 26.3053 17.7174 26.0493C17.9734 25.7933 18.2898 25.6657 18.6667 25.6666H33.5334L29.7334 21.8666C29.4667 21.6 29.3387 21.2888 29.3494 20.9333C29.36 20.5777 29.488 20.2666 29.7334 20C30 19.7333 30.3169 19.5942 30.684 19.5826C31.0512 19.5711 31.3676 19.6991 31.6334 19.9666L37.7334 26.0666C37.8667 26.2 37.9614 26.3444 38.0174 26.5C38.0734 26.6555 38.1009 26.8222 38.1 27C38.1 27.1777 38.072 27.3444 38.016 27.5C37.96 27.6555 37.8658 27.8 37.7334 27.9333L31.6334 34.0333C31.3667 34.3 31.0503 34.428 30.684 34.4173C30.3178 34.4066 30.0009 34.2675 29.7334 34C29.4889 33.7333 29.3609 33.4222 29.3494 33.0666C29.3378 32.7111 29.4658 32.4 29.7334 32.1333L33.5334 28.3333Z" fill="#ECF0F1"/>
<path d="M62.089 30.696C61.713 30.992 61.229 31.22 60.637 31.38C60.045 31.54 59.405 31.62 58.717 31.62C57.909 31.62 57.221 31.516 56.653 31.308C56.093 31.1 55.669 30.812 55.381 30.444C55.093 30.076 54.949 29.652 54.949 29.172C54.949 28.708 55.077 28.304 55.333 27.96C55.589 27.616 55.933 27.364 56.365 27.204C56.037 27.028 55.777 26.784 55.585 26.472C55.401 26.152 55.309 25.796 55.309 25.404C55.309 24.956 55.441 24.552 55.705 24.192C55.977 23.824 56.381 23.532 56.917 23.316C57.453 23.092 58.113 22.98 58.897 22.98C59.425 22.98 59.941 23.036 60.445 23.148C60.949 23.26 61.389 23.412 61.765 23.604L61.321 24.84C60.617 24.472 59.829 24.288 58.957 24.288C58.269 24.288 57.749 24.4 57.397 24.624C57.053 24.84 56.881 25.132 56.881 25.5C56.881 25.86 57.009 26.136 57.265 26.328C57.521 26.512 57.897 26.604 58.393 26.604H60.613V27.9H58.309C57.741 27.9 57.301 28 56.989 28.2C56.677 28.392 56.521 28.68 56.521 29.064C56.521 29.448 56.709 29.752 57.085 29.976C57.461 30.2 58.029 30.312 58.789 30.312C59.317 30.312 59.829 30.24 60.325 30.096C60.829 29.952 61.249 29.752 61.585 29.496L62.089 30.696ZM69.9763 22.98C70.9843 22.98 71.7683 23.288 72.3283 23.904C72.8963 24.52 73.1803 25.4 73.1803 26.544V31.5H71.6203V26.604C71.6203 25.86 71.4403 25.3 71.0803 24.924C70.7283 24.54 70.2363 24.348 69.6043 24.348C68.9163 24.348 68.3683 24.552 67.9603 24.96C67.5603 25.36 67.3603 25.96 67.3603 26.76V31.5H65.8003V23.1H67.3123V24.156C67.8963 23.372 68.7843 22.98 69.9763 22.98ZM86.0832 31.62C85.4352 31.62 84.8072 31.528 84.1992 31.344C83.5992 31.16 83.1232 30.916 82.7712 30.612L83.3112 29.4C83.6552 29.672 84.0752 29.896 84.5712 30.072C85.0752 30.24 85.5792 30.324 86.0832 30.324C86.7072 30.324 87.1712 30.224 87.4752 30.024C87.7872 29.824 87.9432 29.56 87.9432 29.232C87.9432 28.992 87.8552 28.796 87.6792 28.644C87.5112 28.484 87.2952 28.36 87.0312 28.272C86.7672 28.184 86.4072 28.084 85.9512 27.972C85.3112 27.82 84.7912 27.668 84.3912 27.516C83.9992 27.364 83.6592 27.128 83.3712 26.808C83.0912 26.48 82.9512 26.04 82.9512 25.488C82.9512 25.024 83.0752 24.604 83.3232 24.228C83.5792 23.844 83.9592 23.54 84.4632 23.316C84.9752 23.092 85.5992 22.98 86.3352 22.98C86.8472 22.98 87.3512 23.044 87.8472 23.172C88.3432 23.3 88.7712 23.484 89.1312 23.724L88.6392 24.936C88.2712 24.72 87.8872 24.556 87.4872 24.444C87.0872 24.332 86.6992 24.276 86.3232 24.276C85.7072 24.276 85.2472 24.38 84.9432 24.588C84.6472 24.796 84.4992 25.072 84.4992 25.416C84.4992 25.656 84.5832 25.852 84.7512 26.004C84.9272 26.156 85.1472 26.276 85.4112 26.364C85.6752 26.452 86.0352 26.552 86.4912 26.664C87.1152 26.808 87.6272 26.96 88.0272 27.12C88.4272 27.272 88.7672 27.508 89.0472 27.828C89.3352 28.148 89.4792 28.58 89.4792 29.124C89.4792 29.588 89.3512 30.008 89.0952 30.384C88.8472 30.76 88.4672 31.06 87.9552 31.284C87.4432 31.508 86.8192 31.62 86.0832 31.62ZM97.086 22.98C97.838 22.98 98.494 23.128 99.054 23.424C99.614 23.72 100.046 24.16 100.35 24.744C100.662 25.32 100.818 26.02 100.818 26.844V31.5H99.258V29.34H94.89V31.5H93.354V26.844C93.354 26.02 93.506 25.32 93.81 24.744C94.122 24.16 94.558 23.72 95.118 23.424C95.678 23.128 96.334 22.98 97.086 22.98ZM99.258 28.032V26.7C99.258 25.924 99.066 25.34 98.682 24.948C98.298 24.548 97.762 24.348 97.074 24.348C96.386 24.348 95.85 24.548 95.466 24.948C95.082 25.34 94.89 25.924 94.89 26.7V28.032H99.258ZM112.846 23.1L109.186 31.5H107.65L103.978 23.1H105.67L108.466 29.58L111.286 23.1H112.846ZM119.963 31.62C119.107 31.62 118.335 31.436 117.647 31.068C116.959 30.692 116.419 30.176 116.027 29.52C115.635 28.856 115.439 28.116 115.439 27.3C115.439 26.484 115.635 25.748 116.027 25.092C116.419 24.428 116.959 23.912 117.647 23.544C118.335 23.168 119.107 22.98 119.963 22.98C120.819 22.98 121.591 23.168 122.279 23.544C122.967 23.912 123.507 24.424 123.899 25.08C124.291 25.736 124.487 26.476 124.487 27.3C124.487 28.124 124.291 28.864 123.899 29.52C123.507 30.176 122.967 30.692 122.279 31.068C121.591 31.436 120.819 31.62 119.963 31.62ZM119.963 30.252C120.523 30.252 121.027 30.128 121.475 29.88C121.923 29.624 122.275 29.272 122.531 28.824C122.787 28.368 122.915 27.86 122.915 27.3C122.915 26.74 122.787 26.236 122.531 25.788C122.275 25.332 121.923 24.98 121.475 24.732C121.027 24.476 120.523 24.348 119.963 24.348C119.403 24.348 118.899 24.476 118.451 24.732C118.003 24.98 117.651 25.332 117.395 25.788C117.139 26.236 117.011 26.74 117.011 27.3C117.011 27.86 117.139 28.368 117.395 28.824C117.651 29.272 118.003 29.624 118.451 29.88C118.899 30.128 119.403 30.252 119.963 30.252ZM130.942 24.408V30.192H132.49V31.5H127.846V30.192H129.394V24.408H127.846V23.1H132.49V24.408H130.942ZM142.003 31.5L140.287 29.04C140.215 29.048 140.107 29.052 139.963 29.052H138.067V31.5H136.507V23.1H139.963C140.691 23.1 141.323 23.22 141.859 23.46C142.403 23.7 142.819 24.044 143.107 24.492C143.395 24.94 143.539 25.472 143.539 26.088C143.539 26.72 143.383 27.264 143.071 27.72C142.767 28.176 142.327 28.516 141.751 28.74L143.683 31.5H142.003ZM141.967 26.088C141.967 25.552 141.791 25.14 141.439 24.852C141.087 24.564 140.571 24.42 139.891 24.42H138.067V27.768H139.891C140.571 27.768 141.087 27.624 141.439 27.336C141.791 27.04 141.967 26.624 141.967 26.088ZM156.856 23.1C157.584 23.1 158.216 23.22 158.752 23.46C159.296 23.7 159.712 24.044 160 24.492C160.288 24.94 160.432 25.472 160.432 26.088C160.432 26.696 160.288 27.228 160 27.684C159.712 28.132 159.296 28.476 158.752 28.716C158.216 28.956 157.584 29.076 156.856 29.076H154.96V31.5H153.4V23.1H156.856ZM156.784 27.756C157.464 27.756 157.98 27.612 158.332 27.324C158.684 27.036 158.86 26.624 158.86 26.088C158.86 25.552 158.684 25.14 158.332 24.852C157.98 24.564 157.464 24.42 156.784 24.42H154.96V27.756H156.784ZM164.39 23.1H165.95V30.18H170.342V31.5H164.39V23.1ZM181.117 23.1V31.5H179.617V30.432C179.049 31.224 178.169 31.62 176.977 31.62C175.985 31.62 175.205 31.312 174.637 30.696C174.069 30.072 173.785 29.192 173.785 28.056V23.1H175.345V27.996C175.345 28.74 175.521 29.304 175.873 29.688C176.233 30.064 176.725 30.252 177.349 30.252C178.021 30.252 178.557 30.052 178.957 29.652C179.357 29.244 179.557 28.64 179.557 27.84V23.1H181.117ZM188.376 31.62C187.728 31.62 187.1 31.528 186.492 31.344C185.892 31.16 185.416 30.916 185.064 30.612L185.604 29.4C185.948 29.672 186.368 29.896 186.864 30.072C187.368 30.24 187.872 30.324 188.376 30.324C189 30.324 189.464 30.224 189.768 30.024C190.08 29.824 190.236 29.56 190.236 29.232C190.236 28.992 190.148 28.796 189.972 28.644C189.804 28.484 189.588 28.36 189.324 28.272C189.06 28.184 188.7 28.084 188.244 27.972C187.604 27.82 187.084 27.668 186.684 27.516C186.292 27.364 185.952 27.128 185.664 26.808C185.384 26.48 185.244 26.04 185.244 25.488C185.244 25.024 185.368 24.604 185.616 24.228C185.872 23.844 186.252 23.54 186.756 23.316C187.268 23.092 187.892 22.98 188.628 22.98C189.14 22.98 189.644 23.044 190.14 23.172C190.636 23.3 191.064 23.484 191.424 23.724L190.932 24.936C190.564 24.72 190.18 24.556 189.78 24.444C189.38 24.332 188.992 24.276 188.616 24.276C188 24.276 187.54 24.38 187.236 24.588C186.94 24.796 186.792 25.072 186.792 25.416C186.792 25.656 186.876 25.852 187.044 26.004C187.22 26.156 187.44 26.276 187.704 26.364C187.968 26.452 188.328 26.552 188.784 26.664C189.408 26.808 189.92 26.96 190.32 27.12C190.72 27.272 191.06 27.508 191.34 27.828C191.628 28.148 191.772 28.58 191.772 29.124C191.772 29.588 191.644 30.008 191.388 30.384C191.14 30.76 190.76 31.06 190.248 31.284C189.736 31.508 189.112 31.62 188.376 31.62Z" fill="#ECF0F1"/>
</g>
<defs>
<filter id="filter0_d_70_1172" x="0" y="0" width="207" height="62" filterUnits="userSpaceOnUse" color-interpolation-filters="sRGB">
<feFlood flood-opacity="0" result="BackgroundImageFix"/>
<feColorMatrix in="SourceAlpha" type="matrix" values="0 0 0 0 0 0 0 0 0 0 0 0 0 0 0 0 0 0 127 0" result="hardAlpha"/>
<feOffset dy="4"/>
<feGaussianBlur stdDeviation="2"/>
<feComposite in2="hardAlpha" operator="out"/>
<feColorMatrix type="matrix" values="0 0 0 0 0 0 0 0 0 0 0 0 0 0 0 0 0 0 0.25 0"/>
<feBlend mode="normal" in2="BackgroundImageFix" result="effect1_dropShadow_70_1172"/>
<feBlend mode="normal" in="SourceGraphic" in2="effect1_dropShadow_70_1172" result="shape"/>
</filter>
</defs>
</svg>
