<svg width="59" height="34" viewBox="0 0 59 34" fill="none" xmlns="http://www.w3.org/2000/svg">
<g clip-path="url(#clip0_10_4915)">
<path d="M18.884 30.9614H20.2034V31.1958H19.2V31.9156H20.1269V32.1473H19.2V33.1275H18.884V30.9614Z" fill="#ECF0F1"/>
<path d="M20.912 32.0576C20.912 31.8741 20.9085 31.7167 20.8972 31.5721H21.1774L21.1886 31.8774H21.2034C21.2834 31.6685 21.4758 31.5366 21.6907 31.5366C21.7272 31.5366 21.7525 31.54 21.7813 31.546V31.8125C21.7483 31.8058 21.716 31.8031 21.6724 31.8031C21.447 31.8031 21.2869 31.9544 21.2434 32.166C21.2364 32.2049 21.2286 32.2497 21.2286 32.2979V33.1269H20.9127V32.0562L20.912 32.0576Z" fill="#ECF0F1"/>
<path d="M23.4201 33.1281L23.3948 32.9319H23.3836C23.2853 33.0538 23.0964 33.1636 22.8457 33.1636C22.4897 33.1636 22.3079 32.942 22.3079 32.717C22.3079 32.3407 22.6856 32.1351 23.3661 32.1385V32.1063C23.3661 31.9778 23.326 31.7461 22.9665 31.7461C22.8029 31.7461 22.6323 31.7909 22.5087 31.8619L22.4357 31.6758C22.581 31.5921 22.7917 31.5378 23.0136 31.5378C23.5514 31.5378 23.6827 31.8626 23.6827 32.1739V32.7558C23.6827 32.8911 23.6898 33.0223 23.7115 33.1288H23.4208L23.4201 33.1281ZM23.3731 32.334C23.0241 32.3273 22.6281 32.3822 22.6281 32.6842C22.6281 32.8676 22.7664 32.954 22.93 32.954C23.1589 32.954 23.3043 32.8255 23.3555 32.6935C23.3668 32.6648 23.3738 32.6326 23.3738 32.6038V32.334H23.3731Z" fill="#ECF0F1"/>
<path d="M24.5619 31.9933C24.5619 31.8326 24.5584 31.7007 24.5471 31.5721H24.8308L24.8491 31.8292H24.8561C24.9432 31.6813 25.1468 31.5366 25.4375 31.5366C25.6812 31.5366 26.0589 31.6652 26.0589 32.1988V33.1276H25.7387V32.231C25.7387 31.9806 25.6334 31.7716 25.3315 31.7716C25.1208 31.7716 24.9572 31.9036 24.9024 32.0609C24.8877 32.0964 24.8807 32.1446 24.8807 32.1928V33.1282H24.5605V31.9933H24.5619Z" fill="#ECF0F1"/>
<path d="M28.1965 33.0705C28.1129 33.1093 27.9275 33.1602 27.6909 33.1602C27.1601 33.1602 26.8146 32.8421 26.8146 32.3661C26.8146 31.89 27.1853 31.5398 27.7597 31.5398C27.9486 31.5398 28.1157 31.5813 28.2035 31.6201L28.1305 31.8384C28.0539 31.7996 27.9339 31.7648 27.7597 31.7648C27.356 31.7648 27.1383 32.0286 27.1383 32.3527C27.1383 32.7129 27.4002 32.9345 27.7492 32.9345C27.9311 32.9345 28.0511 32.893 28.1417 32.8575L28.1965 33.0698V33.0705Z" fill="#ECF0F1"/>
<path d="M28.9344 30.8462H29.2546V31.8171H29.2616C29.3129 31.7367 29.3922 31.6658 29.4906 31.6176C29.5853 31.5693 29.6977 31.5372 29.8178 31.5372C30.0544 31.5372 30.4322 31.6658 30.4322 32.2028V33.1288H30.112V32.2356C30.112 31.9845 30.0067 31.7729 29.7047 31.7729C29.4976 31.7729 29.334 31.9015 29.2757 32.0555C29.2574 32.0943 29.2539 32.1358 29.2539 32.1907V33.1295H28.9337V30.8475L28.9344 30.8462Z" fill="#ECF0F1"/>
<path d="M31.4932 32.4017C31.5002 32.7841 31.7769 32.9414 32.0964 32.9414C32.3253 32.9414 32.4636 32.9059 32.5837 32.8611L32.6385 33.0633C32.5261 33.1081 32.333 33.1597 32.0528 33.1597C31.5114 33.1597 31.1877 32.8443 31.1877 32.3756C31.1877 31.9069 31.5002 31.5366 32.0128 31.5366C32.5872 31.5366 32.7396 31.9832 32.7396 32.2691C32.7396 32.3267 32.7326 32.3723 32.7283 32.4011H31.4925L31.4932 32.4017ZM32.4313 32.1995C32.4348 32.0194 32.3478 31.7402 31.9875 31.7402C31.6638 31.7402 31.522 32.004 31.4967 32.1995H32.4313Z" fill="#ECF0F1"/>
<path d="M34.3434 32.1538V32.3627H33.4453V32.1538H34.3434Z" fill="#ECF0F1"/>
<path d="M36.8552 33.0571C36.7386 33.1087 36.5062 33.1602 36.2078 33.1602C35.5168 33.1602 34.9972 32.7746 34.9972 32.0641C34.9972 31.3537 35.5168 30.9265 36.2766 30.9265C36.582 30.9265 36.7744 30.9841 36.858 31.0229L36.7815 31.2513C36.6614 31.1997 36.4907 31.1615 36.2871 31.1615C35.7127 31.1615 35.3307 31.4863 35.3307 32.0554C35.3307 32.5857 35.6762 32.9266 36.2724 32.9266C36.4648 32.9266 36.6614 32.8911 36.7885 32.8368L36.8538 33.0585L36.8552 33.0571Z" fill="#ECF0F1"/>
<path d="M39.1562 32.3373C39.1562 32.9124 38.7054 33.1635 38.2799 33.1635C37.8038 33.1635 37.4365 32.8549 37.4365 32.3634C37.4365 31.8424 37.822 31.5371 38.3093 31.5371C38.7967 31.5371 39.1562 31.8619 39.1562 32.3373ZM37.7602 32.3533C37.7602 32.6941 37.9821 32.9513 38.2946 32.9513C38.6071 32.9513 38.829 32.6975 38.829 32.3473C38.829 32.0835 38.6801 31.7494 38.3016 31.7494C37.9231 31.7494 37.7602 32.058 37.7602 32.3533Z" fill="#ECF0F1"/>
<path d="M39.9229 31.9931C39.9229 31.8324 39.9194 31.7005 39.9082 31.5719H40.1884L40.2031 31.823H40.2144C40.3127 31.675 40.4763 31.5371 40.767 31.5371C41.0071 31.5371 41.189 31.6657 41.2648 31.8491H41.2719C41.3266 31.7621 41.3954 31.6951 41.4685 31.6469C41.5738 31.5759 41.6904 31.5378 41.8575 31.5378C42.0899 31.5378 42.4354 31.673 42.4354 32.2127V33.1287H42.1229V32.2482C42.1229 31.9496 41.9993 31.7695 41.7409 31.7695C41.559 31.7695 41.4172 31.8886 41.3631 32.0266C41.3484 32.0654 41.3379 32.1163 41.3379 32.1679V33.1287H41.0254V32.1967C41.0254 31.9489 40.9018 31.7695 40.6581 31.7695C40.458 31.7695 40.3127 31.9107 40.2621 32.052C40.2438 32.0935 40.2368 32.1417 40.2368 32.19V33.1287H39.9244V31.9938L39.9229 31.9931Z" fill="#ECF0F1"/>
<path d="M43.6888 31.1255V31.5721H44.1466V31.7877H43.6888V32.6267C43.6888 32.8195 43.7506 32.9287 43.929 32.9287C44.0125 32.9287 44.0743 32.9193 44.1143 32.9093L44.1291 33.1215C44.0673 33.1443 43.969 33.1604 43.8454 33.1604C43.6965 33.1604 43.5765 33.1188 43.4999 33.0412C43.4093 32.9575 43.3763 32.8195 43.3763 32.6361V31.7877H43.1039V31.5721H43.3763V31.1991L43.6888 31.1255Z" fill="#ECF0F1"/>
<path d="M45.0265 32.4017C45.0335 32.7841 45.3102 32.9414 45.6297 32.9414C45.8586 32.9414 45.9969 32.9059 46.117 32.8611L46.1718 33.0633C46.0587 33.1081 45.8663 33.1597 45.5862 33.1597C45.0448 33.1597 44.7211 32.8443 44.7211 32.3756C44.7211 31.9069 45.0335 31.5366 45.5461 31.5366C46.1205 31.5366 46.2729 31.9832 46.2729 32.2691C46.2729 32.3267 46.2659 32.3723 46.2617 32.4011H45.0258L45.0265 32.4017ZM45.9646 32.1995C45.9682 32.0194 45.8811 31.7402 45.5209 31.7402C45.1972 31.7402 45.0553 32.004 45.03 32.1995H45.9646Z" fill="#ECF0F1"/>
<path d="M0.959319 28.6379H57.4237C57.4546 28.6379 57.4841 28.6292 57.5093 28.6125L58.4552 27.981C58.4727 27.9697 58.4924 27.9616 58.5135 27.9576C58.6167 27.9402 59.0008 28.0527 58.7747 28.1458C58.4861 28.2656 57.7783 28.7457 57.6161 28.81C57.5978 28.8174 57.5788 28.8207 57.5599 28.8207L0.960021 28.9218C0.877865 28.9218 0.811157 28.8582 0.811157 28.7799C0.811157 28.7015 0.877865 28.6379 0.960021 28.6379H0.959319Z" fill="#ECF0F1"/>
<path d="M3.11494 19.7585C3.08967 19.3052 3.05877 18.7601 3.06369 18.3557H3.04824C2.93097 18.7367 2.78843 19.1418 2.61569 19.5897L2.0097 21.1666H1.67405L1.11933 19.6192C0.956419 19.1612 0.81879 18.7414 0.72259 18.3557H0.712057C0.701525 18.7608 0.676246 19.3058 0.646052 19.7926L0.554065 21.186H0.131348L0.370794 17.9365H0.936055L1.52168 19.508C1.66422 19.9084 1.78149 20.2647 1.86786 20.6021H1.88331C1.96968 20.274 2.09186 19.9178 2.24493 19.508L2.85584 17.9365H3.4211L3.63456 21.186H3.20202L3.11565 19.7591L3.11494 19.7585Z" fill="#ECF0F1"/>
<path d="M4.96242 20.096C4.97296 20.6699 5.35916 20.9062 5.80715 20.9062C6.12805 20.9062 6.32116 20.8533 6.48898 20.7857L6.56552 21.0897C6.40753 21.1573 6.13789 21.2343 5.74606 21.2343C4.9877 21.2343 4.53479 20.7616 4.53479 20.0579C4.53479 19.3541 4.97225 18.7997 5.69059 18.7997C6.4946 18.7997 6.70876 19.47 6.70876 19.8992C6.70876 19.9862 6.69823 20.0532 6.69332 20.0967H4.96242V20.096ZM6.27551 19.7921C6.28043 19.5222 6.15825 19.1024 5.65478 19.1024C5.20187 19.1024 5.00315 19.4974 4.96734 19.7921H6.27551ZM6.38225 17.8442L5.76151 18.5339H5.44061L5.88861 17.8442H6.38225Z" fill="#ECF0F1"/>
<path d="M8.18481 18.1816V18.8519H8.82591V19.1746H8.18481V20.4328C8.18481 20.722 8.27118 20.8861 8.52046 20.8861C8.63772 20.8861 8.72409 20.8714 8.78026 20.8573L8.80063 21.1753C8.71426 21.2088 8.57663 21.2329 8.40389 21.2329C8.19534 21.2329 8.02752 21.17 7.92008 21.0548C7.79299 20.9296 7.74735 20.722 7.74735 20.4475V19.1746H7.36536V18.8519H7.74735V18.2928L8.18481 18.1816Z" fill="#ECF0F1"/>
<path d="M10.2106 18.1963C10.2155 18.3409 10.1039 18.4568 9.92552 18.4568C9.76753 18.4568 9.65588 18.3409 9.65588 18.1963C9.65588 18.0517 9.77315 17.9312 9.93606 17.9312C10.099 17.9312 10.2106 18.047 10.2106 18.1963ZM9.71206 21.1853V18.8518H10.1601V21.1853H9.71206Z" fill="#ECF0F1"/>
<path d="M11.5342 20.0959C11.5447 20.6697 11.9309 20.9061 12.3789 20.9061C12.6998 20.9061 12.8929 20.8532 13.0608 20.7855L13.1373 21.0895C12.9793 21.1572 12.7097 21.2342 12.3178 21.2342C11.5595 21.2342 11.1066 20.7614 11.1066 20.0577C11.1066 19.354 11.544 18.7996 12.2624 18.7996C13.0664 18.7996 13.2805 19.4698 13.2805 19.899C13.2805 19.9861 13.27 20.053 13.2651 20.0965H11.5342V20.0959ZM12.8473 19.7919C12.8522 19.522 12.73 19.1022 12.2266 19.1022C11.7736 19.1022 11.5749 19.4973 11.5391 19.7919H12.8473Z" fill="#ECF0F1"/>
<path d="M14.2165 19.5798C14.2165 19.3053 14.2116 19.0689 14.1962 18.852H14.588L14.6034 19.31H14.6238C14.7354 18.9966 15.0058 18.7991 15.3056 18.7991C15.3562 18.7991 15.392 18.8038 15.4327 18.8138V19.2142C15.3871 19.2048 15.3414 19.1995 15.2803 19.1995C14.9651 19.1995 14.7411 19.4258 14.68 19.7445C14.6694 19.8021 14.6596 19.8697 14.6596 19.9421V21.1861H14.2165V19.5805V19.5798Z" fill="#ECF0F1"/>
<path d="M16.2024 20.7516C16.3344 20.8333 16.5689 20.9203 16.7929 20.9203C17.1187 20.9203 17.2711 20.7663 17.2711 20.5735C17.2711 20.3713 17.144 20.2601 16.8133 20.1443C16.3702 19.9949 16.1616 19.7633 16.1616 19.4841C16.1616 19.1078 16.4825 18.7991 17.012 18.7991C17.2613 18.7991 17.4804 18.8667 17.618 18.9437L17.5063 19.2524C17.4094 19.1948 17.2311 19.1171 17.0022 19.1171C16.7374 19.1171 16.59 19.2618 16.59 19.4352C16.59 19.628 16.7374 19.7151 17.0583 19.8302C17.486 19.9842 17.7051 20.1871 17.7051 20.534C17.7051 20.9437 17.3694 21.233 16.7838 21.233C16.5141 21.233 16.2649 21.1701 16.0914 21.0736L16.2038 20.7509L16.2024 20.7516Z" fill="#ECF0F1"/>
<path d="M22.2496 17.7625V20.5827C22.2496 20.7903 22.2545 21.026 22.27 21.1854H21.8676L21.8472 20.7803H21.8367C21.6991 21.0407 21.3992 21.2383 20.9969 21.2383C20.4014 21.2383 19.9429 20.7608 19.9429 20.0524C19.938 19.2764 20.4471 18.799 21.0474 18.799C21.4238 18.799 21.6787 18.9677 21.7904 19.1559H21.8009V17.7625H22.2489H22.2496ZM21.8016 19.802C21.8016 19.7491 21.7967 19.6768 21.7812 19.6239C21.7152 19.3541 21.4709 19.1324 21.1345 19.1324C20.6711 19.1324 20.3965 19.5181 20.3965 20.0337C20.3965 20.5064 20.6409 20.8968 21.1247 20.8968C21.4252 20.8968 21.6998 20.7086 21.7812 20.3906C21.7967 20.333 21.8016 20.2747 21.8016 20.2071V19.802Z" fill="#ECF0F1"/>
<path d="M25.4361 20.5491C25.4361 20.7902 25.441 21.0024 25.4564 21.1852H25.0597L25.0344 20.8042H25.0239C24.9066 20.9924 24.6475 21.2381 24.2094 21.2381C23.8225 21.2381 23.359 21.0359 23.359 20.2157V18.8511H23.807V20.1434C23.807 20.5866 23.9495 20.8859 24.3568 20.8859C24.6574 20.8859 24.8659 20.6884 24.9474 20.5003C24.9726 20.4373 24.9881 20.3603 24.9881 20.2833V18.8511H25.4361V20.5485V20.5491Z" fill="#ECF0F1"/>
<path d="M30.9279 19.7585C30.9027 19.3052 30.8718 18.7601 30.8767 18.3557H30.8612C30.744 18.7367 30.6014 19.1418 30.4287 19.5897L29.8227 21.1666H29.487L28.9323 19.6192C28.7694 19.1612 28.6318 18.7414 28.5356 18.3557H28.525C28.5145 18.7608 28.4892 19.3058 28.459 19.7926L28.3671 21.186H27.9443L28.1838 17.9365H28.749L29.3347 19.508C29.4772 19.9084 29.5945 20.2647 29.6808 20.6021H29.6963C29.7827 20.274 29.9048 19.9178 30.0579 19.508L30.6688 17.9365H31.2341L31.4476 21.186H31.015L30.9286 19.7591L30.9279 19.7585Z" fill="#ECF0F1"/>
<path d="M34.573 20.5491C34.573 20.7902 34.578 21.0024 34.5934 21.1852H34.1967L34.1714 20.8042H34.1609C34.0436 20.9924 33.7845 21.2381 33.3463 21.2381C32.9594 21.2381 32.496 21.0359 32.496 20.2157V18.8511H32.944V20.1434C32.944 20.5866 33.0865 20.8859 33.4938 20.8859C33.7943 20.8859 34.0029 20.6884 34.0843 20.5003C34.1096 20.4373 34.125 20.3603 34.125 20.2833V18.8511H34.573V20.5485V20.5491Z" fill="#ECF0F1"/>
<path d="M35.6979 17.7625H36.1459V21.1854H35.6979V17.7625Z" fill="#ECF0F1"/>
<path d="M37.8206 18.1816V18.8519H38.4617V19.1746H37.8206V20.4328C37.8206 20.722 37.907 20.8861 38.1563 20.8861C38.2736 20.8861 38.3599 20.8714 38.4161 20.8573L38.4365 21.1753C38.3501 21.2088 38.2125 21.2329 38.0397 21.2329C37.8312 21.2329 37.6634 21.17 37.5559 21.0548C37.4288 20.9296 37.3825 20.722 37.3825 20.4475V19.1746H37.0005V18.8519H37.3825V18.2928L37.8199 18.1816H37.8206Z" fill="#ECF0F1"/>
<path d="M39.8465 18.1963C39.8514 18.3409 39.7397 18.4568 39.5614 18.4568C39.4034 18.4568 39.2917 18.3409 39.2917 18.1963C39.2917 18.0517 39.409 17.9312 39.5719 17.9312C39.7348 17.9312 39.8472 18.047 39.8472 18.1963H39.8465ZM39.3479 21.1853V18.8518H39.7959V21.1853H39.3479Z" fill="#ECF0F1"/>
<path d="M40.9201 19.4833C40.9201 19.2423 40.9152 19.0447 40.8998 18.8519H41.2916L41.312 19.2282H41.3274C41.465 19.0066 41.694 18.799 42.1012 18.799C42.4376 18.799 42.6918 18.9919 42.7985 19.2664H42.8083C42.8849 19.1365 42.9811 19.0347 43.0836 18.9624C43.231 18.8566 43.394 18.7983 43.6285 18.7983C43.9543 18.7983 44.4381 19.0006 44.4381 19.8108V21.1847H44.0006V19.8636C44.0006 19.415 43.8279 19.1452 43.4663 19.1452C43.2121 19.1452 43.0134 19.3233 42.9368 19.5309C42.9165 19.5884 42.901 19.6661 42.901 19.7431V21.1847H42.4636V19.7866C42.4636 19.4157 42.2908 19.1452 41.9495 19.1452C41.6694 19.1452 41.4657 19.3574 41.3948 19.5697C41.3695 19.6326 41.359 19.705 41.359 19.7773V21.1854H40.9215V19.4833H40.9201Z" fill="#ECF0F1"/>
<path d="M45.7968 20.096C45.8066 20.6699 46.1935 20.9062 46.6415 20.9062C46.9624 20.9062 47.1555 20.8533 47.3233 20.7857L47.3999 21.0897C47.2419 21.1573 46.9722 21.2343 46.5804 21.2343C45.8221 21.2343 45.3691 20.7616 45.3691 20.0579C45.3691 19.3541 45.8066 18.7997 46.5249 18.7997C47.3289 18.7997 47.5431 19.47 47.5431 19.8992C47.5431 19.9862 47.5333 20.0532 47.5277 20.0967H45.7968V20.096ZM47.1099 19.7921C47.1148 19.5222 46.9926 19.1024 46.4891 19.1024C46.0362 19.1024 45.8375 19.4974 45.8017 19.7921H47.1099ZM47.2166 17.8442L46.5959 18.5339H46.275L46.723 17.8442H47.2166Z" fill="#ECF0F1"/>
<path d="M50.6075 17.7625V20.5827C50.6075 20.7903 50.6124 21.026 50.6279 21.1854H50.2255L50.2052 20.7803H50.1946C50.057 21.0407 49.7572 21.2383 49.3548 21.2383C48.7593 21.2383 48.3008 20.7608 48.3008 20.0524C48.2959 19.2764 48.805 18.799 49.4054 18.799C49.7817 18.799 50.0366 18.9677 50.1483 19.1559H50.1581V17.7625H50.6061H50.6075ZM50.1595 19.802C50.1595 19.7491 50.1546 19.6768 50.1391 19.6239C50.0731 19.3541 49.8288 19.1324 49.4924 19.1324C49.029 19.1324 48.7544 19.5181 48.7544 20.0337C48.7544 20.5064 48.9988 20.8968 49.4826 20.8968C49.7831 20.8968 50.0577 20.7086 50.1391 20.3906C50.1546 20.333 50.1595 20.2747 50.1595 20.2071V19.802Z" fill="#ECF0F1"/>
<path d="M52.2309 18.1963C52.2358 18.3409 52.1241 18.4568 51.9458 18.4568C51.7878 18.4568 51.6761 18.3409 51.6761 18.1963C51.6761 18.0517 51.7934 17.9312 51.9563 17.9312C52.1192 17.9312 52.2316 18.047 52.2316 18.1963H52.2309ZM51.7323 21.1853V18.8518H52.1803V21.1853H51.7323Z" fill="#ECF0F1"/>
<path d="M54.6689 21.1853L54.6331 20.8914H54.6176C54.48 21.0749 54.2153 21.2382 53.8642 21.2382C53.3656 21.2382 53.1107 20.9055 53.1107 20.568C53.1107 20.0042 53.6402 19.6955 54.5923 19.7002V19.652C54.5923 19.4592 54.5362 19.1116 54.0327 19.1116C53.8038 19.1116 53.5643 19.1793 53.3916 19.2851L53.2898 19.0052C53.4934 18.88 53.7883 18.7976 54.0994 18.7976C54.8528 18.7976 55.0361 19.2844 55.0361 19.7524V20.6249C55.0361 20.8271 55.0459 21.0253 55.0768 21.184H54.6696L54.6689 21.1853ZM54.6029 19.9942C54.1141 19.9848 53.5594 20.0665 53.5594 20.5198C53.5594 20.7943 53.7525 20.9249 53.9821 20.9249C54.303 20.9249 54.5067 20.732 54.5776 20.5345C54.593 20.491 54.6029 20.4428 54.6029 20.3992V19.9942Z" fill="#ECF0F1"/>
<path d="M0.457906 24.9169C0.468439 25.4908 0.854642 25.7271 1.30264 25.7271C1.62354 25.7271 1.81664 25.6742 1.98446 25.6066L2.061 25.9106C1.90301 25.9782 1.63337 26.0552 1.24155 26.0552C0.483185 26.0552 0.0302734 25.5825 0.0302734 24.8788C0.0302734 24.175 0.467737 23.6206 1.18607 23.6206C1.99008 23.6206 2.20425 24.2909 2.20425 24.7201C2.20425 24.8071 2.19371 24.8741 2.1888 24.9176H0.457906V24.9169ZM1.771 24.6129C1.77591 24.3431 1.65373 23.9233 1.15026 23.9233C0.697352 23.9233 0.498633 24.3183 0.462821 24.6129H1.771Z" fill="#ECF0F1"/>
<path d="M3.68029 23.0027V23.6729H4.32139V23.9957H3.68029V25.2538C3.68029 25.5431 3.76666 25.7071 4.01594 25.7071C4.13321 25.7071 4.21957 25.6924 4.27575 25.6783L4.29611 25.9964C4.20974 26.0299 4.07211 26.054 3.89938 26.054C3.69083 26.054 3.523 25.991 3.41557 25.8759C3.28847 25.7507 3.24283 25.5431 3.24283 25.2686V23.9957H2.86084V23.6729H3.24283V23.1138L3.68029 23.0027Z" fill="#ECF0F1"/>
<path d="M8.79574 22.5835V25.4038C8.79574 25.6114 8.80065 25.847 8.8161 26.0064H8.41375L8.39338 25.6013H8.38285C8.24522 25.8618 7.94539 26.0593 7.54303 26.0593C6.94758 26.0593 6.48905 25.5819 6.48905 24.8735C6.48413 24.0974 6.99322 23.62 7.59359 23.62C7.96996 23.62 8.22486 23.7887 8.33651 23.9769H8.34704V22.5835H8.79503H8.79574ZM8.34774 24.623C8.34774 24.5702 8.34282 24.4978 8.32738 24.4449C8.26137 24.1751 8.01701 23.9535 7.68066 23.9535C7.21722 23.9535 6.94266 24.3391 6.94266 24.8547C6.94266 25.3274 7.18702 25.7178 7.67083 25.7178C7.97137 25.7178 8.24592 25.5297 8.32738 25.2116C8.34282 25.154 8.34774 25.0958 8.34774 25.0281V24.623Z" fill="#ECF0F1"/>
<path d="M10.1698 24.9169C10.1804 25.4908 10.5666 25.7271 11.0146 25.7271C11.3355 25.7271 11.5286 25.6742 11.6964 25.6066L11.7729 25.9106C11.6149 25.9782 11.3453 26.0552 10.9535 26.0552C10.1951 26.0552 9.74219 25.5825 9.74219 24.8788C9.74219 24.175 10.1797 23.6206 10.898 23.6206C11.702 23.6206 11.9162 24.2909 11.9162 24.7201C11.9162 24.8071 11.9056 24.8741 11.9007 24.9176H10.1698V24.9169ZM11.4829 24.6129C11.4878 24.3431 11.3656 23.9233 10.8622 23.9233C10.4093 23.9233 10.2105 24.3183 10.1747 24.6129H11.4829Z" fill="#ECF0F1"/>
<path d="M14.3135 22.5835H14.7615V26.0064H14.3135V22.5835Z" fill="#ECF0F1"/>
<path d="M16.4924 22.7039C16.3751 23.109 16.1568 23.6245 16.0142 23.8468L15.7291 23.8803C15.8408 23.5957 15.9735 23.0942 16.0297 22.7474L16.4931 22.7039H16.4924Z" fill="#ECF0F1"/>
<path d="M17.8209 22.7568V26.0063H17.3778V22.7568H17.8209Z" fill="#ECF0F1"/>
<path d="M19.0118 24.3042C19.0118 24.0631 19.0069 23.8656 18.9915 23.6728H19.3882L19.4135 24.0584H19.424C19.5462 23.8368 19.8313 23.6199 20.2385 23.6199C20.5798 23.6199 21.1093 23.8127 21.1093 24.6129V26.0063H20.6613V24.6611C20.6613 24.2848 20.5138 23.9714 20.0911 23.9714C19.7955 23.9714 19.5665 24.1689 19.4907 24.4053C19.4703 24.4582 19.4598 24.5305 19.4598 24.6028V26.0056H19.0118V24.3035V24.3042Z" fill="#ECF0F1"/>
<path d="M22.7377 23.0027V23.6729H23.3788V23.9957H22.7377V25.2538C22.7377 25.5431 22.824 25.7071 23.0733 25.7071C23.1906 25.7071 23.2769 25.6924 23.3331 25.6783L23.3535 25.9964C23.2671 26.0299 23.1295 26.054 22.9567 26.054C22.7482 26.054 22.5804 25.991 22.4729 25.8759C22.3458 25.7507 22.3002 25.5431 22.3002 25.2686V23.9957H21.9182V23.6729H22.3002V23.1138L22.7377 23.0027Z" fill="#ECF0F1"/>
<path d="M24.484 24.9169C24.4946 25.4908 24.8808 25.7271 25.3288 25.7271C25.6497 25.7271 25.8428 25.6742 26.0106 25.6066L26.0871 25.9106C25.9291 25.9782 25.6595 26.0552 25.2677 26.0552C24.5093 26.0552 24.0564 25.5825 24.0564 24.8788C24.0564 24.175 24.4939 23.6206 25.2122 23.6206C26.0162 23.6206 26.2304 24.2909 26.2304 24.7201C26.2304 24.8071 26.2198 24.8741 26.2149 24.9176H24.484V24.9169ZM25.7971 24.6129C25.802 24.3431 25.6799 23.9233 25.1764 23.9233C24.7235 23.9233 24.5248 24.3183 24.4889 24.6129H25.7971Z" fill="#ECF0F1"/>
<path d="M27.1664 24.4006C27.1664 24.1261 27.1614 23.8897 27.146 23.6728H27.5378L27.5533 24.1308H27.5736C27.6853 23.8174 27.9556 23.6199 28.2555 23.6199C28.306 23.6199 28.3418 23.6246 28.3826 23.6346V24.035C28.3369 24.0256 28.2913 24.0203 28.2302 24.0203C27.9149 24.0203 27.6909 24.2466 27.6298 24.5653C27.6193 24.6229 27.6094 24.6905 27.6094 24.7629V26.0069H27.1664V24.4013V24.4006Z" fill="#ECF0F1"/>
<path d="M29.2329 24.3042C29.2329 24.0631 29.228 23.8656 29.2125 23.6728H29.6093L29.6345 24.0584H29.6451C29.7673 23.8368 30.0523 23.6199 30.4596 23.6199C30.8009 23.6199 31.3303 23.8127 31.3303 24.6129V26.0063H30.8823V24.6611C30.8823 24.2848 30.7349 23.9714 30.3121 23.9714C30.0165 23.9714 29.7876 24.1689 29.7118 24.4053C29.6914 24.4582 29.6809 24.5305 29.6809 24.6028V26.0056H29.2329V24.3035V24.3042Z" fill="#ECF0F1"/>
<path d="M32.689 24.9169C32.6995 25.4908 33.0857 25.7271 33.5337 25.7271C33.8546 25.7271 34.0477 25.6742 34.2155 25.6066L34.2921 25.9106C34.1341 25.9782 33.8644 26.0552 33.4726 26.0552C32.7143 26.0552 32.2614 25.5825 32.2614 24.8788C32.2614 24.175 32.6988 23.6206 33.4172 23.6206C34.2212 23.6206 34.4353 24.2909 34.4353 24.7201C34.4353 24.8071 34.4248 24.8741 34.4199 24.9176H32.689V24.9169ZM34.0021 24.6129C34.007 24.3431 33.8848 23.9233 33.3813 23.9233C32.9284 23.9233 32.7297 24.3183 32.6939 24.6129H34.0021Z" fill="#ECF0F1"/>
<path d="M35.9114 23.0027V23.6729H36.5525V23.9957H35.9114V25.2538C35.9114 25.5431 35.9977 25.7071 36.247 25.7071C36.3643 25.7071 36.4507 25.6924 36.5068 25.6783L36.5272 25.9964C36.4408 26.0299 36.3032 26.054 36.1305 26.054C35.9219 26.054 35.7541 25.991 35.6466 25.8759C35.5196 25.7507 35.4739 25.5431 35.4739 25.2686V23.9957H35.0919V23.6729H35.4739V23.1138L35.9114 23.0027Z" fill="#ECF0F1"/>
<path d="M48.2306 0.977978C48.9917 0.945838 49.8393 1.57926 49.8238 2.36602C49.8091 3.08984 49.0711 3.63354 48.4181 3.68644C47.6737 3.7467 46.7911 3.18961 46.7623 2.3995C46.7349 1.6402 47.5101 1.00811 48.2306 0.977309V0.977978Z" fill="#5FADE0"/>
<path d="M49.8238 5.56743V14.2452C49.8238 14.2452 49.4811 14.9784 48.2846 14.9784C47.0881 14.9784 46.8318 14.2941 46.8318 14.2941V4.91124C46.8318 4.91124 47.1899 4.05886 48.2923 4.07493C48.3232 4.07493 48.3534 4.07627 48.3829 4.07828C49.1982 4.12381 49.8238 4.78871 49.8238 5.56676V5.56743Z" fill="#ECF0F1"/>
<path d="M44.1312 8.00733V13.5508C44.1312 14.3061 43.5154 14.9496 42.7233 14.977C42.6931 14.9784 42.663 14.9784 42.6314 14.9784C42.5625 14.9777 42.4958 14.9737 42.4319 14.967C41.6785 14.8886 41.1139 14.2706 41.1139 13.5481V8.22762C41.1139 8.02607 41.0718 7.82587 40.9826 7.64307C40.7411 7.14758 40.0859 6.32399 38.4042 6.33605C36.7224 6.3481 35.9564 7.18776 35.6095 7.71873C35.4627 7.94371 35.3869 8.20351 35.3869 8.468V13.5488C35.3869 14.3222 34.7416 14.9596 33.9305 14.977C33.8933 14.9777 33.8547 14.9784 33.8154 14.9777C33.7697 14.9777 33.7255 14.9763 33.682 14.975C32.878 14.9489 32.2432 14.3141 32.2432 13.5475V8.2169C32.2432 8.03277 32.2081 7.84997 32.1336 7.6799C31.9132 7.1757 31.2657 6.32332 29.407 6.33605C27.4276 6.34877 26.8286 7.37122 26.6531 7.8801C26.6053 8.01938 26.5828 8.16535 26.5828 8.31132V12.4788C26.5828 13.2736 25.9017 13.9157 25.0682 13.9077L24.9088 13.9064C24.088 13.8976 23.4265 13.2609 23.4265 12.4775V7.73012C23.4265 7.44086 23.5178 7.15896 23.6898 6.92059C24.3351 6.03005 26.1721 3.95166 29.28 3.92488C31.3177 3.90747 32.4496 4.35073 33.0683 4.78529C33.5598 5.13013 34.2241 5.15088 34.7402 4.84087C35.4866 4.39359 36.6775 3.91483 38.3487 3.92421C41.4741 3.94162 44.0575 6.0267 44.1298 8.00733H44.1312Z" fill="#ECF0F1"/>
<path d="M21.0784 8.00733V13.5508C21.0784 14.3061 20.4626 14.9496 19.6705 14.977C19.6403 14.9784 19.6101 14.9784 19.5785 14.9784C19.5097 14.9777 19.443 14.9737 19.3791 14.967C18.6256 14.8886 18.0611 14.2706 18.0611 13.5481V8.22762C18.0611 8.02607 18.0189 7.82587 17.9298 7.64307C17.6882 7.14758 17.0331 6.32399 15.3513 6.33605C13.7103 6.3481 12.9035 7.18776 12.5566 7.71873C12.4099 7.94371 12.334 8.20351 12.334 8.468V13.5488C12.334 14.3222 11.6887 14.9596 10.8777 14.977C10.8405 14.9777 10.8019 14.9784 10.7625 14.9777C10.7169 14.9777 10.6726 14.9763 10.6291 14.975C9.82511 14.9489 9.19033 14.3141 9.19033 13.5475V8.2169C9.19033 8.03277 9.15522 7.84997 9.08079 7.6799C8.8603 7.1757 8.21288 6.32332 6.35419 6.33605C4.37472 6.34877 3.77576 7.37122 3.60021 7.8801C3.55246 8.01938 3.52999 8.16535 3.52999 8.31132V12.4788C3.52999 13.2736 2.84887 13.9157 2.01537 13.9077L1.85598 13.9064C1.03512 13.8976 0.373657 13.2609 0.373657 12.4775V7.73012C0.373657 7.44086 0.413682 7.34444 0.636978 6.92059C1.14677 5.95371 3.11921 3.95166 6.2271 3.92488C8.26485 3.90747 9.39677 4.35073 10.0154 4.78529C10.5069 5.13013 11.1712 5.15088 11.6873 4.84087C12.4337 4.39359 13.6246 3.91483 15.2959 3.92421C18.4213 3.94162 21.0046 6.0267 21.077 8.00733H21.0784Z" fill="#ECF0F1"/>
<path d="M24.9418 11.3605C25.7268 11.3284 26.6004 11.9612 26.5835 12.7479C26.5688 13.4717 25.8076 14.0148 25.1349 14.0677C24.3681 14.1279 23.4581 13.5715 23.4286 12.7814C23.4005 12.0221 24.1996 11.3907 24.9418 11.3599V11.3605Z" fill="#E84B3C"/>
<path d="M1.89177 11.3598C2.67541 11.3277 3.54683 11.9611 3.53068 12.7479C3.51593 13.4717 2.75617 14.0154 2.08488 14.0683C1.31949 14.1285 0.410858 13.5714 0.382069 12.7813C0.353981 12.022 1.15167 11.3899 1.89248 11.3591L1.89177 11.3598Z" fill="#F49C13"/>
<path d="M0.879992 30.0446C0.99164 30.0399 1.11593 30.1303 1.11382 30.2428C1.11171 30.3459 1.00358 30.4236 0.907377 30.431C0.797836 30.4397 0.668633 30.36 0.66442 30.2475C0.660207 30.139 0.773962 30.0486 0.879992 30.0446Z" fill="#F49C13"/>
<path d="M44.9549 30.6359C45.1284 30.5737 45.2618 30.875 45.5441 30.8689C45.7948 30.8636 45.9078 30.6212 46.0497 30.6801C46.1423 30.7189 46.1845 30.8602 46.162 30.9647C46.115 31.1897 45.7575 31.3135 45.4865 31.3075C45.1993 31.3008 44.8342 31.1428 44.811 30.9098C44.8005 30.8073 44.8545 30.6714 44.9549 30.6359Z" fill="#E84B3C"/>
<path d="M0.658081 30.9927H1.12082L1.07167 33.128H0.658081V30.9927Z" fill="#ECF0F1"/>
<path d="M1.92969 31.2177H2.45984V32.2944C2.45984 32.6265 2.65154 32.7919 3.03634 32.7919C3.20697 32.7919 3.34249 32.7477 3.4415 32.6587C3.54121 32.5696 3.59106 32.4484 3.59106 32.2937V31.217H4.1156V32.3587C4.1156 32.5977 4.01308 32.7946 3.80804 32.9493C3.603 33.1033 3.34038 33.1809 3.02159 33.1809C2.7028 33.1809 2.43316 33.1039 2.23233 32.9493C2.0308 32.7946 1.93039 32.5937 1.93039 32.3446V31.217L1.92969 31.2177Z" fill="#ECF0F1"/>
<path d="M8.04224 30.802L9.98519 32.5275V30.8931H10.344V33.2687L8.40105 31.5506V33.163H8.04224V30.802Z" fill="#ECF0F1"/>
<path d="M11.068 32.4224C11.068 32.2215 11.16 32.0434 11.3433 31.8867C11.5265 31.7307 11.7379 31.6523 11.9752 31.6523C12.2126 31.6523 12.4337 31.7293 12.617 31.8833C12.7996 32.0374 12.8916 32.2168 12.8916 32.4224C12.8916 32.6279 12.8017 32.8114 12.6226 32.9687C12.4436 33.1261 12.2357 33.2051 12.0005 33.2051C11.7491 33.2051 11.5307 33.1274 11.3454 32.9714C11.1607 32.8161 11.068 32.6326 11.068 32.4224ZM12.5447 32.423C12.5447 32.2978 12.4899 32.1893 12.3797 32.0969C12.2694 32.0045 12.1388 31.9583 11.9879 31.9583C11.8369 31.9583 11.6986 32.0052 11.5869 32.0983C11.4753 32.1914 11.4191 32.3032 11.4191 32.4331C11.4191 32.563 11.476 32.6654 11.589 32.7578C11.7021 32.8502 11.8355 32.8971 11.9879 32.8971C12.1402 32.8971 12.2666 32.8496 12.3776 32.7545C12.4892 32.6594 12.5447 32.5489 12.5447 32.4224V32.423Z" fill="#ECF0F1"/>
<path d="M13.9918 31.6931V31.9958C14.0719 31.8746 14.1498 31.7869 14.2257 31.7326C14.3022 31.6784 14.4012 31.6516 14.5241 31.6516C14.5585 31.6516 14.6077 31.659 14.6723 31.673L14.5627 31.9831C14.4939 31.971 14.4483 31.965 14.4265 31.965C14.3057 31.965 14.2039 32.0011 14.1224 32.0748C14.0403 32.1478 13.9996 32.2388 13.9996 32.348V33.1622H13.6407V31.6918H13.9911L13.9918 31.6931Z" fill="#ECF0F1"/>
<path d="M16.7431 30.8501H17.0977V33.1628H16.7473V32.8562C16.578 33.0878 16.3561 33.2037 16.0823 33.2037C15.8604 33.2037 15.6708 33.1273 15.5121 32.974C15.3534 32.8207 15.2748 32.6365 15.2748 32.4216C15.2748 32.2067 15.3555 32.0306 15.5163 31.8792C15.6771 31.7279 15.8695 31.6523 16.0928 31.6523C16.2262 31.6523 16.3512 31.6844 16.4664 31.7487C16.5823 31.813 16.6742 31.8967 16.7431 31.9998V30.8501ZM16.7845 32.4256C16.7845 32.2937 16.729 32.1792 16.6174 32.0828C16.5057 31.9857 16.373 31.9375 16.2185 31.9375C16.064 31.9375 15.9236 31.985 15.8127 32.0795C15.7017 32.1739 15.6462 32.2897 15.6462 32.4263C15.6462 32.5629 15.7024 32.6714 15.8155 32.7691C15.9285 32.8669 16.0598 32.9164 16.2101 32.9164C16.3702 32.9164 16.5057 32.8689 16.6174 32.7738C16.729 32.6787 16.7845 32.5629 16.7845 32.4263V32.4256Z" fill="#ECF0F1"/>
<path d="M5.49682 30.1243V30.7945H6.13792V31.1173H5.49682V32.3754C5.49682 32.6647 5.58319 32.8287 5.83247 32.8287C5.94973 32.8287 6.0361 32.814 6.09228 32.7999L6.11264 33.118C6.02627 33.1515 5.88864 33.1756 5.7159 33.1756C5.50735 33.1756 5.33953 33.1126 5.2321 32.9974C5.105 32.8722 5.05936 32.6647 5.05936 32.3901V31.1173H4.67737V30.7945H5.05936V30.2354L5.49682 30.1243Z" fill="#ECF0F1"/>
<path d="M6.09157 32.7953C6.19057 32.7913 6.30082 32.869 6.29871 32.9654C6.2966 33.0544 6.20041 33.1207 6.11544 33.1274C6.01854 33.1348 5.90338 33.0665 5.89987 32.9694C5.89636 32.8763 5.99747 32.7987 6.09086 32.7953H6.09157Z" fill="#5FADE0"/>
<path d="M3.84172 30.978C3.97233 30.972 4.11768 31.0838 4.11488 31.2224C4.11207 31.3496 3.98567 31.4454 3.87403 31.4548C3.74623 31.4655 3.59526 31.367 3.59034 31.2284C3.58543 31.0945 3.71884 30.9834 3.84243 30.978H3.84172Z" fill="#E84B3C"/>
</g>
<defs>
<clipPath id="clip0_10_4915">
<rect width="59" height="34" fill="white"/>
</clipPath>
</defs>
</svg>
