<svg width="322" height="62" viewBox="0 0 322 62" fill="none" xmlns="http://www.w3.org/2000/svg">
<g filter="url(#filter0_d_23_62462)">
<rect width="314" height="54" transform="translate(4)" fill="#262728"/>
<path d="M33.5333 28.3333H18.6667C18.2889 28.3333 17.972 28.2053 17.716 27.9493C17.46 27.6933 17.3324 27.3768 17.3333 27C17.3333 26.6222 17.4613 26.3053 17.7173 26.0493C17.9733 25.7933 18.2898 25.6657 18.6667 25.6666H33.5333L29.7333 21.8666C29.4667 21.6 29.3387 21.2888 29.3493 20.9333C29.36 20.5777 29.488 20.2666 29.7333 20C30 19.7333 30.3169 19.5942 30.684 19.5826C31.0511 19.5711 31.3675 19.6991 31.6333 19.9666L37.7333 26.0666C37.8667 26.2 37.9613 26.3444 38.0173 26.5C38.0733 26.6555 38.1009 26.8222 38.1 27C38.1 27.1777 38.072 27.3444 38.016 27.5C37.96 27.6555 37.8658 27.8 37.7333 27.9333L31.6333 34.0333C31.3667 34.3 31.0502 34.428 30.684 34.4173C30.3178 34.4066 30.0009 34.2675 29.7333 34C29.4889 33.7333 29.3609 33.4222 29.3493 33.0666C29.3378 32.7111 29.4658 32.4 29.7333 32.1333L33.5333 28.3333Z" fill="#ECF0F1"/>
<path d="M60.9658 31.5L59.2498 29.04C59.1778 29.048 59.0698 29.052 58.9258 29.052H57.0298V31.5H55.4698V23.1H58.9258C59.6538 23.1 60.2858 23.22 60.8218 23.46C61.3658 23.7 61.7818 24.044 62.0698 24.492C62.3578 24.94 62.5018 25.472 62.5018 26.088C62.5018 26.72 62.3458 27.264 62.0338 27.72C61.7298 28.176 61.2898 28.516 60.7138 28.74L62.6458 31.5H60.9658ZM60.9298 26.088C60.9298 25.552 60.7538 25.14 60.4018 24.852C60.0498 24.564 59.5338 24.42 58.8538 24.42H57.0298V27.768H58.8538C59.5338 27.768 60.0498 27.624 60.4018 27.336C60.7538 27.04 60.9298 26.624 60.9298 26.088ZM73.1991 30.696C72.8231 30.992 72.3391 31.22 71.7471 31.38C71.1551 31.54 70.5151 31.62 69.8271 31.62C69.0191 31.62 68.3311 31.516 67.7631 31.308C67.2031 31.1 66.7791 30.812 66.4911 30.444C66.2031 30.076 66.0591 29.652 66.0591 29.172C66.0591 28.708 66.1871 28.304 66.4431 27.96C66.6991 27.616 67.0431 27.364 67.4751 27.204C67.1471 27.028 66.8871 26.784 66.6951 26.472C66.5111 26.152 66.4191 25.796 66.4191 25.404C66.4191 24.956 66.5511 24.552 66.8151 24.192C67.0871 23.824 67.4911 23.532 68.0271 23.316C68.5631 23.092 69.2231 22.98 70.0071 22.98C70.5351 22.98 71.0511 23.036 71.5551 23.148C72.0591 23.26 72.4991 23.412 72.8751 23.604L72.4311 24.84C71.7271 24.472 70.9391 24.288 70.0671 24.288C69.3791 24.288 68.8591 24.4 68.5071 24.624C68.1631 24.84 67.9911 25.132 67.9911 25.5C67.9911 25.86 68.1191 26.136 68.3751 26.328C68.6311 26.512 69.0071 26.604 69.5031 26.604H71.7231V27.9H69.4191C68.8511 27.9 68.4111 28 68.0991 28.2C67.7871 28.392 67.6311 28.68 67.6311 29.064C67.6311 29.448 67.8191 29.752 68.1951 29.976C68.5711 30.2 69.1391 30.312 69.8991 30.312C70.4271 30.312 70.9391 30.24 71.4351 30.096C71.9391 29.952 72.3591 29.752 72.6951 29.496L73.1991 30.696ZM79.5144 31.62C78.8664 31.62 78.2384 31.528 77.6304 31.344C77.0304 31.16 76.5544 30.916 76.2024 30.612L76.7424 29.4C77.0864 29.672 77.5064 29.896 78.0024 30.072C78.5064 30.24 79.0104 30.324 79.5144 30.324C80.1384 30.324 80.6024 30.224 80.9064 30.024C81.2184 29.824 81.3744 29.56 81.3744 29.232C81.3744 28.992 81.2864 28.796 81.1104 28.644C80.9424 28.484 80.7264 28.36 80.4624 28.272C80.1984 28.184 79.8384 28.084 79.3824 27.972C78.7424 27.82 78.2224 27.668 77.8224 27.516C77.4304 27.364 77.0904 27.128 76.8024 26.808C76.5224 26.48 76.3824 26.04 76.3824 25.488C76.3824 25.024 76.5064 24.604 76.7544 24.228C77.0104 23.844 77.3904 23.54 77.8944 23.316C78.4064 23.092 79.0304 22.98 79.7664 22.98C80.2784 22.98 80.7824 23.044 81.2784 23.172C81.7744 23.3 82.2024 23.484 82.5624 23.724L82.0704 24.936C81.7024 24.72 81.3184 24.556 80.9184 24.444C80.5184 24.332 80.1304 24.276 79.7544 24.276C79.1384 24.276 78.6784 24.38 78.3744 24.588C78.0784 24.796 77.9304 25.072 77.9304 25.416C77.9304 25.656 78.0144 25.852 78.1824 26.004C78.3584 26.156 78.5784 26.276 78.8424 26.364C79.1064 26.452 79.4664 26.552 79.9224 26.664C80.5464 26.808 81.0584 26.96 81.4584 27.12C81.8584 27.272 82.1984 27.508 82.4784 27.828C82.7664 28.148 82.9104 28.58 82.9104 29.124C82.9104 29.588 82.7824 30.008 82.5264 30.384C82.2784 30.76 81.8984 31.06 81.3864 31.284C80.8744 31.508 80.2504 31.62 79.5144 31.62ZM93.4093 30.696C93.0333 30.992 92.5493 31.22 91.9573 31.38C91.3653 31.54 90.7253 31.62 90.0373 31.62C89.2293 31.62 88.5413 31.516 87.9733 31.308C87.4133 31.1 86.9893 30.812 86.7013 30.444C86.4133 30.076 86.2693 29.652 86.2693 29.172C86.2693 28.708 86.3973 28.304 86.6533 27.96C86.9093 27.616 87.2533 27.364 87.6853 27.204C87.3573 27.028 87.0973 26.784 86.9053 26.472C86.7213 26.152 86.6293 25.796 86.6293 25.404C86.6293 24.956 86.7613 24.552 87.0253 24.192C87.2973 23.824 87.7013 23.532 88.2373 23.316C88.7733 23.092 89.4333 22.98 90.2173 22.98C90.7453 22.98 91.2613 23.036 91.7653 23.148C92.2693 23.26 92.7093 23.412 93.0853 23.604L92.6413 24.84C91.9373 24.472 91.1493 24.288 90.2773 24.288C89.5893 24.288 89.0693 24.4 88.7173 24.624C88.3733 24.84 88.2013 25.132 88.2013 25.5C88.2013 25.86 88.3293 26.136 88.5853 26.328C88.8413 26.512 89.2173 26.604 89.7133 26.604H91.9333V27.9H89.6293C89.0613 27.9 88.6213 28 88.3093 28.2C87.9973 28.392 87.8413 28.68 87.8413 29.064C87.8413 29.448 88.0293 29.752 88.4053 29.976C88.7813 30.2 89.3493 30.312 90.1093 30.312C90.6373 30.312 91.1493 30.24 91.6453 30.096C92.1493 29.952 92.5693 29.752 92.9053 29.496L93.4093 30.696ZM102.617 31.5L100.901 29.04C100.829 29.048 100.721 29.052 100.577 29.052H98.6806V31.5H97.1206V23.1H100.577C101.305 23.1 101.937 23.22 102.473 23.46C103.017 23.7 103.433 24.044 103.721 24.492C104.009 24.94 104.153 25.472 104.153 26.088C104.153 26.72 103.997 27.264 103.685 27.72C103.381 28.176 102.941 28.516 102.365 28.74L104.297 31.5H102.617ZM102.581 26.088C102.581 25.552 102.405 25.14 102.053 24.852C101.701 24.564 101.185 24.42 100.505 24.42H98.6806V27.768H100.505C101.185 27.768 101.701 27.624 102.053 27.336C102.405 27.04 102.581 26.624 102.581 26.088ZM115.978 23.1L112.318 31.5H110.782L107.11 23.1H108.802L111.598 29.58L114.418 23.1H115.978ZM125.723 30.696C125.347 30.992 124.863 31.22 124.271 31.38C123.679 31.54 123.039 31.62 122.351 31.62C121.543 31.62 120.855 31.516 120.287 31.308C119.727 31.1 119.303 30.812 119.015 30.444C118.727 30.076 118.583 29.652 118.583 29.172C118.583 28.708 118.711 28.304 118.967 27.96C119.223 27.616 119.567 27.364 119.999 27.204C119.671 27.028 119.411 26.784 119.219 26.472C119.035 26.152 118.943 25.796 118.943 25.404C118.943 24.956 119.075 24.552 119.339 24.192C119.611 23.824 120.015 23.532 120.551 23.316C121.087 23.092 121.747 22.98 122.531 22.98C123.059 22.98 123.575 23.036 124.079 23.148C124.583 23.26 125.023 23.412 125.399 23.604L124.955 24.84C124.251 24.472 123.463 24.288 122.591 24.288C121.903 24.288 121.383 24.4 121.031 24.624C120.687 24.84 120.515 25.132 120.515 25.5C120.515 25.86 120.643 26.136 120.899 26.328C121.155 26.512 121.531 26.604 122.027 26.604H124.247V27.9H121.943C121.375 27.9 120.935 28 120.623 28.2C120.311 28.392 120.155 28.68 120.155 29.064C120.155 29.448 120.343 29.752 120.719 29.976C121.095 30.2 121.663 30.312 122.423 30.312C122.951 30.312 123.463 30.24 123.959 30.096C124.463 29.952 124.883 29.752 125.219 29.496L125.723 30.696ZM142.398 23.1V28.932C142.398 30.172 142.058 31.124 141.378 31.788C140.706 32.452 139.774 32.784 138.582 32.784C137.878 32.784 137.238 32.68 136.662 32.472C136.086 32.272 135.598 31.984 135.198 31.608L135.834 30.408C136.578 31.08 137.486 31.416 138.558 31.416C140.078 31.416 140.838 30.612 140.838 29.004V28.368C140.27 29.088 139.446 29.448 138.366 29.448C137.302 29.448 136.478 29.144 135.894 28.536C135.31 27.928 135.018 27.056 135.018 25.92V23.1H136.578V25.848C136.578 26.584 136.754 27.144 137.106 27.528C137.466 27.904 137.966 28.092 138.606 28.092C139.286 28.092 139.826 27.892 140.226 27.492C140.634 27.084 140.838 26.484 140.838 25.692V23.1H142.398ZM150.908 31.62C150.052 31.62 149.28 31.436 148.592 31.068C147.904 30.692 147.364 30.176 146.972 29.52C146.58 28.856 146.384 28.116 146.384 27.3C146.384 26.484 146.58 25.748 146.972 25.092C147.364 24.428 147.904 23.912 148.592 23.544C149.28 23.168 150.052 22.98 150.908 22.98C151.764 22.98 152.536 23.168 153.224 23.544C153.912 23.912 154.452 24.424 154.844 25.08C155.236 25.736 155.432 26.476 155.432 27.3C155.432 28.124 155.236 28.864 154.844 29.52C154.452 30.176 153.912 30.692 153.224 31.068C152.536 31.436 151.764 31.62 150.908 31.62ZM150.908 30.252C151.468 30.252 151.972 30.128 152.42 29.88C152.868 29.624 153.22 29.272 153.476 28.824C153.732 28.368 153.86 27.86 153.86 27.3C153.86 26.74 153.732 26.236 153.476 25.788C153.22 25.332 152.868 24.98 152.42 24.732C151.972 24.476 151.468 24.348 150.908 24.348C150.348 24.348 149.844 24.476 149.396 24.732C148.948 24.98 148.596 25.332 148.34 25.788C148.084 26.236 147.956 26.74 147.956 27.3C147.956 27.86 148.084 28.368 148.34 28.824C148.596 29.272 148.948 29.624 149.396 29.88C149.844 30.128 150.348 30.252 150.908 30.252ZM166.745 23.1V31.5H165.245V30.432C164.677 31.224 163.797 31.62 162.605 31.62C161.613 31.62 160.833 31.312 160.265 30.696C159.697 30.072 159.413 29.192 159.413 28.056V23.1H160.973V27.996C160.973 28.74 161.149 29.304 161.501 29.688C161.861 30.064 162.353 30.252 162.977 30.252C163.649 30.252 164.185 30.052 164.585 29.652C164.985 29.244 165.185 28.64 165.185 27.84V23.1H166.745ZM176.897 31.5L175.181 29.04C175.109 29.048 175.001 29.052 174.857 29.052H172.961V31.5H171.401V23.1H174.857C175.585 23.1 176.217 23.22 176.753 23.46C177.297 23.7 177.713 24.044 178.001 24.492C178.289 24.94 178.433 25.472 178.433 26.088C178.433 26.72 178.277 27.264 177.965 27.72C177.661 28.176 177.221 28.516 176.645 28.74L178.577 31.5H176.897ZM176.861 26.088C176.861 25.552 176.685 25.14 176.333 24.852C175.981 24.564 175.465 24.42 174.785 24.42H172.961V27.768H174.785C175.465 27.768 175.981 27.624 176.333 27.336C176.685 27.04 176.861 26.624 176.861 26.088ZM194.127 25.188C193.335 24.74 192.511 24.468 191.655 24.372V31.5H190.095V24.372C189.231 24.468 188.403 24.74 187.611 25.188L187.071 23.988C187.631 23.652 188.231 23.4 188.871 23.232C189.519 23.064 190.183 22.98 190.863 22.98C191.543 22.98 192.207 23.064 192.855 23.232C193.503 23.4 194.107 23.652 194.667 23.988L194.127 25.188ZM200.561 24.408V30.192H202.109V31.5H197.465V30.192H199.013V24.408H197.465V23.1H202.109V24.408H200.561ZM209.955 31.62C209.107 31.62 208.339 31.436 207.651 31.068C206.971 30.692 206.435 30.176 206.043 29.52C205.659 28.864 205.467 28.124 205.467 27.3C205.467 26.476 205.663 25.736 206.055 25.08C206.447 24.424 206.983 23.912 207.663 23.544C208.351 23.168 209.119 22.98 209.967 22.98C210.655 22.98 211.283 23.1 211.851 23.34C212.419 23.58 212.899 23.928 213.291 24.384L212.283 25.332C211.675 24.676 210.927 24.348 210.039 24.348C209.463 24.348 208.947 24.476 208.491 24.732C208.035 24.98 207.679 25.328 207.423 25.776C207.167 26.224 207.039 26.732 207.039 27.3C207.039 27.868 207.167 28.376 207.423 28.824C207.679 29.272 208.035 29.624 208.491 29.88C208.947 30.128 209.463 30.252 210.039 30.252C210.927 30.252 211.675 29.92 212.283 29.256L213.291 30.216C212.899 30.672 212.415 31.02 211.839 31.26C211.271 31.5 210.643 31.62 209.955 31.62ZM220.078 27.984L218.746 29.352V31.5H217.186V23.1H218.746V27.408L222.898 23.1H224.65L221.122 26.856L224.866 31.5H223.042L220.078 27.984ZM234.763 30.696C234.387 30.992 233.903 31.22 233.311 31.38C232.719 31.54 232.079 31.62 231.391 31.62C230.583 31.62 229.895 31.516 229.327 31.308C228.767 31.1 228.343 30.812 228.055 30.444C227.767 30.076 227.623 29.652 227.623 29.172C227.623 28.708 227.751 28.304 228.007 27.96C228.263 27.616 228.607 27.364 229.039 27.204C228.711 27.028 228.451 26.784 228.259 26.472C228.075 26.152 227.983 25.796 227.983 25.404C227.983 24.956 228.115 24.552 228.379 24.192C228.651 23.824 229.055 23.532 229.591 23.316C230.127 23.092 230.787 22.98 231.571 22.98C232.099 22.98 232.615 23.036 233.119 23.148C233.623 23.26 234.063 23.412 234.439 23.604L233.995 24.84C233.291 24.472 232.503 24.288 231.631 24.288C230.943 24.288 230.423 24.4 230.071 24.624C229.727 24.84 229.555 25.132 229.555 25.5C229.555 25.86 229.683 26.136 229.939 26.328C230.195 26.512 230.571 26.604 231.067 26.604H233.287V27.9H230.983C230.415 27.9 229.975 28 229.663 28.2C229.351 28.392 229.195 28.68 229.195 29.064C229.195 29.448 229.383 29.752 229.759 29.976C230.135 30.2 230.703 30.312 231.463 30.312C231.991 30.312 232.503 30.24 232.999 30.096C233.503 29.952 233.923 29.752 234.259 29.496L234.763 30.696ZM244.248 25.188C243.456 24.74 242.632 24.468 241.776 24.372V31.5H240.216V24.372C239.352 24.468 238.524 24.74 237.732 25.188L237.192 23.988C237.752 23.652 238.352 23.4 238.992 23.232C239.64 23.064 240.304 22.98 240.984 22.98C241.664 22.98 242.328 23.064 242.976 23.232C243.624 23.4 244.228 23.652 244.788 23.988L244.248 25.188ZM250.826 31.62C250.178 31.62 249.55 31.528 248.942 31.344C248.342 31.16 247.866 30.916 247.514 30.612L248.054 29.4C248.398 29.672 248.818 29.896 249.314 30.072C249.818 30.24 250.322 30.324 250.826 30.324C251.45 30.324 251.914 30.224 252.218 30.024C252.53 29.824 252.686 29.56 252.686 29.232C252.686 28.992 252.598 28.796 252.422 28.644C252.254 28.484 252.038 28.36 251.774 28.272C251.51 28.184 251.15 28.084 250.694 27.972C250.054 27.82 249.534 27.668 249.134 27.516C248.742 27.364 248.402 27.128 248.114 26.808C247.834 26.48 247.694 26.04 247.694 25.488C247.694 25.024 247.818 24.604 248.066 24.228C248.322 23.844 248.702 23.54 249.206 23.316C249.718 23.092 250.342 22.98 251.078 22.98C251.59 22.98 252.094 23.044 252.59 23.172C253.086 23.3 253.514 23.484 253.874 23.724L253.382 24.936C253.014 24.72 252.63 24.556 252.23 24.444C251.83 24.332 251.442 24.276 251.066 24.276C250.45 24.276 249.99 24.38 249.686 24.588C249.39 24.796 249.242 25.072 249.242 25.416C249.242 25.656 249.326 25.852 249.494 26.004C249.67 26.156 249.89 26.276 250.154 26.364C250.418 26.452 250.778 26.552 251.234 26.664C251.858 26.808 252.37 26.96 252.77 27.12C253.17 27.272 253.51 27.508 253.79 27.828C254.078 28.148 254.222 28.58 254.222 29.124C254.222 29.588 254.094 30.008 253.838 30.384C253.59 30.76 253.21 31.06 252.698 31.284C252.186 31.508 251.562 31.62 250.826 31.62ZM268.061 22.98C269.069 22.98 269.853 23.288 270.413 23.904C270.981 24.52 271.265 25.4 271.265 26.544V31.5H269.705V26.604C269.705 25.86 269.525 25.3 269.165 24.924C268.813 24.54 268.321 24.348 267.689 24.348C267.001 24.348 266.453 24.552 266.045 24.96C265.645 25.36 265.445 25.96 265.445 26.76V31.5H263.885V23.1H265.397V24.156C265.981 23.372 266.869 22.98 268.061 22.98ZM279.772 31.62C278.916 31.62 278.144 31.436 277.456 31.068C276.768 30.692 276.228 30.176 275.836 29.52C275.444 28.856 275.248 28.116 275.248 27.3C275.248 26.484 275.444 25.748 275.836 25.092C276.228 24.428 276.768 23.912 277.456 23.544C278.144 23.168 278.916 22.98 279.772 22.98C280.628 22.98 281.4 23.168 282.088 23.544C282.776 23.912 283.316 24.424 283.708 25.08C284.1 25.736 284.296 26.476 284.296 27.3C284.296 28.124 284.1 28.864 283.708 29.52C283.316 30.176 282.776 30.692 282.088 31.068C281.4 31.436 280.628 31.62 279.772 31.62ZM279.772 30.252C280.332 30.252 280.836 30.128 281.284 29.88C281.732 29.624 282.084 29.272 282.34 28.824C282.596 28.368 282.724 27.86 282.724 27.3C282.724 26.74 282.596 26.236 282.34 25.788C282.084 25.332 281.732 24.98 281.284 24.732C280.836 24.476 280.332 24.348 279.772 24.348C279.212 24.348 278.708 24.476 278.26 24.732C277.812 24.98 277.46 25.332 277.204 25.788C276.948 26.236 276.82 26.74 276.82 27.3C276.82 27.86 276.948 28.368 277.204 28.824C277.46 29.272 277.812 29.624 278.26 29.88C278.708 30.128 279.212 30.252 279.772 30.252ZM300.445 23.1V28.104C300.445 29.256 300.149 30.132 299.557 30.732C298.973 31.324 298.133 31.62 297.037 31.62C296.445 31.62 295.917 31.528 295.453 31.344C294.997 31.152 294.633 30.892 294.361 30.564C294.081 30.892 293.713 31.152 293.257 31.344C292.809 31.528 292.289 31.62 291.697 31.62C290.601 31.62 289.757 31.32 289.165 30.72C288.573 30.12 288.277 29.248 288.277 28.104V23.1H289.837V28.056C289.837 28.816 289.993 29.372 290.305 29.724C290.625 30.076 291.089 30.252 291.697 30.252C292.953 30.252 293.581 29.52 293.581 28.056V23.1H295.141V28.056C295.141 29.52 295.773 30.252 297.037 30.252C298.277 30.252 298.897 29.52 298.897 28.056V23.1H300.445ZM304.71 23.1H306.486L306.186 28.716H304.998L304.71 23.1ZM305.598 31.584C305.318 31.584 305.086 31.496 304.902 31.32C304.718 31.136 304.626 30.912 304.626 30.648C304.626 30.384 304.718 30.164 304.902 29.988C305.086 29.812 305.318 29.724 305.598 29.724C305.87 29.724 306.094 29.812 306.27 29.988C306.454 30.164 306.546 30.384 306.546 30.648C306.546 30.912 306.454 31.136 306.27 31.32C306.094 31.496 305.87 31.584 305.598 31.584Z" fill="#ECF0F1"/>
</g>
<defs>
<filter id="filter0_d_23_62462" x="0" y="0" width="322" height="62" filterUnits="userSpaceOnUse" color-interpolation-filters="sRGB">
<feFlood flood-opacity="0" result="BackgroundImageFix"/>
<feColorMatrix in="SourceAlpha" type="matrix" values="0 0 0 0 0 0 0 0 0 0 0 0 0 0 0 0 0 0 127 0" result="hardAlpha"/>
<feOffset dy="4"/>
<feGaussianBlur stdDeviation="2"/>
<feComposite in2="hardAlpha" operator="out"/>
<feColorMatrix type="matrix" values="0 0 0 0 0 0 0 0 0 0 0 0 0 0 0 0 0 0 0.25 0"/>
<feBlend mode="normal" in2="BackgroundImageFix" result="effect1_dropShadow_23_62462"/>
<feBlend mode="normal" in="SourceGraphic" in2="effect1_dropShadow_23_62462" result="shape"/>
</filter>
</defs>
</svg>
