<svg width="273" height="62" viewBox="0 0 273 62" fill="none" xmlns="http://www.w3.org/2000/svg">
<g filter="url(#filter0_d_23_62462)">
<rect width="265" height="54" transform="translate(4)" fill="#262728"/>
<path d="M33.5333 28.3333H18.6667C18.2889 28.3333 17.972 28.2053 17.716 27.9493C17.46 27.6933 17.3324 27.3768 17.3333 27C17.3333 26.6222 17.4613 26.3053 17.7173 26.0493C17.9733 25.7933 18.2898 25.6657 18.6667 25.6666H33.5333L29.7333 21.8666C29.4667 21.6 29.3387 21.2888 29.3493 20.9333C29.36 20.5777 29.488 20.2666 29.7333 20C30 19.7333 30.3169 19.5942 30.684 19.5826C31.0511 19.5711 31.3675 19.6991 31.6333 19.9666L37.7333 26.0666C37.8667 26.2 37.9613 26.3444 38.0173 26.5C38.0733 26.6555 38.1009 26.8222 38.1 27C38.1 27.1777 38.072 27.3444 38.016 27.5C37.96 27.6555 37.8658 27.8 37.7333 27.9333L31.6333 34.0333C31.3667 34.3 31.0502 34.428 30.684 34.4173C30.3178 34.4066 30.0009 34.2675 29.7333 34C29.4889 33.7333 29.3609 33.4222 29.3493 33.0666C29.3378 32.7111 29.4658 32.4 29.7333 32.1333L33.5333 28.3333Z" fill="#ECF0F1"/>
<path d="M60.6896 31.5L58.9736 29.04C58.9016 29.048 58.7936 29.052 58.6496 29.052H56.7536V31.5H55.1936V23.1H58.6496C59.3776 23.1 60.0096 23.22 60.5456 23.46C61.0896 23.7 61.5056 24.044 61.7936 24.492C62.0816 24.94 62.2256 25.472 62.2256 26.088C62.2256 26.72 62.0696 27.264 61.7576 27.72C61.4536 28.176 61.0136 28.516 60.4376 28.74L62.3696 31.5H60.6896ZM60.6536 26.088C60.6536 25.552 60.4776 25.14 60.1256 24.852C59.7736 24.564 59.2576 24.42 58.5776 24.42H56.7536V27.768H58.5776C59.2576 27.768 59.7736 27.624 60.1256 27.336C60.4776 27.04 60.6536 26.624 60.6536 26.088ZM72.923 30.696C72.547 30.992 72.063 31.22 71.471 31.38C70.879 31.54 70.239 31.62 69.551 31.62C68.743 31.62 68.055 31.516 67.487 31.308C66.927 31.1 66.503 30.812 66.215 30.444C65.927 30.076 65.783 29.652 65.783 29.172C65.783 28.708 65.911 28.304 66.167 27.96C66.423 27.616 66.767 27.364 67.199 27.204C66.871 27.028 66.611 26.784 66.419 26.472C66.235 26.152 66.143 25.796 66.143 25.404C66.143 24.956 66.275 24.552 66.539 24.192C66.811 23.824 67.215 23.532 67.751 23.316C68.287 23.092 68.947 22.98 69.731 22.98C70.259 22.98 70.775 23.036 71.279 23.148C71.783 23.26 72.223 23.412 72.599 23.604L72.155 24.84C71.451 24.472 70.663 24.288 69.791 24.288C69.103 24.288 68.583 24.4 68.231 24.624C67.887 24.84 67.715 25.132 67.715 25.5C67.715 25.86 67.843 26.136 68.099 26.328C68.355 26.512 68.731 26.604 69.227 26.604H71.447V27.9H69.143C68.575 27.9 68.135 28 67.823 28.2C67.511 28.392 67.355 28.68 67.355 29.064C67.355 29.448 67.543 29.752 67.919 29.976C68.295 30.2 68.863 30.312 69.623 30.312C70.151 30.312 70.663 30.24 71.159 30.096C71.663 29.952 72.083 29.752 72.419 29.496L72.923 30.696ZM70.127 20.772H71.891L69.803 22.416H68.507L70.127 20.772ZM79.2382 31.62C78.5902 31.62 77.9622 31.528 77.3542 31.344C76.7542 31.16 76.2782 30.916 75.9262 30.612L76.4662 29.4C76.8102 29.672 77.2302 29.896 77.7262 30.072C78.2302 30.24 78.7342 30.324 79.2382 30.324C79.8622 30.324 80.3262 30.224 80.6302 30.024C80.9422 29.824 81.0982 29.56 81.0982 29.232C81.0982 28.992 81.0102 28.796 80.8342 28.644C80.6662 28.484 80.4502 28.36 80.1862 28.272C79.9222 28.184 79.5622 28.084 79.1062 27.972C78.4662 27.82 77.9462 27.668 77.5462 27.516C77.1542 27.364 76.8142 27.128 76.5262 26.808C76.2462 26.48 76.1062 26.04 76.1062 25.488C76.1062 25.024 76.2302 24.604 76.4782 24.228C76.7342 23.844 77.1142 23.54 77.6182 23.316C78.1302 23.092 78.7542 22.98 79.4902 22.98C80.0022 22.98 80.5062 23.044 81.0022 23.172C81.4982 23.3 81.9262 23.484 82.2862 23.724L81.7942 24.936C81.4262 24.72 81.0422 24.556 80.6422 24.444C80.2422 24.332 79.8542 24.276 79.4782 24.276C78.8622 24.276 78.4022 24.38 78.0982 24.588C77.8022 24.796 77.6542 25.072 77.6542 25.416C77.6542 25.656 77.7382 25.852 77.9062 26.004C78.0822 26.156 78.3022 26.276 78.5662 26.364C78.8302 26.452 79.1902 26.552 79.6462 26.664C80.2702 26.808 80.7822 26.96 81.1822 27.12C81.5822 27.272 81.9222 27.508 82.2022 27.828C82.4902 28.148 82.6342 28.58 82.6342 29.124C82.6342 29.588 82.5062 30.008 82.2502 30.384C82.0022 30.76 81.6222 31.06 81.1102 31.284C80.5982 31.508 79.9742 31.62 79.2382 31.62ZM93.1331 30.696C92.7571 30.992 92.2731 31.22 91.6811 31.38C91.0891 31.54 90.4491 31.62 89.7611 31.62C88.9531 31.62 88.2651 31.516 87.6971 31.308C87.1371 31.1 86.7131 30.812 86.4251 30.444C86.1371 30.076 85.9931 29.652 85.9931 29.172C85.9931 28.708 86.1211 28.304 86.3771 27.96C86.6331 27.616 86.9771 27.364 87.4091 27.204C87.0811 27.028 86.8211 26.784 86.6291 26.472C86.4451 26.152 86.3531 25.796 86.3531 25.404C86.3531 24.956 86.4851 24.552 86.7491 24.192C87.0211 23.824 87.4251 23.532 87.9611 23.316C88.4971 23.092 89.1571 22.98 89.9411 22.98C90.4691 22.98 90.9851 23.036 91.4891 23.148C91.9931 23.26 92.4331 23.412 92.8091 23.604L92.3651 24.84C91.6611 24.472 90.8731 24.288 90.0011 24.288C89.3131 24.288 88.7931 24.4 88.4411 24.624C88.0971 24.84 87.9251 25.132 87.9251 25.5C87.9251 25.86 88.0531 26.136 88.3091 26.328C88.5651 26.512 88.9411 26.604 89.4371 26.604H91.6571V27.9H89.3531C88.7851 27.9 88.3451 28 88.0331 28.2C87.7211 28.392 87.5651 28.68 87.5651 29.064C87.5651 29.448 87.7531 29.752 88.1291 29.976C88.5051 30.2 89.0731 30.312 89.8331 30.312C90.3611 30.312 90.8731 30.24 91.3691 30.096C91.8731 29.952 92.2931 29.752 92.6291 29.496L93.1331 30.696ZM102.34 31.5L100.624 29.04C100.552 29.048 100.444 29.052 100.3 29.052H98.4044V31.5H96.8444V23.1H100.3C101.028 23.1 101.66 23.22 102.196 23.46C102.74 23.7 103.156 24.044 103.444 24.492C103.732 24.94 103.876 25.472 103.876 26.088C103.876 26.72 103.72 27.264 103.408 27.72C103.104 28.176 102.664 28.516 102.088 28.74L104.02 31.5H102.34ZM102.304 26.088C102.304 25.552 102.128 25.14 101.776 24.852C101.424 24.564 100.908 24.42 100.228 24.42H98.4044V27.768H100.228C100.908 27.768 101.424 27.624 101.776 27.336C102.128 27.04 102.304 26.624 102.304 26.088ZM115.702 23.1L112.042 31.5H110.506L106.834 23.1H108.526L111.322 29.58L114.142 23.1H115.702ZM125.446 30.696C125.07 30.992 124.586 31.22 123.994 31.38C123.402 31.54 122.762 31.62 122.074 31.62C121.266 31.62 120.578 31.516 120.01 31.308C119.45 31.1 119.026 30.812 118.738 30.444C118.45 30.076 118.306 29.652 118.306 29.172C118.306 28.708 118.434 28.304 118.69 27.96C118.946 27.616 119.29 27.364 119.722 27.204C119.394 27.028 119.134 26.784 118.942 26.472C118.758 26.152 118.666 25.796 118.666 25.404C118.666 24.956 118.798 24.552 119.062 24.192C119.334 23.824 119.738 23.532 120.274 23.316C120.81 23.092 121.47 22.98 122.254 22.98C122.782 22.98 123.298 23.036 123.802 23.148C124.306 23.26 124.746 23.412 125.122 23.604L124.678 24.84C123.974 24.472 123.186 24.288 122.314 24.288C121.626 24.288 121.106 24.4 120.754 24.624C120.41 24.84 120.238 25.132 120.238 25.5C120.238 25.86 120.366 26.136 120.622 26.328C120.878 26.512 121.254 26.604 121.75 26.604H123.97V27.9H121.666C121.098 27.9 120.658 28 120.346 28.2C120.034 28.392 119.878 28.68 119.878 29.064C119.878 29.448 120.066 29.752 120.442 29.976C120.818 30.2 121.386 30.312 122.146 30.312C122.674 30.312 123.186 30.24 123.682 30.096C124.186 29.952 124.606 29.752 124.942 29.496L125.446 30.696ZM135.746 30.192V31.5H128.582V30.552L130.766 27.84H129.278V26.604H131.762L133.538 24.408H128.642V23.1H135.566V24.036L133.478 26.628H134.87V27.864H132.482L130.61 30.192H135.746ZM153.028 23.1L149.368 31.5H147.832L144.16 23.1H145.852L148.648 29.58L151.468 23.1H153.028ZM160.145 31.62C159.289 31.62 158.517 31.436 157.829 31.068C157.141 30.692 156.601 30.176 156.209 29.52C155.817 28.856 155.621 28.116 155.621 27.3C155.621 26.484 155.817 25.748 156.209 25.092C156.601 24.428 157.141 23.912 157.829 23.544C158.517 23.168 159.289 22.98 160.145 22.98C161.001 22.98 161.773 23.168 162.461 23.544C163.149 23.912 163.689 24.424 164.081 25.08C164.473 25.736 164.669 26.476 164.669 27.3C164.669 28.124 164.473 28.864 164.081 29.52C163.689 30.176 163.149 30.692 162.461 31.068C161.773 31.436 161.001 31.62 160.145 31.62ZM160.145 30.252C160.705 30.252 161.209 30.128 161.657 29.88C162.105 29.624 162.457 29.272 162.713 28.824C162.969 28.368 163.097 27.86 163.097 27.3C163.097 26.74 162.969 26.236 162.713 25.788C162.457 25.332 162.105 24.98 161.657 24.732C161.209 24.476 160.705 24.348 160.145 24.348C159.585 24.348 159.081 24.476 158.633 24.732C158.185 24.98 157.833 25.332 157.577 25.788C157.321 26.236 157.193 26.74 157.193 27.3C157.193 27.86 157.321 28.368 157.577 28.824C157.833 29.272 158.185 29.624 158.633 29.88C159.081 30.128 159.585 30.252 160.145 30.252ZM171.327 31.62C170.679 31.62 170.051 31.528 169.443 31.344C168.843 31.16 168.367 30.916 168.015 30.612L168.555 29.4C168.899 29.672 169.319 29.896 169.815 30.072C170.319 30.24 170.823 30.324 171.327 30.324C171.951 30.324 172.415 30.224 172.719 30.024C173.031 29.824 173.187 29.56 173.187 29.232C173.187 28.992 173.099 28.796 172.923 28.644C172.755 28.484 172.539 28.36 172.275 28.272C172.011 28.184 171.651 28.084 171.195 27.972C170.555 27.82 170.035 27.668 169.635 27.516C169.243 27.364 168.903 27.128 168.615 26.808C168.335 26.48 168.195 26.04 168.195 25.488C168.195 25.024 168.319 24.604 168.567 24.228C168.823 23.844 169.203 23.54 169.707 23.316C170.219 23.092 170.843 22.98 171.579 22.98C172.091 22.98 172.595 23.044 173.091 23.172C173.587 23.3 174.015 23.484 174.375 23.724L173.883 24.936C173.515 24.72 173.131 24.556 172.731 24.444C172.331 24.332 171.943 24.276 171.567 24.276C170.951 24.276 170.491 24.38 170.187 24.588C169.891 24.796 169.743 25.072 169.743 25.416C169.743 25.656 169.827 25.852 169.995 26.004C170.171 26.156 170.391 26.276 170.655 26.364C170.919 26.452 171.279 26.552 171.735 26.664C172.359 26.808 172.871 26.96 173.271 27.12C173.671 27.272 174.011 27.508 174.291 27.828C174.579 28.148 174.723 28.58 174.723 29.124C174.723 29.588 174.595 30.008 174.339 30.384C174.091 30.76 173.711 31.06 173.199 31.284C172.687 31.508 172.063 31.62 171.327 31.62ZM190.338 27.132C190.802 27.284 191.17 27.54 191.442 27.9C191.714 28.252 191.85 28.692 191.85 29.22C191.85 29.948 191.57 30.512 191.01 30.912C190.45 31.304 189.634 31.5 188.562 31.5H184.386V23.1H188.322C189.314 23.1 190.078 23.296 190.614 23.688C191.15 24.072 191.418 24.604 191.418 25.284C191.418 25.7 191.322 26.068 191.13 26.388C190.938 26.708 190.674 26.956 190.338 27.132ZM185.946 24.324V26.64H188.154C188.698 26.64 189.114 26.544 189.402 26.352C189.698 26.152 189.846 25.864 189.846 25.488C189.846 25.104 189.698 24.816 189.402 24.624C189.114 24.424 188.698 24.324 188.154 24.324H185.946ZM188.466 30.276C189.674 30.276 190.278 29.872 190.278 29.064C190.278 28.256 189.674 27.852 188.466 27.852H185.946V30.276H188.466ZM198.375 24.408V30.192H199.923V31.5H195.279V30.192H196.827V24.408H195.279V23.1H199.923V24.408H198.375ZM203.94 23.1H205.5V30.18H209.892V31.5H203.94V23.1ZM213.523 23.1H215.083V30.18H219.475V31.5H213.523V23.1ZM229.6 30.696C229.224 30.992 228.74 31.22 228.148 31.38C227.556 31.54 226.916 31.62 226.228 31.62C225.42 31.62 224.732 31.516 224.164 31.308C223.604 31.1 223.18 30.812 222.892 30.444C222.604 30.076 222.46 29.652 222.46 29.172C222.46 28.708 222.588 28.304 222.844 27.96C223.1 27.616 223.444 27.364 223.876 27.204C223.548 27.028 223.288 26.784 223.096 26.472C222.912 26.152 222.82 25.796 222.82 25.404C222.82 24.956 222.952 24.552 223.216 24.192C223.488 23.824 223.892 23.532 224.428 23.316C224.964 23.092 225.624 22.98 226.408 22.98C226.936 22.98 227.452 23.036 227.956 23.148C228.46 23.26 228.9 23.412 229.276 23.604L228.832 24.84C228.128 24.472 227.34 24.288 226.468 24.288C225.78 24.288 225.26 24.4 224.908 24.624C224.564 24.84 224.392 25.132 224.392 25.5C224.392 25.86 224.52 26.136 224.776 26.328C225.032 26.512 225.408 26.604 225.904 26.604H228.124V27.9H225.82C225.252 27.9 224.812 28 224.5 28.2C224.188 28.392 224.032 28.68 224.032 29.064C224.032 29.448 224.22 29.752 224.596 29.976C224.972 30.2 225.54 30.312 226.3 30.312C226.828 30.312 227.34 30.24 227.836 30.096C228.34 29.952 228.76 29.752 229.096 29.496L229.6 30.696ZM239.085 25.188C238.293 24.74 237.469 24.468 236.613 24.372V31.5H235.053V24.372C234.189 24.468 233.361 24.74 232.569 25.188L232.029 23.988C232.589 23.652 233.189 23.4 233.829 23.232C234.477 23.064 235.141 22.98 235.821 22.98C236.501 22.98 237.165 23.064 237.813 23.232C238.461 23.4 239.065 23.652 239.625 23.988L239.085 25.188ZM245.663 31.62C245.015 31.62 244.387 31.528 243.779 31.344C243.179 31.16 242.703 30.916 242.351 30.612L242.891 29.4C243.235 29.672 243.655 29.896 244.151 30.072C244.655 30.24 245.159 30.324 245.663 30.324C246.287 30.324 246.751 30.224 247.055 30.024C247.367 29.824 247.523 29.56 247.523 29.232C247.523 28.992 247.435 28.796 247.259 28.644C247.091 28.484 246.875 28.36 246.611 28.272C246.347 28.184 245.987 28.084 245.531 27.972C244.891 27.82 244.371 27.668 243.971 27.516C243.579 27.364 243.239 27.128 242.951 26.808C242.671 26.48 242.531 26.04 242.531 25.488C242.531 25.024 242.655 24.604 242.903 24.228C243.159 23.844 243.539 23.54 244.043 23.316C244.555 23.092 245.179 22.98 245.915 22.98C246.427 22.98 246.931 23.044 247.427 23.172C247.923 23.3 248.351 23.484 248.711 23.724L248.219 24.936C247.851 24.72 247.467 24.556 247.067 24.444C246.667 24.332 246.279 24.276 245.903 24.276C245.287 24.276 244.827 24.38 244.523 24.588C244.227 24.796 244.079 25.072 244.079 25.416C244.079 25.656 244.163 25.852 244.331 26.004C244.507 26.156 244.727 26.276 244.991 26.364C245.255 26.452 245.615 26.552 246.071 26.664C246.695 26.808 247.207 26.96 247.607 27.12C248.007 27.272 248.347 27.508 248.627 27.828C248.915 28.148 249.059 28.58 249.059 29.124C249.059 29.588 248.931 30.008 248.675 30.384C248.427 30.76 248.047 31.06 247.535 31.284C247.023 31.508 246.399 31.62 245.663 31.62ZM258.387 23.1H260.163L259.863 28.716H258.675L258.387 23.1ZM259.275 31.584C258.995 31.584 258.763 31.496 258.579 31.32C258.395 31.136 258.303 30.912 258.303 30.648C258.303 30.384 258.395 30.164 258.579 29.988C258.763 29.812 258.995 29.724 259.275 29.724C259.547 29.724 259.771 29.812 259.947 29.988C260.131 30.164 260.223 30.384 260.223 30.648C260.223 30.912 260.131 31.136 259.947 31.32C259.771 31.496 259.547 31.584 259.275 31.584Z" fill="#ECF0F1"/>
</g>
<defs>
<filter id="filter0_d_23_62462" x="0" y="0" width="273" height="62" filterUnits="userSpaceOnUse" color-interpolation-filters="sRGB">
<feFlood flood-opacity="0" result="BackgroundImageFix"/>
<feColorMatrix in="SourceAlpha" type="matrix" values="0 0 0 0 0 0 0 0 0 0 0 0 0 0 0 0 0 0 127 0" result="hardAlpha"/>
<feOffset dy="4"/>
<feGaussianBlur stdDeviation="2"/>
<feComposite in2="hardAlpha" operator="out"/>
<feColorMatrix type="matrix" values="0 0 0 0 0 0 0 0 0 0 0 0 0 0 0 0 0 0 0.25 0"/>
<feBlend mode="normal" in2="BackgroundImageFix" result="effect1_dropShadow_23_62462"/>
<feBlend mode="normal" in="SourceGraphic" in2="effect1_dropShadow_23_62462" result="shape"/>
</filter>
</defs>
</svg>
