<svg width="276" height="62" viewBox="0 0 276 62" fill="none" xmlns="http://www.w3.org/2000/svg">
<g filter="url(#filter0_d_23_62462)">
<rect width="268" height="54" transform="translate(4)" fill="#262728"/>
<path d="M33.5333 28.3333H18.6667C18.2889 28.3333 17.972 28.2053 17.716 27.9493C17.46 27.6933 17.3324 27.3768 17.3333 27C17.3333 26.6222 17.4613 26.3053 17.7173 26.0493C17.9733 25.7933 18.2898 25.6657 18.6667 25.6666H33.5333L29.7333 21.8666C29.4667 21.6 29.3387 21.2888 29.3493 20.9333C29.36 20.5777 29.488 20.2666 29.7333 20C30 19.7333 30.3169 19.5942 30.684 19.5826C31.0511 19.5711 31.3675 19.6991 31.6333 19.9666L37.7333 26.0666C37.8667 26.2 37.9613 26.3444 38.0173 26.5C38.0733 26.6555 38.1009 26.8222 38.1 27C38.1 27.1777 38.072 27.3444 38.016 27.5C37.96 27.6555 37.8658 27.8 37.7333 27.9333L31.6333 34.0333C31.3667 34.3 31.0502 34.428 30.684 34.4173C30.3178 34.4066 30.0009 34.2675 29.7333 34C29.4889 33.7333 29.3609 33.4222 29.3493 33.0666C29.3378 32.7111 29.4658 32.4 29.7333 32.1333L33.5333 28.3333Z" fill="#ECF0F1"/>
<path d="M60.9896 31.5L59.2736 29.04C59.2016 29.048 59.0936 29.052 58.9496 29.052H57.0536V31.5H55.4936V23.1H58.9496C59.6776 23.1 60.3096 23.22 60.8456 23.46C61.3896 23.7 61.8056 24.044 62.0936 24.492C62.3816 24.94 62.5256 25.472 62.5256 26.088C62.5256 26.72 62.3696 27.264 62.0576 27.72C61.7536 28.176 61.3136 28.516 60.7376 28.74L62.6696 31.5H60.9896ZM60.9536 26.088C60.9536 25.552 60.7776 25.14 60.4256 24.852C60.0736 24.564 59.5576 24.42 58.8776 24.42H57.0536V27.768H58.8776C59.5576 27.768 60.0736 27.624 60.4256 27.336C60.7776 27.04 60.9536 26.624 60.9536 26.088ZM73.223 30.696C72.847 30.992 72.363 31.22 71.771 31.38C71.179 31.54 70.539 31.62 69.851 31.62C69.043 31.62 68.355 31.516 67.787 31.308C67.227 31.1 66.803 30.812 66.515 30.444C66.227 30.076 66.083 29.652 66.083 29.172C66.083 28.708 66.211 28.304 66.467 27.96C66.723 27.616 67.067 27.364 67.499 27.204C67.171 27.028 66.911 26.784 66.719 26.472C66.535 26.152 66.443 25.796 66.443 25.404C66.443 24.956 66.575 24.552 66.839 24.192C67.111 23.824 67.515 23.532 68.051 23.316C68.587 23.092 69.247 22.98 70.031 22.98C70.559 22.98 71.075 23.036 71.579 23.148C72.083 23.26 72.523 23.412 72.899 23.604L72.455 24.84C71.751 24.472 70.963 24.288 70.091 24.288C69.403 24.288 68.883 24.4 68.531 24.624C68.187 24.84 68.015 25.132 68.015 25.5C68.015 25.86 68.143 26.136 68.399 26.328C68.655 26.512 69.031 26.604 69.527 26.604H71.747V27.9H69.443C68.875 27.9 68.435 28 68.123 28.2C67.811 28.392 67.655 28.68 67.655 29.064C67.655 29.448 67.843 29.752 68.219 29.976C68.595 30.2 69.163 30.312 69.923 30.312C70.451 30.312 70.963 30.24 71.459 30.096C71.963 29.952 72.383 29.752 72.719 29.496L73.223 30.696ZM70.427 20.772H72.191L70.103 22.416H68.807L70.427 20.772ZM79.5382 31.62C78.8902 31.62 78.2622 31.528 77.6542 31.344C77.0542 31.16 76.5782 30.916 76.2262 30.612L76.7662 29.4C77.1102 29.672 77.5302 29.896 78.0262 30.072C78.5302 30.24 79.0342 30.324 79.5382 30.324C80.1622 30.324 80.6262 30.224 80.9302 30.024C81.2422 29.824 81.3982 29.56 81.3982 29.232C81.3982 28.992 81.3102 28.796 81.1342 28.644C80.9662 28.484 80.7502 28.36 80.4862 28.272C80.2222 28.184 79.8622 28.084 79.4062 27.972C78.7662 27.82 78.2462 27.668 77.8462 27.516C77.4542 27.364 77.1142 27.128 76.8262 26.808C76.5462 26.48 76.4062 26.04 76.4062 25.488C76.4062 25.024 76.5302 24.604 76.7782 24.228C77.0342 23.844 77.4142 23.54 77.9182 23.316C78.4302 23.092 79.0542 22.98 79.7902 22.98C80.3022 22.98 80.8062 23.044 81.3022 23.172C81.7982 23.3 82.2262 23.484 82.5862 23.724L82.0942 24.936C81.7262 24.72 81.3422 24.556 80.9422 24.444C80.5422 24.332 80.1542 24.276 79.7782 24.276C79.1622 24.276 78.7022 24.38 78.3982 24.588C78.1022 24.796 77.9542 25.072 77.9542 25.416C77.9542 25.656 78.0382 25.852 78.2062 26.004C78.3822 26.156 78.6022 26.276 78.8662 26.364C79.1302 26.452 79.4902 26.552 79.9462 26.664C80.5702 26.808 81.0822 26.96 81.4822 27.12C81.8822 27.272 82.2222 27.508 82.5022 27.828C82.7902 28.148 82.9342 28.58 82.9342 29.124C82.9342 29.588 82.8062 30.008 82.5502 30.384C82.3022 30.76 81.9222 31.06 81.4102 31.284C80.8982 31.508 80.2742 31.62 79.5382 31.62ZM93.4331 30.696C93.0571 30.992 92.5731 31.22 91.9811 31.38C91.3891 31.54 90.7491 31.62 90.0611 31.62C89.2531 31.62 88.5651 31.516 87.9971 31.308C87.4371 31.1 87.0131 30.812 86.7251 30.444C86.4371 30.076 86.2931 29.652 86.2931 29.172C86.2931 28.708 86.4211 28.304 86.6771 27.96C86.9331 27.616 87.2771 27.364 87.7091 27.204C87.3811 27.028 87.1211 26.784 86.9291 26.472C86.7451 26.152 86.6531 25.796 86.6531 25.404C86.6531 24.956 86.7851 24.552 87.0491 24.192C87.3211 23.824 87.7251 23.532 88.2611 23.316C88.7971 23.092 89.4571 22.98 90.2411 22.98C90.7691 22.98 91.2851 23.036 91.7891 23.148C92.2931 23.26 92.7331 23.412 93.1091 23.604L92.6651 24.84C91.9611 24.472 91.1731 24.288 90.3011 24.288C89.6131 24.288 89.0931 24.4 88.7411 24.624C88.3971 24.84 88.2251 25.132 88.2251 25.5C88.2251 25.86 88.3531 26.136 88.6091 26.328C88.8651 26.512 89.2411 26.604 89.7371 26.604H91.9571V27.9H89.6531C89.0851 27.9 88.6451 28 88.3331 28.2C88.0211 28.392 87.8651 28.68 87.8651 29.064C87.8651 29.448 88.0531 29.752 88.4291 29.976C88.8051 30.2 89.3731 30.312 90.1331 30.312C90.6611 30.312 91.1731 30.24 91.6691 30.096C92.1731 29.952 92.5931 29.752 92.9291 29.496L93.4331 30.696ZM102.64 31.5L100.924 29.04C100.852 29.048 100.744 29.052 100.6 29.052H98.7044V31.5H97.1444V23.1H100.6C101.328 23.1 101.96 23.22 102.496 23.46C103.04 23.7 103.456 24.044 103.744 24.492C104.032 24.94 104.176 25.472 104.176 26.088C104.176 26.72 104.02 27.264 103.708 27.72C103.404 28.176 102.964 28.516 102.388 28.74L104.32 31.5H102.64ZM102.604 26.088C102.604 25.552 102.428 25.14 102.076 24.852C101.724 24.564 101.208 24.42 100.528 24.42H98.7044V27.768H100.528C101.208 27.768 101.724 27.624 102.076 27.336C102.428 27.04 102.604 26.624 102.604 26.088ZM116.002 23.1L112.342 31.5H110.806L107.134 23.1H108.826L111.622 29.58L114.442 23.1H116.002ZM125.746 30.696C125.37 30.992 124.886 31.22 124.294 31.38C123.702 31.54 123.062 31.62 122.374 31.62C121.566 31.62 120.878 31.516 120.31 31.308C119.75 31.1 119.326 30.812 119.038 30.444C118.75 30.076 118.606 29.652 118.606 29.172C118.606 28.708 118.734 28.304 118.99 27.96C119.246 27.616 119.59 27.364 120.022 27.204C119.694 27.028 119.434 26.784 119.242 26.472C119.058 26.152 118.966 25.796 118.966 25.404C118.966 24.956 119.098 24.552 119.362 24.192C119.634 23.824 120.038 23.532 120.574 23.316C121.11 23.092 121.77 22.98 122.554 22.98C123.082 22.98 123.598 23.036 124.102 23.148C124.606 23.26 125.046 23.412 125.422 23.604L124.978 24.84C124.274 24.472 123.486 24.288 122.614 24.288C121.926 24.288 121.406 24.4 121.054 24.624C120.71 24.84 120.538 25.132 120.538 25.5C120.538 25.86 120.666 26.136 120.922 26.328C121.178 26.512 121.554 26.604 122.05 26.604H124.27V27.9H121.966C121.398 27.9 120.958 28 120.646 28.2C120.334 28.392 120.178 28.68 120.178 29.064C120.178 29.448 120.366 29.752 120.742 29.976C121.118 30.2 121.686 30.312 122.446 30.312C122.974 30.312 123.486 30.24 123.982 30.096C124.486 29.952 124.906 29.752 125.242 29.496L125.746 30.696ZM136.046 30.192V31.5H128.882V30.552L131.066 27.84H129.578V26.604H132.062L133.838 24.408H128.942V23.1H135.866V24.036L133.778 26.628H135.17V27.864H132.782L130.91 30.192H136.046ZM153.328 23.1L149.668 31.5H148.132L144.46 23.1H146.152L148.948 29.58L151.768 23.1H153.328ZM160.445 31.62C159.589 31.62 158.817 31.436 158.129 31.068C157.441 30.692 156.901 30.176 156.509 29.52C156.117 28.856 155.921 28.116 155.921 27.3C155.921 26.484 156.117 25.748 156.509 25.092C156.901 24.428 157.441 23.912 158.129 23.544C158.817 23.168 159.589 22.98 160.445 22.98C161.301 22.98 162.073 23.168 162.761 23.544C163.449 23.912 163.989 24.424 164.381 25.08C164.773 25.736 164.969 26.476 164.969 27.3C164.969 28.124 164.773 28.864 164.381 29.52C163.989 30.176 163.449 30.692 162.761 31.068C162.073 31.436 161.301 31.62 160.445 31.62ZM160.445 30.252C161.005 30.252 161.509 30.128 161.957 29.88C162.405 29.624 162.757 29.272 163.013 28.824C163.269 28.368 163.397 27.86 163.397 27.3C163.397 26.74 163.269 26.236 163.013 25.788C162.757 25.332 162.405 24.98 161.957 24.732C161.509 24.476 161.005 24.348 160.445 24.348C159.885 24.348 159.381 24.476 158.933 24.732C158.485 24.98 158.133 25.332 157.877 25.788C157.621 26.236 157.493 26.74 157.493 27.3C157.493 27.86 157.621 28.368 157.877 28.824C158.133 29.272 158.485 29.624 158.933 29.88C159.381 30.128 159.885 30.252 160.445 30.252ZM171.627 31.62C170.979 31.62 170.351 31.528 169.743 31.344C169.143 31.16 168.667 30.916 168.315 30.612L168.855 29.4C169.199 29.672 169.619 29.896 170.115 30.072C170.619 30.24 171.123 30.324 171.627 30.324C172.251 30.324 172.715 30.224 173.019 30.024C173.331 29.824 173.487 29.56 173.487 29.232C173.487 28.992 173.399 28.796 173.223 28.644C173.055 28.484 172.839 28.36 172.575 28.272C172.311 28.184 171.951 28.084 171.495 27.972C170.855 27.82 170.335 27.668 169.935 27.516C169.543 27.364 169.203 27.128 168.915 26.808C168.635 26.48 168.495 26.04 168.495 25.488C168.495 25.024 168.619 24.604 168.867 24.228C169.123 23.844 169.503 23.54 170.007 23.316C170.519 23.092 171.143 22.98 171.879 22.98C172.391 22.98 172.895 23.044 173.391 23.172C173.887 23.3 174.315 23.484 174.675 23.724L174.183 24.936C173.815 24.72 173.431 24.556 173.031 24.444C172.631 24.332 172.243 24.276 171.867 24.276C171.251 24.276 170.791 24.38 170.487 24.588C170.191 24.796 170.043 25.072 170.043 25.416C170.043 25.656 170.127 25.852 170.295 26.004C170.471 26.156 170.691 26.276 170.955 26.364C171.219 26.452 171.579 26.552 172.035 26.664C172.659 26.808 173.171 26.96 173.571 27.12C173.971 27.272 174.311 27.508 174.591 27.828C174.879 28.148 175.023 28.58 175.023 29.124C175.023 29.588 174.895 30.008 174.639 30.384C174.391 30.76 174.011 31.06 173.499 31.284C172.987 31.508 172.363 31.62 171.627 31.62ZM190.638 27.132C191.102 27.284 191.47 27.54 191.742 27.9C192.014 28.252 192.15 28.692 192.15 29.22C192.15 29.948 191.87 30.512 191.31 30.912C190.75 31.304 189.934 31.5 188.862 31.5H184.686V23.1H188.622C189.614 23.1 190.378 23.296 190.914 23.688C191.45 24.072 191.718 24.604 191.718 25.284C191.718 25.7 191.622 26.068 191.43 26.388C191.238 26.708 190.974 26.956 190.638 27.132ZM186.246 24.324V26.64H188.454C188.998 26.64 189.414 26.544 189.702 26.352C189.998 26.152 190.146 25.864 190.146 25.488C190.146 25.104 189.998 24.816 189.702 24.624C189.414 24.424 188.998 24.324 188.454 24.324H186.246ZM188.766 30.276C189.974 30.276 190.578 29.872 190.578 29.064C190.578 28.256 189.974 27.852 188.766 27.852H186.246V30.276H188.766ZM198.675 24.408V30.192H200.223V31.5H195.579V30.192H197.127V24.408H195.579V23.1H200.223V24.408H198.675ZM204.24 23.1H205.8V30.18H210.192V31.5H204.24V23.1ZM213.823 23.1H215.383V30.18H219.775V31.5H213.823V23.1ZM229.9 30.696C229.524 30.992 229.04 31.22 228.448 31.38C227.856 31.54 227.216 31.62 226.528 31.62C225.72 31.62 225.032 31.516 224.464 31.308C223.904 31.1 223.48 30.812 223.192 30.444C222.904 30.076 222.76 29.652 222.76 29.172C222.76 28.708 222.888 28.304 223.144 27.96C223.4 27.616 223.744 27.364 224.176 27.204C223.848 27.028 223.588 26.784 223.396 26.472C223.212 26.152 223.12 25.796 223.12 25.404C223.12 24.956 223.252 24.552 223.516 24.192C223.788 23.824 224.192 23.532 224.728 23.316C225.264 23.092 225.924 22.98 226.708 22.98C227.236 22.98 227.752 23.036 228.256 23.148C228.76 23.26 229.2 23.412 229.576 23.604L229.132 24.84C228.428 24.472 227.64 24.288 226.768 24.288C226.08 24.288 225.56 24.4 225.208 24.624C224.864 24.84 224.692 25.132 224.692 25.5C224.692 25.86 224.82 26.136 225.076 26.328C225.332 26.512 225.708 26.604 226.204 26.604H228.424V27.9H226.12C225.552 27.9 225.112 28 224.8 28.2C224.488 28.392 224.332 28.68 224.332 29.064C224.332 29.448 224.52 29.752 224.896 29.976C225.272 30.2 225.84 30.312 226.6 30.312C227.128 30.312 227.64 30.24 228.136 30.096C228.64 29.952 229.06 29.752 229.396 29.496L229.9 30.696ZM239.385 25.188C238.593 24.74 237.769 24.468 236.913 24.372V31.5H235.353V24.372C234.489 24.468 233.661 24.74 232.869 25.188L232.329 23.988C232.889 23.652 233.489 23.4 234.129 23.232C234.777 23.064 235.441 22.98 236.121 22.98C236.801 22.98 237.465 23.064 238.113 23.232C238.761 23.4 239.365 23.652 239.925 23.988L239.385 25.188ZM245.963 31.62C245.315 31.62 244.687 31.528 244.079 31.344C243.479 31.16 243.003 30.916 242.651 30.612L243.191 29.4C243.535 29.672 243.955 29.896 244.451 30.072C244.955 30.24 245.459 30.324 245.963 30.324C246.587 30.324 247.051 30.224 247.355 30.024C247.667 29.824 247.823 29.56 247.823 29.232C247.823 28.992 247.735 28.796 247.559 28.644C247.391 28.484 247.175 28.36 246.911 28.272C246.647 28.184 246.287 28.084 245.831 27.972C245.191 27.82 244.671 27.668 244.271 27.516C243.879 27.364 243.539 27.128 243.251 26.808C242.971 26.48 242.831 26.04 242.831 25.488C242.831 25.024 242.955 24.604 243.203 24.228C243.459 23.844 243.839 23.54 244.343 23.316C244.855 23.092 245.479 22.98 246.215 22.98C246.727 22.98 247.231 23.044 247.727 23.172C248.223 23.3 248.651 23.484 249.011 23.724L248.519 24.936C248.151 24.72 247.767 24.556 247.367 24.444C246.967 24.332 246.579 24.276 246.203 24.276C245.587 24.276 245.127 24.38 244.823 24.588C244.527 24.796 244.379 25.072 244.379 25.416C244.379 25.656 244.463 25.852 244.631 26.004C244.807 26.156 245.027 26.276 245.291 26.364C245.555 26.452 245.915 26.552 246.371 26.664C246.995 26.808 247.507 26.96 247.907 27.12C248.307 27.272 248.647 27.508 248.927 27.828C249.215 28.148 249.359 28.58 249.359 29.124C249.359 29.588 249.231 30.008 248.975 30.384C248.727 30.76 248.347 31.06 247.835 31.284C247.323 31.508 246.699 31.62 245.963 31.62ZM258.687 23.1H260.463L260.163 28.716H258.975L258.687 23.1ZM259.575 31.584C259.295 31.584 259.063 31.496 258.879 31.32C258.695 31.136 258.603 30.912 258.603 30.648C258.603 30.384 258.695 30.164 258.879 29.988C259.063 29.812 259.295 29.724 259.575 29.724C259.847 29.724 260.071 29.812 260.247 29.988C260.431 30.164 260.523 30.384 260.523 30.648C260.523 30.912 260.431 31.136 260.247 31.32C260.071 31.496 259.847 31.584 259.575 31.584Z" fill="#ECF0F1"/>
</g>
<defs>
<filter id="filter0_d_23_62462" x="0" y="0" width="276" height="62" filterUnits="userSpaceOnUse" color-interpolation-filters="sRGB">
<feFlood flood-opacity="0" result="BackgroundImageFix"/>
<feColorMatrix in="SourceAlpha" type="matrix" values="0 0 0 0 0 0 0 0 0 0 0 0 0 0 0 0 0 0 127 0" result="hardAlpha"/>
<feOffset dy="4"/>
<feGaussianBlur stdDeviation="2"/>
<feComposite in2="hardAlpha" operator="out"/>
<feColorMatrix type="matrix" values="0 0 0 0 0 0 0 0 0 0 0 0 0 0 0 0 0 0 0.25 0"/>
<feBlend mode="normal" in2="BackgroundImageFix" result="effect1_dropShadow_23_62462"/>
<feBlend mode="normal" in="SourceGraphic" in2="effect1_dropShadow_23_62462" result="shape"/>
</filter>
</defs>
</svg>
