<svg width="185" height="62" viewBox="0 0 185 62" fill="none" xmlns="http://www.w3.org/2000/svg">
<g filter="url(#filter0_d_70_1164)">
<rect width="177" height="54" transform="translate(4)" fill="#262728"/>
<path d="M33.5334 28.3333H18.6667C18.2889 28.3333 17.972 28.2053 17.716 27.9493C17.46 27.6933 17.3325 27.3768 17.3334 27C17.3334 26.6222 17.4614 26.3053 17.7174 26.0493C17.9734 25.7933 18.2898 25.6657 18.6667 25.6666H33.5334L29.7334 21.8666C29.4667 21.6 29.3387 21.2888 29.3494 20.9333C29.36 20.5777 29.488 20.2666 29.7334 20C30 19.7333 30.3169 19.5942 30.684 19.5826C31.0512 19.5711 31.3676 19.6991 31.6334 19.9666L37.7334 26.0666C37.8667 26.2 37.9614 26.3444 38.0174 26.5C38.0734 26.6555 38.1009 26.8222 38.1 27C38.1 27.1777 38.072 27.3444 38.016 27.5C37.96 27.6555 37.8658 27.8 37.7334 27.9333L31.6334 34.0333C31.3667 34.3 31.0503 34.428 30.684 34.4173C30.3178 34.4066 30.0009 34.2675 29.7334 34C29.4889 33.7333 29.3609 33.4222 29.3494 33.0666C29.3378 32.7111 29.4658 32.4 29.7334 32.1333L33.5334 28.3333Z" fill="#ECF0F1"/>
<path d="M61.9323 30.696C61.5563 30.992 61.0723 31.22 60.4803 31.38C59.8883 31.54 59.2483 31.62 58.5603 31.62C57.7523 31.62 57.0643 31.516 56.4963 31.308C55.9363 31.1 55.5123 30.812 55.2243 30.444C54.9363 30.076 54.7923 29.652 54.7923 29.172C54.7923 28.708 54.9203 28.304 55.1763 27.96C55.4323 27.616 55.7763 27.364 56.2083 27.204C55.8803 27.028 55.6203 26.784 55.4283 26.472C55.2443 26.152 55.1523 25.796 55.1523 25.404C55.1523 24.956 55.2843 24.552 55.5483 24.192C55.8203 23.824 56.2243 23.532 56.7603 23.316C57.2963 23.092 57.9563 22.98 58.7403 22.98C59.2683 22.98 59.7843 23.036 60.2883 23.148C60.7923 23.26 61.2323 23.412 61.6083 23.604L61.1643 24.84C60.4603 24.472 59.6723 24.288 58.8003 24.288C58.1123 24.288 57.5923 24.4 57.2403 24.624C56.8963 24.84 56.7243 25.132 56.7243 25.5C56.7243 25.86 56.8523 26.136 57.1083 26.328C57.3643 26.512 57.7403 26.604 58.2363 26.604H60.4563V27.9H58.1523C57.5843 27.9 57.1443 28 56.8323 28.2C56.5203 28.392 56.3643 28.68 56.3643 29.064C56.3643 29.448 56.5523 29.752 56.9283 29.976C57.3043 30.2 57.8723 30.312 58.6323 30.312C59.1603 30.312 59.6723 30.24 60.1683 30.096C60.6723 29.952 61.0923 29.752 61.4283 29.496L61.9323 30.696ZM69.8196 22.98C70.8276 22.98 71.6116 23.288 72.1716 23.904C72.7396 24.52 73.0236 25.4 73.0236 26.544V31.5H71.4636V26.604C71.4636 25.86 71.2836 25.3 70.9236 24.924C70.5716 24.54 70.0796 24.348 69.4476 24.348C68.7596 24.348 68.2116 24.552 67.8036 24.96C67.4036 25.36 67.2036 25.96 67.2036 26.76V31.5H65.6436V23.1H67.1556V24.156C67.7396 23.372 68.6276 22.98 69.8196 22.98ZM91.0025 23.1L87.3425 31.5H85.8065L82.1345 23.1H83.8265L86.6225 29.58L89.4425 23.1H91.0025ZM98.1192 31.62C97.2632 31.62 96.4912 31.436 95.8032 31.068C95.1152 30.692 94.5752 30.176 94.1832 29.52C93.7912 28.856 93.5952 28.116 93.5952 27.3C93.5952 26.484 93.7912 25.748 94.1832 25.092C94.5752 24.428 95.1152 23.912 95.8032 23.544C96.4912 23.168 97.2632 22.98 98.1192 22.98C98.9752 22.98 99.7472 23.168 100.435 23.544C101.123 23.912 101.663 24.424 102.055 25.08C102.447 25.736 102.643 26.476 102.643 27.3C102.643 28.124 102.447 28.864 102.055 29.52C101.663 30.176 101.123 30.692 100.435 31.068C99.7472 31.436 98.9752 31.62 98.1192 31.62ZM98.1192 30.252C98.6792 30.252 99.1832 30.128 99.6312 29.88C100.079 29.624 100.431 29.272 100.687 28.824C100.943 28.368 101.071 27.86 101.071 27.3C101.071 26.74 100.943 26.236 100.687 25.788C100.431 25.332 100.079 24.98 99.6312 24.732C99.1832 24.476 98.6792 24.348 98.1192 24.348C97.5592 24.348 97.0552 24.476 96.6072 24.732C96.1592 24.98 95.8072 25.332 95.5512 25.788C95.2952 26.236 95.1672 26.74 95.1672 27.3C95.1672 27.86 95.2952 28.368 95.5512 28.824C95.8072 29.272 96.1592 29.624 96.6072 29.88C97.0552 30.128 97.5592 30.252 98.1192 30.252ZM109.098 24.408V30.192H110.646V31.5H106.002V30.192H107.55V24.408H106.002V23.1H110.646V24.408H109.098ZM120.159 31.5L118.443 29.04C118.371 29.048 118.263 29.052 118.119 29.052H116.223V31.5H114.663V23.1H118.119C118.847 23.1 119.479 23.22 120.015 23.46C120.559 23.7 120.975 24.044 121.263 24.492C121.551 24.94 121.695 25.472 121.695 26.088C121.695 26.72 121.539 27.264 121.227 27.72C120.923 28.176 120.483 28.516 119.907 28.74L121.839 31.5H120.159ZM120.123 26.088C120.123 25.552 119.947 25.14 119.595 24.852C119.243 24.564 118.727 24.42 118.047 24.42H116.223V27.768H118.047C118.727 27.768 119.243 27.624 119.595 27.336C119.947 27.04 120.123 26.624 120.123 26.088ZM135.013 23.1C135.741 23.1 136.373 23.22 136.909 23.46C137.453 23.7 137.869 24.044 138.157 24.492C138.445 24.94 138.589 25.472 138.589 26.088C138.589 26.696 138.445 27.228 138.157 27.684C137.869 28.132 137.453 28.476 136.909 28.716C136.373 28.956 135.741 29.076 135.013 29.076H133.117V31.5H131.557V23.1H135.013ZM134.941 27.756C135.621 27.756 136.137 27.612 136.489 27.324C136.841 27.036 137.017 26.624 137.017 26.088C137.017 25.552 136.841 25.14 136.489 24.852C136.137 24.564 135.621 24.42 134.941 24.42H133.117V27.756H134.941ZM142.547 23.1H144.107V30.18H148.499V31.5H142.547V23.1ZM159.273 23.1V31.5H157.773V30.432C157.205 31.224 156.325 31.62 155.133 31.62C154.141 31.62 153.361 31.312 152.793 30.696C152.225 30.072 151.941 29.192 151.941 28.056V23.1H153.501V27.996C153.501 28.74 153.677 29.304 154.029 29.688C154.389 30.064 154.881 30.252 155.505 30.252C156.177 30.252 156.713 30.052 157.113 29.652C157.513 29.244 157.713 28.64 157.713 27.84V23.1H159.273ZM166.533 31.62C165.885 31.62 165.257 31.528 164.649 31.344C164.049 31.16 163.573 30.916 163.221 30.612L163.761 29.4C164.105 29.672 164.525 29.896 165.021 30.072C165.525 30.24 166.029 30.324 166.533 30.324C167.157 30.324 167.621 30.224 167.925 30.024C168.237 29.824 168.393 29.56 168.393 29.232C168.393 28.992 168.305 28.796 168.129 28.644C167.961 28.484 167.745 28.36 167.481 28.272C167.217 28.184 166.857 28.084 166.401 27.972C165.761 27.82 165.241 27.668 164.841 27.516C164.449 27.364 164.109 27.128 163.821 26.808C163.541 26.48 163.401 26.04 163.401 25.488C163.401 25.024 163.525 24.604 163.773 24.228C164.029 23.844 164.409 23.54 164.913 23.316C165.425 23.092 166.049 22.98 166.785 22.98C167.297 22.98 167.801 23.044 168.297 23.172C168.793 23.3 169.221 23.484 169.581 23.724L169.089 24.936C168.721 24.72 168.337 24.556 167.937 24.444C167.537 24.332 167.149 24.276 166.773 24.276C166.157 24.276 165.697 24.38 165.393 24.588C165.097 24.796 164.949 25.072 164.949 25.416C164.949 25.656 165.033 25.852 165.201 26.004C165.377 26.156 165.597 26.276 165.861 26.364C166.125 26.452 166.485 26.552 166.941 26.664C167.565 26.808 168.077 26.96 168.477 27.12C168.877 27.272 169.217 27.508 169.497 27.828C169.785 28.148 169.929 28.58 169.929 29.124C169.929 29.588 169.801 30.008 169.545 30.384C169.297 30.76 168.917 31.06 168.405 31.284C167.893 31.508 167.269 31.62 166.533 31.62Z" fill="#ECF0F1"/>
</g>
<defs>
<filter id="filter0_d_70_1164" x="0" y="0" width="185" height="62" filterUnits="userSpaceOnUse" color-interpolation-filters="sRGB">
<feFlood flood-opacity="0" result="BackgroundImageFix"/>
<feColorMatrix in="SourceAlpha" type="matrix" values="0 0 0 0 0 0 0 0 0 0 0 0 0 0 0 0 0 0 127 0" result="hardAlpha"/>
<feOffset dy="4"/>
<feGaussianBlur stdDeviation="2"/>
<feComposite in2="hardAlpha" operator="out"/>
<feColorMatrix type="matrix" values="0 0 0 0 0 0 0 0 0 0 0 0 0 0 0 0 0 0 0.25 0"/>
<feBlend mode="normal" in2="BackgroundImageFix" result="effect1_dropShadow_70_1164"/>
<feBlend mode="normal" in="SourceGraphic" in2="effect1_dropShadow_70_1164" result="shape"/>
</filter>
</defs>
</svg>
