<svg width="169" height="62" viewBox="0 0 169 62" fill="none" xmlns="http://www.w3.org/2000/svg">
<g filter="url(#filter0_d_70_1172)">
<rect width="161" height="54" transform="translate(4)" fill="#262728"/>
<path d="M33.5334 28.3333H18.6667C18.2889 28.3333 17.972 28.2053 17.716 27.9493C17.46 27.6933 17.3325 27.3768 17.3334 27C17.3334 26.6222 17.4614 26.3053 17.7174 26.0493C17.9734 25.7933 18.2898 25.6657 18.6667 25.6666H33.5334L29.7334 21.8666C29.4667 21.6 29.3387 21.2888 29.3494 20.9333C29.36 20.5777 29.488 20.2666 29.7334 20C30 19.7333 30.3169 19.5942 30.684 19.5826C31.0512 19.5711 31.3676 19.6991 31.6334 19.9666L37.7334 26.0666C37.8667 26.2 37.9614 26.3444 38.0174 26.5C38.0734 26.6555 38.1009 26.8222 38.1 27C38.1 27.1777 38.072 27.3444 38.016 27.5C37.96 27.6555 37.8658 27.8 37.7334 27.9333L31.6334 34.0333C31.3667 34.3 31.0503 34.428 30.684 34.4173C30.3178 34.4066 30.0009 34.2675 29.7334 34C29.4889 33.7333 29.3609 33.4222 29.3494 33.0666C29.3378 32.7111 29.4658 32.4 29.7334 32.1333L33.5334 28.3333Z" fill="#ECF0F1"/>
<path d="M61.0349 31.5L59.3189 29.04C59.2469 29.048 59.1389 29.052 58.9949 29.052H57.0989V31.5H55.5389V23.1H58.9949C59.7229 23.1 60.3549 23.22 60.8909 23.46C61.4349 23.7 61.8509 24.044 62.1389 24.492C62.4269 24.94 62.5709 25.472 62.5709 26.088C62.5709 26.72 62.4149 27.264 62.1029 27.72C61.7989 28.176 61.3589 28.516 60.7829 28.74L62.7149 31.5H61.0349ZM60.9989 26.088C60.9989 25.552 60.8229 25.14 60.4709 24.852C60.1189 24.564 59.6029 24.42 58.9229 24.42H57.0989V27.768H58.9229C59.6029 27.768 60.1189 27.624 60.4709 27.336C60.8229 27.04 60.9989 26.624 60.9989 26.088ZM73.2683 30.696C72.8923 30.992 72.4083 31.22 71.8163 31.38C71.2243 31.54 70.5843 31.62 69.8963 31.62C69.0883 31.62 68.4003 31.516 67.8323 31.308C67.2723 31.1 66.8483 30.812 66.5603 30.444C66.2723 30.076 66.1283 29.652 66.1283 29.172C66.1283 28.708 66.2563 28.304 66.5123 27.96C66.7683 27.616 67.1123 27.364 67.5443 27.204C67.2163 27.028 66.9563 26.784 66.7643 26.472C66.5803 26.152 66.4883 25.796 66.4883 25.404C66.4883 24.956 66.6203 24.552 66.8843 24.192C67.1563 23.824 67.5603 23.532 68.0963 23.316C68.6323 23.092 69.2923 22.98 70.0763 22.98C70.6043 22.98 71.1203 23.036 71.6243 23.148C72.1283 23.26 72.5683 23.412 72.9443 23.604L72.5003 24.84C71.7963 24.472 71.0083 24.288 70.1363 24.288C69.4483 24.288 68.9283 24.4 68.5763 24.624C68.2323 24.84 68.0603 25.132 68.0603 25.5C68.0603 25.86 68.1883 26.136 68.4443 26.328C68.7003 26.512 69.0763 26.604 69.5723 26.604H71.7923V27.9H69.4883C68.9203 27.9 68.4803 28 68.1683 28.2C67.8563 28.392 67.7003 28.68 67.7003 29.064C67.7003 29.448 67.8883 29.752 68.2643 29.976C68.6403 30.2 69.2083 30.312 69.9683 30.312C70.4963 30.312 71.0083 30.24 71.5043 30.096C72.0083 29.952 72.4283 29.752 72.7643 29.496L73.2683 30.696ZM80.3349 22.98C81.0869 22.98 81.7429 23.128 82.3029 23.424C82.8629 23.72 83.2949 24.16 83.5989 24.744C83.9109 25.32 84.0669 26.02 84.0669 26.844V31.5H82.5069V29.34H78.1389V31.5H76.6029V26.844C76.6029 26.02 76.7549 25.32 77.0589 24.744C77.3709 24.16 77.8069 23.72 78.3669 23.424C78.9269 23.128 79.5829 22.98 80.3349 22.98ZM82.5069 28.032V26.7C82.5069 25.924 82.3149 25.34 81.9309 24.948C81.5469 24.548 81.0109 24.348 80.3229 24.348C79.6349 24.348 79.0989 24.548 78.7149 24.948C78.3309 25.34 78.1389 25.924 78.1389 26.7V28.032H82.5069ZM88.6491 23.1H92.3211C93.2171 23.1 94.0131 23.276 94.7091 23.628C95.4051 23.972 95.9451 24.464 96.3291 25.104C96.7131 25.736 96.9051 26.468 96.9051 27.3C96.9051 28.132 96.7131 28.868 96.3291 29.508C95.9451 30.14 95.4051 30.632 94.7091 30.984C94.0131 31.328 93.2171 31.5 92.3211 31.5H88.6491V23.1ZM92.2491 30.18C92.8651 30.18 93.4051 30.064 93.8691 29.832C94.3411 29.592 94.7011 29.256 94.9491 28.824C95.2051 28.384 95.3331 27.876 95.3331 27.3C95.3331 26.724 95.2051 26.22 94.9491 25.788C94.7011 25.348 94.3411 25.012 93.8691 24.78C93.4051 24.54 92.8651 24.42 92.2491 24.42H90.2091V30.18H92.2491ZM116.064 22.98C117.048 22.98 117.816 23.268 118.368 23.844C118.92 24.412 119.196 25.232 119.196 26.304V31.5H117.636V26.364C117.636 25.7 117.46 25.2 117.108 24.864C116.764 24.52 116.312 24.348 115.752 24.348C115.128 24.348 114.628 24.524 114.252 24.876C113.884 25.228 113.7 25.768 113.7 26.496V31.5H112.14V26.364C112.14 25.692 111.976 25.188 111.648 24.852C111.328 24.516 110.888 24.348 110.328 24.348C109.696 24.348 109.188 24.528 108.804 24.888C108.428 25.24 108.24 25.776 108.24 26.496V31.5H106.68V23.1H108.192V24.204C108.448 23.812 108.796 23.512 109.236 23.304C109.676 23.088 110.184 22.98 110.76 22.98C111.352 22.98 111.868 23.092 112.308 23.316C112.748 23.54 113.08 23.856 113.304 24.264C113.584 23.856 113.964 23.54 114.444 23.316C114.932 23.092 115.472 22.98 116.064 22.98ZM127.699 31.62C126.843 31.62 126.071 31.436 125.383 31.068C124.695 30.692 124.155 30.176 123.763 29.52C123.371 28.856 123.175 28.116 123.175 27.3C123.175 26.484 123.371 25.748 123.763 25.092C124.155 24.428 124.695 23.912 125.383 23.544C126.071 23.168 126.843 22.98 127.699 22.98C128.555 22.98 129.327 23.168 130.015 23.544C130.703 23.912 131.243 24.424 131.635 25.08C132.027 25.736 132.223 26.476 132.223 27.3C132.223 28.124 132.027 28.864 131.635 29.52C131.243 30.176 130.703 30.692 130.015 31.068C129.327 31.436 128.555 31.62 127.699 31.62ZM127.699 30.252C128.259 30.252 128.763 30.128 129.211 29.88C129.659 29.624 130.011 29.272 130.267 28.824C130.523 28.368 130.651 27.86 130.651 27.3C130.651 26.74 130.523 26.236 130.267 25.788C130.011 25.332 129.659 24.98 129.211 24.732C128.763 24.476 128.259 24.348 127.699 24.348C127.139 24.348 126.635 24.476 126.187 24.732C125.739 24.98 125.387 25.332 125.131 25.788C124.875 26.236 124.747 26.74 124.747 27.3C124.747 27.86 124.875 28.368 125.131 28.824C125.387 29.272 125.739 29.624 126.187 29.88C126.635 30.128 127.139 30.252 127.699 30.252ZM141.772 31.5L140.056 29.04C139.984 29.048 139.876 29.052 139.732 29.052H137.836V31.5H136.276V23.1H139.732C140.46 23.1 141.092 23.22 141.628 23.46C142.172 23.7 142.588 24.044 142.876 24.492C143.164 24.94 143.308 25.472 143.308 26.088C143.308 26.72 143.152 27.264 142.84 27.72C142.536 28.176 142.096 28.516 141.52 28.74L143.452 31.5H141.772ZM141.736 26.088C141.736 25.552 141.56 25.14 141.208 24.852C140.856 24.564 140.34 24.42 139.66 24.42H137.836V27.768H139.66C140.34 27.768 140.856 27.624 141.208 27.336C141.56 27.04 141.736 26.624 141.736 26.088ZM154.006 30.696C153.63 30.992 153.146 31.22 152.554 31.38C151.962 31.54 151.322 31.62 150.634 31.62C149.826 31.62 149.138 31.516 148.57 31.308C148.01 31.1 147.586 30.812 147.298 30.444C147.01 30.076 146.866 29.652 146.866 29.172C146.866 28.708 146.994 28.304 147.25 27.96C147.506 27.616 147.85 27.364 148.282 27.204C147.954 27.028 147.694 26.784 147.502 26.472C147.318 26.152 147.226 25.796 147.226 25.404C147.226 24.956 147.358 24.552 147.622 24.192C147.894 23.824 148.298 23.532 148.834 23.316C149.37 23.092 150.03 22.98 150.814 22.98C151.342 22.98 151.858 23.036 152.362 23.148C152.866 23.26 153.306 23.412 153.682 23.604L153.238 24.84C152.534 24.472 151.746 24.288 150.874 24.288C150.186 24.288 149.666 24.4 149.314 24.624C148.97 24.84 148.798 25.132 148.798 25.5C148.798 25.86 148.926 26.136 149.182 26.328C149.438 26.512 149.814 26.604 150.31 26.604H152.53V27.9H150.226C149.658 27.9 149.218 28 148.906 28.2C148.594 28.392 148.438 28.68 148.438 29.064C148.438 29.448 148.626 29.752 149.002 29.976C149.378 30.2 149.946 30.312 150.706 30.312C151.234 30.312 151.746 30.24 152.242 30.096C152.746 29.952 153.166 29.752 153.502 29.496L154.006 30.696Z" fill="#ECF0F1"/>
</g>
<defs>
<filter id="filter0_d_70_1172" x="0" y="0" width="169" height="62" filterUnits="userSpaceOnUse" color-interpolation-filters="sRGB">
<feFlood flood-opacity="0" result="BackgroundImageFix"/>
<feColorMatrix in="SourceAlpha" type="matrix" values="0 0 0 0 0 0 0 0 0 0 0 0 0 0 0 0 0 0 127 0" result="hardAlpha"/>
<feOffset dy="4"/>
<feGaussianBlur stdDeviation="2"/>
<feComposite in2="hardAlpha" operator="out"/>
<feColorMatrix type="matrix" values="0 0 0 0 0 0 0 0 0 0 0 0 0 0 0 0 0 0 0.25 0"/>
<feBlend mode="normal" in2="BackgroundImageFix" result="effect1_dropShadow_70_1172"/>
<feBlend mode="normal" in="SourceGraphic" in2="effect1_dropShadow_70_1172" result="shape"/>
</filter>
</defs>
</svg>
