<svg width="101" height="49" viewBox="0 0 101 49" fill="none" xmlns="http://www.w3.org/2000/svg">
<g filter="url(#filter0_d_10_2773)">
<rect width="93" height="41" transform="translate(4)" fill="#262728"/>
<path d="M19.9722 24.196C19.5962 24.492 19.1122 24.72 18.5202 24.88C17.9282 25.04 17.2882 25.12 16.6002 25.12C15.7922 25.12 15.1042 25.016 14.5362 24.808C13.9762 24.6 13.5522 24.312 13.2642 23.944C12.9762 23.576 12.8322 23.152 12.8322 22.672C12.8322 22.208 12.9602 21.804 13.2162 21.46C13.4722 21.116 13.8162 20.864 14.2482 20.704C13.9202 20.528 13.6602 20.284 13.4682 19.972C13.2842 19.652 13.1922 19.296 13.1922 18.904C13.1922 18.456 13.3242 18.052 13.5882 17.692C13.8602 17.324 14.2642 17.032 14.8002 16.816C15.3362 16.592 15.9962 16.48 16.7802 16.48C17.3082 16.48 17.8242 16.536 18.3282 16.648C18.8322 16.76 19.2722 16.912 19.6482 17.104L19.2042 18.34C18.5002 17.972 17.7122 17.788 16.8402 17.788C16.1522 17.788 15.6322 17.9 15.2802 18.124C14.9362 18.34 14.7642 18.632 14.7642 19C14.7642 19.36 14.8922 19.636 15.1482 19.828C15.4042 20.012 15.7802 20.104 16.2762 20.104H18.4962V21.4H16.1922C15.6242 21.4 15.1842 21.5 14.8722 21.7C14.5602 21.892 14.4042 22.18 14.4042 22.564C14.4042 22.948 14.5922 23.252 14.9682 23.476C15.3442 23.7 15.9122 23.812 16.6722 23.812C17.2002 23.812 17.7122 23.74 18.2082 23.596C18.7122 23.452 19.1322 23.252 19.4682 22.996L19.9722 24.196ZM27.8595 16.48C28.8675 16.48 29.6515 16.788 30.2115 17.404C30.7795 18.02 31.0635 18.9 31.0635 20.044V25H29.5035V20.104C29.5035 19.36 29.3235 18.8 28.9635 18.424C28.6115 18.04 28.1195 17.848 27.4875 17.848C26.7995 17.848 26.2515 18.052 25.8435 18.46C25.4435 18.86 25.2435 19.46 25.2435 20.26V25H23.6835V16.6H25.1955V17.656C25.7795 16.872 26.6675 16.48 27.8595 16.48ZM43.326 16.6L39.666 25H38.13L34.458 16.6H36.15L38.946 23.08L41.766 16.6H43.326ZM50.4426 25.12C49.5866 25.12 48.8146 24.936 48.1266 24.568C47.4386 24.192 46.8986 23.676 46.5066 23.02C46.1146 22.356 45.9186 21.616 45.9186 20.8C45.9186 19.984 46.1146 19.248 46.5066 18.592C46.8986 17.928 47.4386 17.412 48.1266 17.044C48.8146 16.668 49.5866 16.48 50.4426 16.48C51.2986 16.48 52.0706 16.668 52.7586 17.044C53.4466 17.412 53.9866 17.924 54.3786 18.58C54.7706 19.236 54.9666 19.976 54.9666 20.8C54.9666 21.624 54.7706 22.364 54.3786 23.02C53.9866 23.676 53.4466 24.192 52.7586 24.568C52.0706 24.936 51.2986 25.12 50.4426 25.12ZM50.4426 23.752C51.0026 23.752 51.5066 23.628 51.9546 23.38C52.4026 23.124 52.7546 22.772 53.0106 22.324C53.2666 21.868 53.3946 21.36 53.3946 20.8C53.3946 20.24 53.2666 19.736 53.0106 19.288C52.7546 18.832 52.4026 18.48 51.9546 18.232C51.5066 17.976 51.0026 17.848 50.4426 17.848C49.8826 17.848 49.3786 17.976 48.9306 18.232C48.4826 18.48 48.1306 18.832 47.8746 19.288C47.6186 19.736 47.4906 20.24 47.4906 20.8C47.4906 21.36 47.6186 21.868 47.8746 22.324C48.1306 22.772 48.4826 23.124 48.9306 23.38C49.3786 23.628 49.8826 23.752 50.4426 23.752ZM66.2096 16.6V22.432C66.2096 23.672 65.8696 24.624 65.1896 25.288C64.5176 25.952 63.5856 26.284 62.3936 26.284C61.6896 26.284 61.0496 26.18 60.4736 25.972C59.8976 25.772 59.4096 25.484 59.0096 25.108L59.6456 23.908C60.3896 24.58 61.2976 24.916 62.3696 24.916C63.8896 24.916 64.6496 24.112 64.6496 22.504V21.868C64.0816 22.588 63.2576 22.948 62.1776 22.948C61.1136 22.948 60.2896 22.644 59.7056 22.036C59.1216 21.428 58.8296 20.556 58.8296 19.42V16.6H60.3896V19.348C60.3896 20.084 60.5656 20.644 60.9176 21.028C61.2776 21.404 61.7776 21.592 62.4176 21.592C63.0976 21.592 63.6376 21.392 64.0376 20.992C64.4456 20.584 64.6496 19.984 64.6496 19.192V16.6H66.2096ZM77.3472 24.196C76.9712 24.492 76.4872 24.72 75.8952 24.88C75.3032 25.04 74.6632 25.12 73.9752 25.12C73.1672 25.12 72.4792 25.016 71.9112 24.808C71.3512 24.6 70.9272 24.312 70.6392 23.944C70.3512 23.576 70.2072 23.152 70.2072 22.672C70.2072 22.208 70.3352 21.804 70.5912 21.46C70.8472 21.116 71.1912 20.864 71.6232 20.704C71.2952 20.528 71.0352 20.284 70.8432 19.972C70.6592 19.652 70.5672 19.296 70.5672 18.904C70.5672 18.456 70.6992 18.052 70.9632 17.692C71.2352 17.324 71.6392 17.032 72.1752 16.816C72.7112 16.592 73.3712 16.48 74.1552 16.48C74.6832 16.48 75.1992 16.536 75.7032 16.648C76.2072 16.76 76.6472 16.912 77.0232 17.104L76.5792 18.34C75.8752 17.972 75.0872 17.788 74.2152 17.788C73.5272 17.788 73.0072 17.9 72.6552 18.124C72.3112 18.34 72.1392 18.632 72.1392 19C72.1392 19.36 72.2672 19.636 72.5232 19.828C72.7792 20.012 73.1552 20.104 73.6512 20.104H75.8712V21.4H73.5672C72.9992 21.4 72.5592 21.5 72.2472 21.7C71.9352 21.892 71.7792 22.18 71.7792 22.564C71.7792 22.948 71.9672 23.252 72.3432 23.476C72.7192 23.7 73.2872 23.812 74.0472 23.812C74.5752 23.812 75.0872 23.74 75.5832 23.596C76.0872 23.452 76.5072 23.252 76.8432 22.996L77.3472 24.196ZM86.5545 25L84.8385 22.54C84.7665 22.548 84.6585 22.552 84.5145 22.552H82.6185V25H81.0585V16.6H84.5145C85.2425 16.6 85.8745 16.72 86.4105 16.96C86.9545 17.2 87.3705 17.544 87.6585 17.992C87.9465 18.44 88.0905 18.972 88.0905 19.588C88.0905 20.22 87.9345 20.764 87.6225 21.22C87.3185 21.676 86.8785 22.016 86.3025 22.24L88.2345 25H86.5545ZM86.5185 19.588C86.5185 19.052 86.3425 18.64 85.9905 18.352C85.6385 18.064 85.1225 17.92 84.4425 17.92H82.6185V21.268H84.4425C85.1225 21.268 85.6385 21.124 85.9905 20.836C86.3425 20.54 86.5185 20.124 86.5185 19.588Z" fill="#ECF0F1"/>
</g>
<defs>
<filter id="filter0_d_10_2773" x="0" y="0" width="101" height="49" filterUnits="userSpaceOnUse" color-interpolation-filters="sRGB">
<feFlood flood-opacity="0" result="BackgroundImageFix"/>
<feColorMatrix in="SourceAlpha" type="matrix" values="0 0 0 0 0 0 0 0 0 0 0 0 0 0 0 0 0 0 127 0" result="hardAlpha"/>
<feOffset dy="4"/>
<feGaussianBlur stdDeviation="2"/>
<feComposite in2="hardAlpha" operator="out"/>
<feColorMatrix type="matrix" values="0 0 0 0 0 0 0 0 0 0 0 0 0 0 0 0 0 0 0.25 0"/>
<feBlend mode="normal" in2="BackgroundImageFix" result="effect1_dropShadow_10_2773"/>
<feBlend mode="normal" in="SourceGraphic" in2="effect1_dropShadow_10_2773" result="shape"/>
</filter>
</defs>
</svg>
