<svg width="67" height="49" viewBox="0 0 67 49" fill="none" xmlns="http://www.w3.org/2000/svg">
<g filter="url(#filter0_d_10_2773)">
<rect width="59" height="41" transform="translate(4)" fill="#262728"/>
<path d="M16.1886 25.12C15.5406 25.12 14.9126 25.028 14.3046 24.844C13.7046 24.66 13.2286 24.416 12.8766 24.112L13.4166 22.9C13.7606 23.172 14.1806 23.396 14.6766 23.572C15.1806 23.74 15.6846 23.824 16.1886 23.824C16.8126 23.824 17.2766 23.724 17.5806 23.524C17.8926 23.324 18.0486 23.06 18.0486 22.732C18.0486 22.492 17.9606 22.296 17.7846 22.144C17.6166 21.984 17.4006 21.86 17.1366 21.772C16.8726 21.684 16.5126 21.584 16.0566 21.472C15.4166 21.32 14.8966 21.168 14.4966 21.016C14.1046 20.864 13.7646 20.628 13.4766 20.308C13.1966 19.98 13.0566 19.54 13.0566 18.988C13.0566 18.524 13.1806 18.104 13.4286 17.728C13.6846 17.344 14.0646 17.04 14.5686 16.816C15.0806 16.592 15.7046 16.48 16.4406 16.48C16.9526 16.48 17.4566 16.544 17.9526 16.672C18.4486 16.8 18.8766 16.984 19.2366 17.224L18.7446 18.436C18.3766 18.22 17.9926 18.056 17.5926 17.944C17.1926 17.832 16.8046 17.776 16.4286 17.776C15.8126 17.776 15.3526 17.88 15.0486 18.088C14.7526 18.296 14.6046 18.572 14.6046 18.916C14.6046 19.156 14.6886 19.352 14.8566 19.504C15.0326 19.656 15.2526 19.776 15.5166 19.864C15.7806 19.952 16.1406 20.052 16.5966 20.164C17.2206 20.308 17.7326 20.46 18.1326 20.62C18.5326 20.772 18.8726 21.008 19.1526 21.328C19.4406 21.648 19.5846 22.08 19.5846 22.624C19.5846 23.088 19.4566 23.508 19.2006 23.884C18.9526 24.26 18.5726 24.56 18.0606 24.784C17.5486 25.008 16.9246 25.12 16.1886 25.12ZM30.0835 24.196C29.7075 24.492 29.2235 24.72 28.6315 24.88C28.0395 25.04 27.3995 25.12 26.7115 25.12C25.9035 25.12 25.2155 25.016 24.6475 24.808C24.0875 24.6 23.6635 24.312 23.3755 23.944C23.0875 23.576 22.9435 23.152 22.9435 22.672C22.9435 22.208 23.0715 21.804 23.3275 21.46C23.5835 21.116 23.9275 20.864 24.3595 20.704C24.0315 20.528 23.7715 20.284 23.5795 19.972C23.3955 19.652 23.3035 19.296 23.3035 18.904C23.3035 18.456 23.4355 18.052 23.6995 17.692C23.9715 17.324 24.3755 17.032 24.9115 16.816C25.4475 16.592 26.1075 16.48 26.8915 16.48C27.4195 16.48 27.9355 16.536 28.4395 16.648C28.9435 16.76 29.3835 16.912 29.7595 17.104L29.3155 18.34C28.6115 17.972 27.8235 17.788 26.9515 17.788C26.2635 17.788 25.7435 17.9 25.3915 18.124C25.0475 18.34 24.8755 18.632 24.8755 19C24.8755 19.36 25.0035 19.636 25.2595 19.828C25.5155 20.012 25.8915 20.104 26.3875 20.104H28.6075V21.4H26.3035C25.7355 21.4 25.2955 21.5 24.9835 21.7C24.6715 21.892 24.5155 22.18 24.5155 22.564C24.5155 22.948 24.7035 23.252 25.0795 23.476C25.4555 23.7 26.0235 23.812 26.7835 23.812C27.3115 23.812 27.8235 23.74 28.3195 23.596C28.8235 23.452 29.2435 23.252 29.5795 22.996L30.0835 24.196ZM37.9708 16.48C38.9788 16.48 39.7628 16.788 40.3228 17.404C40.8908 18.02 41.1748 18.9 41.1748 20.044V25H39.6148V20.104C39.6148 19.36 39.4348 18.8 39.0748 18.424C38.7228 18.04 38.2308 17.848 37.5988 17.848C36.9108 17.848 36.3628 18.052 35.9548 18.46C35.5548 18.86 35.3548 19.46 35.3548 20.26V25H33.7948V16.6H35.3068V17.656C35.8908 16.872 36.7788 16.48 37.9708 16.48ZM45.7573 16.6H49.4293C50.3253 16.6 51.1213 16.776 51.8173 17.128C52.5133 17.472 53.0533 17.964 53.4373 18.604C53.8213 19.236 54.0133 19.968 54.0133 20.8C54.0133 21.632 53.8213 22.368 53.4373 23.008C53.0533 23.64 52.5133 24.132 51.8173 24.484C51.1213 24.828 50.3253 25 49.4293 25H45.7573V16.6ZM49.3573 23.68C49.9733 23.68 50.5133 23.564 50.9773 23.332C51.4493 23.092 51.8093 22.756 52.0573 22.324C52.3133 21.884 52.4413 21.376 52.4413 20.8C52.4413 20.224 52.3133 19.72 52.0573 19.288C51.8093 18.848 51.4493 18.512 50.9773 18.28C50.5133 18.04 49.9733 17.92 49.3573 17.92H47.3173V23.68H49.3573Z" fill="#ECF0F1"/>
</g>
<defs>
<filter id="filter0_d_10_2773" x="0" y="0" width="67" height="49" filterUnits="userSpaceOnUse" color-interpolation-filters="sRGB">
<feFlood flood-opacity="0" result="BackgroundImageFix"/>
<feColorMatrix in="SourceAlpha" type="matrix" values="0 0 0 0 0 0 0 0 0 0 0 0 0 0 0 0 0 0 127 0" result="hardAlpha"/>
<feOffset dy="4"/>
<feGaussianBlur stdDeviation="2"/>
<feComposite in2="hardAlpha" operator="out"/>
<feColorMatrix type="matrix" values="0 0 0 0 0 0 0 0 0 0 0 0 0 0 0 0 0 0 0.25 0"/>
<feBlend mode="normal" in2="BackgroundImageFix" result="effect1_dropShadow_10_2773"/>
<feBlend mode="normal" in="SourceGraphic" in2="effect1_dropShadow_10_2773" result="shape"/>
</filter>
</defs>
</svg>
