<svg width="40" height="24" viewBox="0 0 40 24" fill="none" xmlns="http://www.w3.org/2000/svg">
<g clip-path="url(#clip0_10_4904)">
<path d="M21.9816 15.006C21.9839 15.3134 21.9236 15.618 21.8045 15.9008C21.69 16.1763 21.526 16.4281 21.3209 16.6433C21.1231 16.854 20.8869 17.0242 20.6254 17.1445C20.3625 17.2648 20.077 17.3259 19.7885 17.3237C19.4959 17.3253 19.2064 17.2642 18.9388 17.1445C18.6726 17.0263 18.4321 16.856 18.2313 16.6433C18.0265 16.4278 17.8626 16.1761 17.7477 15.9008C17.6314 15.6171 17.5715 15.3131 17.5715 15.006C17.5715 14.6989 17.6314 14.3949 17.7477 14.1112C17.8627 13.8359 18.0266 13.5842 18.2313 13.3687C18.4326 13.1566 18.673 12.9864 18.9388 12.8675C19.2066 12.7485 19.4961 12.6878 19.7885 12.6893C20.0769 12.6872 20.3623 12.7479 20.6254 12.8675C20.8865 12.9885 21.1226 13.1586 21.3209 13.3687C21.5259 13.584 21.6899 13.8357 21.8045 14.1112C21.9236 14.394 21.9839 14.6986 21.9816 15.006Z" fill="#8FC1DD"/>
<path d="M40 18.1786C39.6703 19.944 38.8842 21.3316 37.6417 22.3415C36.3993 23.3513 35.11 23.8556 33.7739 23.8544C32.4502 23.8654 31.1707 23.3724 30.1897 22.4733C29.5927 21.9318 28.9873 21.6614 28.3737 21.662C27.1631 21.662 26.4321 22.3619 26.1806 23.7616H25.5199C25.5976 21.4102 26.4174 19.3063 27.9792 17.4499C29.541 15.5936 31.004 14.214 32.3682 13.3112C33.7336 12.3886 34.7142 11.3864 35.31 10.3048C35.9059 9.22315 36.2038 8.16565 36.2038 7.13227C36.2032 5.71896 35.7352 4.45539 34.7998 3.34158C33.8645 2.22776 32.7129 1.67085 31.345 1.67085C30.0242 1.67085 28.9197 2.09472 28.0315 2.94246C27.1432 3.7902 26.7003 4.87215 26.7028 6.18831C26.7028 7.14062 26.9438 7.90978 27.4258 8.49577C27.9079 9.08176 28.5108 9.37476 29.2345 9.37476C29.8823 9.37476 30.4155 9.16189 30.8339 8.73617C31.0317 8.54799 31.1895 8.32094 31.2976 8.06894C31.4057 7.81693 31.4618 7.54527 31.4625 7.27057V6.84546L31.9818 6.65983C32.218 7.07379 32.3357 7.5747 32.3351 8.16255C32.3351 9.1489 32.0167 9.93229 31.3799 10.5127C30.743 11.0931 29.9138 11.3833 28.8922 11.3833C27.8376 11.3833 26.9725 10.9938 26.2972 10.2148C25.6218 9.43571 25.2838 8.4243 25.2832 7.18054C25.2832 5.27219 25.983 3.65809 27.3827 2.33821C28.7824 1.01834 30.5133 0.358398 32.5755 0.358398C34.3496 0.358398 35.871 0.934799 37.1398 2.0876C38.4085 3.2404 39.0414 4.62803 39.0383 6.2505C39.0383 8.92242 37.23 11.4595 33.6134 13.8616C29.9967 16.2637 27.8428 18.6176 27.1515 20.9232C27.9801 20.2727 29.0033 19.9276 30.0521 19.9449C30.8541 19.9449 31.884 20.1596 33.1417 20.5891C34.4154 21.003 35.2412 21.2097 35.6193 21.2091C36.4366 21.2091 37.1205 20.9826 37.6711 20.5296C38.2217 20.0767 38.7955 19.198 39.3925 17.8936L40 18.1786Z" fill="#8FC1DD"/>
<path d="M7.29233 13.157C6.19119 15.7095 5.64061 17.5504 5.64061 18.6797C5.64061 19.395 5.82261 20.0113 6.1866 20.5286C6.55059 21.0459 7.03264 21.3043 7.63277 21.3036C8.50267 21.3036 9.24595 20.6199 9.86259 19.2523L10.2397 19.3953C10.1449 20.7789 9.73228 21.8927 9.00186 22.7367C8.27143 23.5808 7.40918 24.0019 6.41509 24C5.39286 24 4.57526 23.5823 3.96229 22.747C3.34932 21.9116 3.04344 20.8101 3.04467 19.4426C3.04467 16.3419 4.73492 12.7795 8.11544 8.75554L12.4549 3.57814C12.3607 3.57814 12.0147 3.65766 11.417 3.81668C10.83 3.97636 10.2246 4.05658 9.61666 4.05523C8.93701 4.05523 8.01939 3.95189 6.8638 3.74521C5.70821 3.53854 4.90315 3.43489 4.44862 3.43427C3.61114 3.43427 2.91192 3.60011 2.35094 3.93178C1.78997 4.26345 1.49389 4.51622 1.46269 4.6901L0.954325 7.44031L0 7.27602L1.34431 0L2.30323 0.142012L1.82239 2.74092C3.68088 1.44147 5.40509 0.791739 6.99502 0.791739C7.37247 0.791739 8.2384 1.00646 9.59281 1.4359C10.9466 1.84987 11.9306 2.05654 12.5448 2.05592C13.159 2.0553 13.9237 1.58626 14.8388 0.648799L15.3105 0.887342C15.2004 1.50613 14.373 2.75453 12.8283 4.63256C10.2413 7.763 8.39592 10.6045 7.29233 13.157Z" fill="#8FC1DD"/>
</g>
<defs>
<clipPath id="clip0_10_4904">
<rect width="40" height="24" fill="white"/>
</clipPath>
</defs>
</svg>
