<svg xmlns="http://www.w3.org/2000/svg" viewBox="0 0 512 265"><defs><style>.cls-1{opacity:0.93;isolation:isolate;}.cls-2{fill-rule:evenodd;}</style></defs><title>Logo</title><g id="Calque_2" data-name="Calque 2"><g id="Sources"><g class="cls-1"><path class="cls-2" d="M409.36,206.85l-1.68.61,21.71-7.73C422.71,202.08,415.07,204.8,409.36,206.85Z"/><path class="cls-2" d="M403,248.5a107.07,107.07,0,0,1-2-11.5l52-9a68.22,68.22,0,0,0-4-16q-24.45,4.68-49,9l-3-1a34.87,34.87,0,0,1-2-7.94s0,0,0-.06l7.19-2.56.78-.28,1.9-.69,1.14-.41,1.67-.6,1.68-.61c5.71-2,13.35-4.77,20-7.12l1.32-.47,1.58-.56,3-1,2.8-1,1-.34h0l.69-.24,4.33-1.53.71-.25,1.39-.49,1.28-.45,1.17-.41,1.85-.65q2.52-.91,5.06-1.78l1.09-.38,1.48-.52,7.09-2.5Q482.59,181,500,175a46.54,46.54,0,0,0-6-16q-12.79,4.68-25.56,9.4h0l-27,9.94-22.12,8.2-19.5,7.25-2,.75-2,.73L388.5,198a28.76,28.76,0,0,0-4.5-7.5q23.75-14.64,48-28.5a66,66,0,0,0-8.5-13q-24.09,12.92-47.5,27a18.59,18.59,0,0,1-6-6.5q44-37,88-74L447.5,83q-44,37.27-88.5,74a47.26,47.26,0,0,1-6-5.5q18.31-20.82,35.5-42.5a2.52,2.52,0,0,0,0-3,25.72,25.72,0,0,1-6.5-5.5,6.36,6.36,0,0,0-6-2q-17.14,21.27-35,42a2.52,2.52,0,0,1-3,0,8.4,8.4,0,0,1-4-4l.19-.33.07-.13.12-.21,1.05-1.88c.1-.2.22-.4.34-.61L336,133l.82-1.46.46-.81c.62-1.12,1.33-2.38,2.09-3.73l.58-1,2.38-4.23c1-1.81,2-3.52,2.88-5.12l1.92-3.41c1.21-2.15,2.28-4,3.17-5.6Q370.42,71.92,391,36.5A66.16,66.16,0,0,0,378,28q-21.45,36.21-42.68,72.56-3.69,6.3-7.37,12.6t-7.37,12.63L319,128.5a7,7,0,0,1-7-3.5q9.81-27.47,19-55a126.65,126.65,0,0,1-14.5-5q-10.23,28.16-21,56a46.57,46.57,0,0,1-7.5-3Q298.32,62.08,308,6a8,8,0,0,0-1-3.5,75.11,75.11,0,0,0-14-2Q282.35,57.61,272.5,115a20.12,20.12,0,0,1-8.5,1V56H248v60a20.1,20.1,0,0,1-8.5-1q-10-57-20-114a3.85,3.85,0,0,0-2-1A106.33,106.33,0,0,1,205,2.5,7.85,7.85,0,0,0,204,6q9.67,56.07,20,112a18.48,18.48,0,0,1-9,2q-9-27.73-19.5-55A127.32,127.32,0,0,1,181,70q8.83,27.44,19,54.5a4,4,0,0,1-1,2,14.34,14.34,0,0,0-5.5,2.5l-1.87-3.17q-4.77-8.11-9.54-16.19L134,28a65.57,65.57,0,0,0-13,8.5q23.06,39.86,45.87,79.93,4.69,8.28,9.41,16.55l1.72,3a10.34,10.34,0,0,1-7,4.5q-17.87-20.73-35-42a6.34,6.34,0,0,0-6,2,19,19,0,0,0-6.5,8.5q16.63,20.77,34,41a12.51,12.51,0,0,1-5,7l-88-74L54,95.5Q97.76,132,141,169a22.24,22.24,0,0,1-5.5,7q-23-14.28-47-27A65.57,65.57,0,0,0,80,162q23.75,13.62,47,28a19.28,19.28,0,0,1-5.42,6.93l-.08.07q-40.4-14.7-80.73-29.59Q29.39,163.23,18,159a64.59,64.59,0,0,0-6,14,3.71,3.71,0,0,0,1,1.5l104,38q-1.65,3.66-3,7.5c-.67.33-1.34.66-2,1q-24.56-4.32-49-9a67.73,67.73,0,0,0-4,16l49,8.5a3.63,3.63,0,0,1,2,2c-.59,3.38-1.26,6.72-2,10q-19.5.75-39,.5H0v16H512V249Q457.49,249.24,403,248.5ZM264,131.55a137.41,137.41,0,0,1,46.45,11.68q-11.76,20.27-23.35,40.48a71.69,71.69,0,0,0-23.1-6.59Zm-57,8.95a165.68,165.68,0,0,1,41-9.5v46.12a71.77,71.77,0,0,0-22.8,6.45q-11.69-20.3-23.54-40.62Q204.29,141.69,207,140.5ZM183.68,249H125a158.66,158.66,0,0,1,7.35-30.9c14,5.27,31.27,11.92,52.11,20.27A73.07,73.07,0,0,0,183.68,249Zm-45.21-45.56q15.89-32.38,48.17-52.32,11.91,20.87,23.89,41.69a72.59,72.59,0,0,0-22.28,30.88C165.29,214.25,149.31,207.77,138.47,203.44ZM198.68,249c0-1.62.07-3.23.21-4.82a53.81,53.81,0,0,1,1.12-7.44A57.32,57.32,0,0,1,313.32,249Zm102.93-56.07c10.95-19,18.64-32.37,23.9-41.53q25.62,16.29,44,45.6c1.26,2.22,2.46,4.46,3.58,6.72q-25,9.27-49.91,18.48A72.52,72.52,0,0,0,301.61,192.93ZM328.32,249a72.33,72.33,0,0,0-1.2-13.17c24.59-8.56,41.18-14.36,51.93-18.13A129.18,129.18,0,0,1,386,249Z"/></g><path class="cls-2" d="M402.19,209.44l-6.74,2.46-.44.16s0,0,0-.06Z"/><path class="cls-2" d="M455.56,190.51q-2.69,1-5.06,1.78Q453,191.38,455.56,190.51Z"/><path class="cls-2" d="M121.58,196.93l-.08.07q-40.4-14.7-80.73-29.59a.19.19,0,0,1,0-.07l7.8,2.87,8.4,3.1c25.33,9.32,25.4,9.2,38.87,14.22,4.57,1.7,11.35,4.25,21.09,7.75l4.55,1.62Z"/></g></g></svg>