<svg width="51" height="97" viewBox="0 0 51 97" fill="none" xmlns="http://www.w3.org/2000/svg">
<g clip-path="url(#clip0_21_1043)">
<g opacity="0.93">
<path fill-rule="evenodd" clip-rule="evenodd" d="M10.9717 77.252L10.8566 76.9349L12.3151 81.0319C11.8717 79.7713 11.3585 78.3295 10.9717 77.252Z" fill="#262728"/>
<path fill-rule="evenodd" clip-rule="evenodd" d="M3.1132 76.0518C3.82908 75.8866 4.55342 75.7606 5.28302 75.6744L6.98113 85.4875C8.01424 85.3589 9.02793 85.1054 10 84.7326C9.41132 81.6566 8.84528 78.5743 8.30188 75.4856L8.49056 74.9195C8.97338 74.7353 9.47622 74.6086 9.98867 74.5421C9.98867 74.5421 9.98867 74.5421 10 74.5421L10.483 75.8989L10.5358 76.0461L10.666 76.4047L10.7434 76.6198L10.8566 76.935L10.9717 77.252C11.3491 78.3296 11.8717 79.7713 12.3151 81.0263L12.4038 81.2754L12.5094 81.5736L12.6981 82.1397L12.8868 82.6681L12.9509 82.8568L12.9962 82.987L13.2849 83.8042L13.3321 83.9381L13.4245 84.2005L13.5094 84.442L13.5868 84.6628L13.7094 85.0119C13.8239 85.329 13.9358 85.6473 14.0453 85.9668L14.117 86.1725L14.2151 86.4518L14.6868 87.7898C15.4616 89.9776 16.2264 92.1667 16.9811 94.357C18.0487 94.1692 19.0722 93.7853 20 93.2248C19.4113 91.6157 18.8201 90.0078 18.2264 88.4012L16.3509 83.306L14.8038 79.1316L13.4358 75.4517L13.2943 75.0742L13.1566 74.6968L12.6415 73.3154C13.1537 73.1062 13.6309 72.8198 14.0566 72.4662C15.8981 75.4542 17.6906 78.4736 19.434 81.5245C20.3118 81.0882 21.1352 80.5498 21.8868 79.9204C20.2616 76.8897 18.5635 73.9017 16.7925 70.9565C17.1042 70.4859 17.5249 70.0974 18.0189 69.8242C22.673 75.3598 27.327 80.8954 31.9811 86.4311L34.3396 84.4496C29.6516 78.9139 24.9975 73.3469 20.3774 67.7484C20.6901 67.3418 21.0373 66.963 21.4151 66.6161C24.034 68.9196 26.7069 71.1528 29.434 73.3154C29.5159 73.3761 29.6151 73.4089 29.717 73.4089C29.8189 73.4089 29.9181 73.3761 30 73.3154C30.2754 72.8517 30.6261 72.4372 31.0377 72.0888C31.1939 71.9494 31.3109 71.7715 31.3771 71.5729C31.4433 71.3743 31.4564 71.1618 31.4151 70.9565C28.7396 68.8001 26.0981 66.5985 23.4906 64.3515C23.4299 64.2696 23.3972 64.1704 23.3972 64.0684C23.3972 63.9665 23.4299 63.8673 23.4906 63.7854C23.6473 63.454 23.914 63.1873 24.2453 63.0305L24.3075 63.0664L24.3321 63.0796L24.3717 63.1022L24.7264 63.3004C24.7641 63.3192 24.8019 63.3419 24.8415 63.3645L24.9057 63.4079L25.1811 63.5627L25.334 63.6495C25.5453 63.7665 25.783 63.9005 26.0377 64.0439L26.2264 64.1534L27.0245 64.6025C27.366 64.7912 27.6887 64.9799 27.9906 65.146L28.634 65.5083C29.0396 65.7367 29.3887 65.9386 29.6906 66.1065C34.1836 68.6378 38.6579 71.1981 43.1132 73.7872C43.7422 73.0353 44.2805 72.2118 44.717 71.3339C40.1623 68.6353 35.5987 65.9505 31.0264 63.2796C30.234 62.8154 29.4415 62.3518 28.6491 61.8888C27.8566 61.4258 27.0623 60.9622 26.266 60.498L25.7547 60.1998C25.7207 59.9389 25.7654 59.6737 25.8831 59.4384C26.0007 59.203 26.186 59.0082 26.4151 58.8788C29.8704 60.113 33.3296 61.3082 36.7925 62.4644C37.0514 61.534 37.3664 60.6202 37.7358 59.728C34.1937 58.441 30.6717 57.12 27.1698 55.765C27.3171 55.2777 27.5065 54.8042 27.7358 54.3497C34.7698 55.648 41.8138 56.9061 48.8679 58.1239C49.0996 58.1126 49.3256 58.0481 49.5283 57.9352C49.7369 57.0684 49.8632 56.1838 49.9057 55.2932C42.722 53.9534 35.5208 52.6638 28.3019 51.4246C28.1247 50.9096 28.0604 50.3626 28.1132 49.8205L39.434 49.8205L39.434 46.8011L28.1132 46.8011C28.0602 46.2591 28.1246 45.712 28.3019 45.197C35.4717 43.9389 42.6415 42.6808 49.8113 41.4227C49.9102 41.3184 49.9758 41.187 50 41.0453C49.7957 40.2691 49.6382 39.4814 49.5283 38.6864C49.326 38.5726 49.0998 38.508 48.8679 38.4977C41.8151 39.7143 34.7711 40.9723 27.7358 42.272C27.4686 41.7468 27.3388 41.1625 27.3585 40.5735C30.8465 39.4412 34.3057 38.2146 37.7358 36.8936C37.3667 36.0013 37.0517 35.0875 36.7925 34.1573C33.3409 35.2681 29.9132 36.4633 26.5094 37.7428C26.3683 37.7171 26.2374 37.6516 26.1321 37.5541C26.0503 37.1786 25.8895 36.8247 25.6604 36.5162L26.2585 36.1633C27.2786 35.5632 28.2969 34.9631 29.3132 34.3629L44.717 25.2877C44.2815 24.4093 43.7431 23.5857 43.1132 22.8344C38.0994 25.7356 33.0723 28.621 28.0321 31.4907C26.9906 32.0808 25.9497 32.6727 24.9094 33.2665L24.3434 33.5911C24.1181 33.4418 23.9263 33.2472 23.7801 33.0198C23.634 32.7924 23.5367 32.5371 23.4943 32.2701C26.1019 30.0219 28.7434 27.8202 31.4189 25.6651C31.4606 25.4599 31.4477 25.2473 31.3814 25.0486C31.3152 24.8498 31.198 24.672 31.0415 24.5328C30.6354 23.9787 30.0788 23.553 29.4377 23.3062C26.8252 25.3984 24.2465 27.5372 21.7019 29.7225C21.164 29.574 20.696 29.2397 20.3811 28.7789L34.3434 12.1721L31.9811 10.1906C27.3899 15.696 22.7673 21.1687 18.1132 26.6087C17.6075 26.3553 17.1583 26.0022 16.7925 25.5708C18.5887 22.6771 20.2868 19.7206 21.8868 16.7012C21.1356 16.0712 20.3122 15.5327 19.434 15.0971C17.7208 18.0851 15.9597 21.0416 14.1509 23.9667C13.6421 23.7311 13.1946 23.381 12.8434 22.9439L12.8302 22.9288C14.6792 17.8461 16.5402 12.7678 18.4132 7.69387C18.939 6.26216 19.4679 4.82982 20 3.39685C19.1672 2.91654 18.2806 2.53647 17.3585 2.26457C17.2501 2.30324 17.1529 2.36806 17.0755 2.45328L9.90566 22.0795C9.44528 21.872 8.97358 21.6832 8.49057 21.5134C8.4283 21.387 8.36603 21.2605 8.30189 21.136C8.84528 18.0461 9.41132 14.9638 10 11.889C9.02821 11.5153 8.01441 11.2618 6.98113 11.1341L5.37736 20.3811C5.34291 20.4661 5.29176 20.5433 5.22694 20.6081C5.16212 20.6729 5.08495 20.7241 5 20.7585C4.36226 20.6472 3.73207 20.5208 3.1132 20.3811C3.01887 17.9278 2.98742 15.4746 3.01887 13.0213L3.01887 -2.05361e-06L0 -2.18557e-06L-4.22347e-06 96.6216L3.01886 96.6216C2.98867 89.7637 3.02012 82.9071 3.1132 76.0518ZM25.1792 49.8205C24.9634 52.849 24.2175 55.8159 22.9755 58.5863C20.4258 57.1068 17.8799 55.6379 15.3377 54.1798C15.9944 52.807 16.4148 51.3332 16.5811 49.8205L25.1792 49.8205ZM23.4906 39.0638C24.4145 41.5562 25.0168 44.1563 25.283 46.8011L16.5811 46.8011C16.4166 45.3093 16.0054 43.8553 15.3641 42.4984C17.9176 41.0277 20.4723 39.5469 23.0283 38.0561C23.1868 38.387 23.3409 38.7229 23.4906 39.0638ZM3.01887 34.663L3.01887 23.5893C5.00376 23.8554 6.95693 24.3201 8.84906 24.9763C7.85471 27.6183 6.6 30.8774 5.02453 34.8102C4.36045 34.7124 3.69011 34.6632 3.01887 34.663ZM11.6151 26.1312C15.688 28.1304 18.9786 31.1605 21.4868 35.2216C18.8616 36.72 16.2396 38.2228 13.6208 39.73C12.0873 37.8349 10.0759 36.3834 7.79434 35.5254C9.57547 31.1926 10.7981 28.1769 11.6151 26.1312ZM3.01887 37.4937C3.32453 37.4937 3.6283 37.5069 3.9283 37.5333C4.40058 37.571 4.86965 37.6416 5.33207 37.7447C7.93659 38.3159 10.2384 39.8292 11.7954 41.9941C13.3524 44.1591 14.055 46.823 13.7682 49.4744C13.4813 52.1258 12.2254 54.5778 10.2414 56.3595C8.25738 58.1413 5.68525 59.1272 3.01886 59.1279L3.01887 37.4937ZM13.5981 56.9181C17.183 58.9845 19.7057 60.4357 21.434 61.4283C19.3849 64.6516 16.517 67.4194 12.8302 69.7317C12.4113 69.9695 11.9887 70.196 11.5623 70.4073C10.3962 67.2621 9.23396 64.1225 8.07547 60.9886C10.2321 60.1228 12.1327 58.7219 13.5981 56.9181ZM3.01886 61.9586C3.85234 61.9592 4.68412 61.8834 5.50377 61.7322C7.11886 66.3726 8.2132 69.5034 8.92453 71.5321C7.01806 72.2129 5.03423 72.6534 3.01886 72.8436L3.01886 61.9586Z" fill="#262728"/>
</g>
<path fill-rule="evenodd" clip-rule="evenodd" d="M10.483 75.8989L10.0189 74.627L9.98866 74.5439C9.98866 74.5439 9.98866 74.5439 9.99998 74.5439L10.483 75.8989Z" fill="#262728"/>
<path fill-rule="evenodd" clip-rule="evenodd" d="M14.0547 85.9706C13.9289 85.6322 13.817 85.3139 13.7189 85.0157C13.8333 85.3303 13.9453 85.6486 14.0547 85.9706Z" fill="#262728"/>
<path fill-rule="evenodd" clip-rule="evenodd" d="M12.8434 22.9438L12.8302 22.9287C14.6793 17.846 16.5403 12.7677 18.4132 7.69385C18.4176 7.69303 18.4221 7.69303 18.4264 7.69385L17.8849 9.16582L17.3 10.751C15.5415 15.5311 15.5642 15.5444 14.617 18.0863C14.2962 18.9488 13.8151 20.2282 13.1547 22.0663L12.8491 22.925L12.8434 22.9438Z" fill="#262728"/>
</g>
<defs>
<clipPath id="clip0_21_1043">
<rect width="96.6216" height="50" fill="white" transform="translate(50) rotate(90)"/>
</clipPath>
</defs>
</svg>
