<svg xmlns="http://www.w3.org/2000/svg" viewBox="0 0 512 514"><defs><style>.cls-1{opacity:0.93;isolation:isolate;}.cls-2{fill-rule:evenodd;}</style></defs><title>logo_sun</title><g id="Calque_2" data-name="Calque 2"><g id="Sources"><g class="cls-1"><path class="cls-2" d="M264,89V70Q263.88,79.51,264,89Z"/></g><g class="cls-1"><path class="cls-2" d="M512,249H458.88Q485.43,249.12,512,249ZM88,249H69Q78.51,249.12,88,249Z"/><path class="cls-2" d="M248,398v60h16V398a20.1,20.1,0,0,1,8.5,1q10,57,20,114a3.85,3.85,0,0,0,2,1,106.33,106.33,0,0,1,12.5-2.5,7.85,7.85,0,0,0,1-3.5q-9.67-56.07-20-112a18.48,18.48,0,0,1,9-2q9,27.74,19.5,55a127.32,127.32,0,0,1,14.5-5q-8.83-27.44-19-54.5a4,4,0,0,1,1-2,14.34,14.34,0,0,0,5.5-2.5l1.87,3.17q4.77,8.11,9.54,16.19L378,486a65.57,65.57,0,0,0,13-8.5q-23.06-39.86-45.87-79.93-4.69-8.28-9.41-16.55L334,378a10.34,10.34,0,0,1,7-4.5q17.87,20.73,35,42a6.34,6.34,0,0,0,6-2,19,19,0,0,0,6.5-8.5q-16.63-20.78-34-41a12.51,12.51,0,0,1,5-7l88,74L458,418.5Q414.25,382,371,345a22.24,22.24,0,0,1,5.5-7q23,14.28,47,27a65.57,65.57,0,0,0,8.5-13q-23.75-13.62-47-28a19.28,19.28,0,0,1,5.42-6.93l.08-.07q40.39,14.7,80.73,29.59Q482.62,350.78,494,355a64.59,64.59,0,0,0,6-14,3.71,3.71,0,0,0-1-1.5l-104-38q1.65-3.66,3-7.5l2-1q24.56,4.32,49,9a67.73,67.73,0,0,0,4-16l-49-8.5a3.63,3.63,0,0,1-2-2c.59-3.38,1.26-6.72,2-10q10-.39,20-.5,9.5-.12,19,0h69V249q-26.56.12-53.12,0-27.94-.1-55.88-.5a107.07,107.07,0,0,1-2-11.5l52-9a68.22,68.22,0,0,0-4-16q-24.45,4.68-49,9l-3-1a34.87,34.87,0,0,1-2-7.94s0,0,0-.06l7.19-2.56.78-.28,1.9-.69,1.14-.41,1.67-.6,1.68-.61,1.91-.68,2-.72,7.27-2.59,1.72-.61,4.57-1.62,2.54-.9,1.32-.47,1.58-.56,3-1,2.8-1,1-.34h0l.69-.24,4.33-1.53.71-.25,1.39-.49,1.28-.45,1.17-.41,1.85-.65q2.52-.91,5.06-1.78l1.09-.38,1.48-.52,7.09-2.5Q482.59,181,500,175a46.54,46.54,0,0,0-6-16q-12.79,4.68-25.56,9.4h0l-27,9.94-22.12,8.2-19.5,7.25-2,.75-2,.73L388.5,198a28.76,28.76,0,0,0-4.5-7.5q23.75-14.64,48-28.5a66,66,0,0,0-8.5-13q-24.09,12.92-47.5,27a18.59,18.59,0,0,1-6-6.5q44-37,88-74L447.5,83q-44,37.27-88.5,74a47.26,47.26,0,0,1-6-5.5q18.31-20.82,35.5-42.5a2.52,2.52,0,0,0,0-3,25.72,25.72,0,0,1-6.5-5.5,6.36,6.36,0,0,0-6-2q-17.14,21.27-35,42a2.52,2.52,0,0,1-3,0,8.4,8.4,0,0,1-4-4l.19-.33.07-.13.12-.21,1.05-1.88c.1-.2.22-.4.34-.61L336,133l.82-1.46.46-.81c.62-1.12,1.33-2.38,2.09-3.73l.58-1,2.38-4.23c1-1.81,2-3.52,2.88-5.12l1.92-3.41c1.21-2.15,2.28-4,3.17-5.6Q370.42,71.92,391,36.5A66.16,66.16,0,0,0,378,28q-21.45,36.21-42.68,72.56-3.69,6.3-7.37,12.6t-7.37,12.63L319,128.5a7,7,0,0,1-7-3.5q9.81-27.47,19-55a126.65,126.65,0,0,1-14.5-5q-10.23,28.16-21,56a46.57,46.57,0,0,1-7.5-3Q298.32,62.08,308,6a8,8,0,0,0-1-3.5,75.11,75.11,0,0,0-14-2Q282.35,57.61,272.5,115a20.12,20.12,0,0,1-8.5,1V56H248v60a20.1,20.1,0,0,1-8.5-1q-10-57-20-114a3.85,3.85,0,0,0-2-1A106.33,106.33,0,0,1,205,2.5,7.85,7.85,0,0,0,204,6q9.67,56.07,20,112a18.48,18.48,0,0,1-9,2q-9-27.73-19.5-55A127.32,127.32,0,0,1,181,70q8.83,27.44,19,54.5a4,4,0,0,1-1,2,14.34,14.34,0,0,0-5.5,2.5l-1.87-3.17q-4.77-8.11-9.54-16.19L134,28a65.57,65.57,0,0,0-13,8.5q23.06,39.86,45.87,79.93,4.69,8.28,9.41,16.55l1.72,3a10.34,10.34,0,0,1-7,4.5q-17.87-20.73-35-42a6.34,6.34,0,0,0-6,2,19,19,0,0,0-6.5,8.5q16.63,20.77,34,41a12.51,12.51,0,0,1-5,7l-88-74L54,95.5Q97.76,132,141,169a22.24,22.24,0,0,1-5.5,7q-23-14.28-47-27A65.57,65.57,0,0,0,80,162q23.75,13.62,47,28a19.28,19.28,0,0,1-5.42,6.93l-.08.07q-40.4-14.7-80.73-29.59Q29.39,163.23,18,159a64.59,64.59,0,0,0-6,14,3.71,3.71,0,0,0,1,1.5l104,38q-1.65,3.66-3,7.5c-.67.33-1.34.66-2,1q-24.56-4.32-49-9a67.73,67.73,0,0,0-4,16l49,8.5a3.63,3.63,0,0,1,2,2c-.59,3.38-1.26,6.72-2,10q-10,.39-20,.5-9.5.12-19,0H0v16q26.57-.12,53.12,0,27.95.11,55.88.5a107.07,107.07,0,0,1,2,11.5l-52,9a68.22,68.22,0,0,0,4,16q24.45-4.68,49-9l3,1a34.87,34.87,0,0,1,2,7.94s0,0,0,.06l-7.19,2.56-.78.28-1.9.69-1.14.41-1.67.6-1.68.61-1.91.68-2,.72-7.27,2.59-1.72.61-4.57,1.62-2.54.9-1.32.47-1.58.56-3,1.05-2.8,1-1,.34h0l-.69.24-4.33,1.53-.71.25-1.39.49-1.28.45-1.17.41-1.85.65q-2.52.92-5.06,1.78l-1.09.38-1.48.52-7.09,2.5Q29.41,333,12,339a46.54,46.54,0,0,0,6,16q12.8-4.68,25.56-9.4h0l27-9.94,22.12-8.2,19.5-7.25,2-.75,2-.73L123.5,316a28.76,28.76,0,0,0,4.5,7.5Q104.26,338.14,80,352a66,66,0,0,0,8.5,13q24.09-12.92,47.5-27a18.59,18.59,0,0,1,6,6.5q-44,37-88,74L64.5,431q44-37.28,88.5-74a47.26,47.26,0,0,1,6,5.5q-18.31,20.82-35.5,42.5a2.52,2.52,0,0,0,0,3,25.72,25.72,0,0,1,6.5,5.5,6.36,6.36,0,0,0,6,2q17.15-21.27,35-42a2.52,2.52,0,0,1,3,0,8.4,8.4,0,0,1,4,4l-.19.33-.07.13-.12.21-1.05,1.88c-.1.2-.22.4-.34.61l-.18.33-.82,1.46-.46.81c-.62,1.12-1.33,2.38-2.09,3.73l-.58,1-2.38,4.23c-1,1.81-2,3.52-2.88,5.12l-1.92,3.41c-1.21,2.15-2.28,4-3.17,5.6Q141.58,442.08,121,477.5a66.16,66.16,0,0,0,13,8.5q21.45-36.21,42.68-72.56,3.69-6.3,7.37-12.6t7.37-12.63L193,385.5a7,7,0,0,1,7,3.5q-9.81,27.47-19,55a126.65,126.65,0,0,1,14.5,5q10.23-28.15,21-56a46.57,46.57,0,0,1,7.5,3q-10.32,55.92-20,112a8,8,0,0,0,1,3.5,75.11,75.11,0,0,0,14,2Q229.65,456.4,239.5,399A20.12,20.12,0,0,1,248,398Zm125.53-87.44q-15.88,32.38-48.17,52.32Q313.45,342,301.47,321.19a72.59,72.59,0,0,0,22.28-30.88C346.71,299.75,362.69,306.23,373.53,310.56ZM387,265a158.66,158.66,0,0,1-7.35,30.9c-14-5.27-31.27-11.92-52.11-20.27a73.07,73.07,0,0,0,.78-10.63Zm-1-16H328.32a72.33,72.33,0,0,0-1.2-13.17c24.59-8.56,41.18-14.36,51.93-18.13A129.18,129.18,0,0,1,386,249Zm-16.5-52c1.26,2.22,2.46,4.46,3.58,6.72q-25,9.27-49.91,18.48a72.52,72.52,0,0,0-21.56-29.27c10.95-19,18.64-32.37,23.9-41.53Q351.13,167.69,369.5,197Zm-59.05-53.77q-11.76,20.27-23.35,40.48a71.69,71.69,0,0,0-23.1-6.59V131.55A137.41,137.41,0,0,1,310.45,143.23ZM201.66,143q2.63-1.26,5.34-2.45a165.68,165.68,0,0,1,41-9.5v46.12a71.77,71.77,0,0,0-22.8,6.45Q213.52,163.27,201.66,143Zm-63.19,60.49q15.89-32.38,48.17-52.32,11.91,20.87,23.89,41.69a72.59,72.59,0,0,0-22.28,30.88C165.29,214.25,149.31,207.77,138.47,203.44ZM125,249a158.66,158.66,0,0,1,7.35-30.9c14,5.27,31.27,11.92,52.11,20.27a73.07,73.07,0,0,0-.78,10.63Zm71.07,7.79a74,74,0,0,1,.41-7.79c3.47-33,28.74-58.53,59.39-58.53S311.8,216,315.27,249a74,74,0,0,1,.41,7.79,71.71,71.71,0,0,1-.46,8.21,70.43,70.43,0,0,1-8.79,27.23l-.21.38a57.68,57.68,0,0,1-11,14.15,56.38,56.38,0,0,1-39.34,16.35c-30.52,0-55.7-25.36-59.34-58.11A71.71,71.71,0,0,1,196.07,256.79ZM126,265h57.68a72.33,72.33,0,0,0,1.2,13.17c-24.59,8.56-41.18,14.36-51.93,18.13A129.18,129.18,0,0,1,126,265Zm16.5,52c-1.26-2.22-2.46-4.46-3.58-6.72q25-9.27,49.91-18.48a72.52,72.52,0,0,0,21.56,29.27c-10.95,19-18.64,32.37-23.9,41.53Q160.87,346.31,142.5,317Zm59.05,53.77q11.76-20.26,23.35-40.48a71.69,71.69,0,0,0,23.1,6.59v45.57A137.41,137.41,0,0,1,201.55,370.77ZM264,336.88a71.77,71.77,0,0,0,22.8-6.45q11.68,20.29,23.54,40.62-2.62,1.26-5.34,2.45a165.68,165.68,0,0,1-41,9.5Z"/></g></g></g></svg>