<svg width="47" height="47" viewBox="0 0 47 47" fill="none" xmlns="http://www.w3.org/2000/svg">
<g clip-path="url(#clip0_24_2193)">
<g opacity="0.93">
<path fill-rule="evenodd" clip-rule="evenodd" d="M23.9147 8.07913V6.35437C23.9074 6.9299 23.9074 7.50482 23.9147 8.07913Z" fill="#262728"/>
</g>
<g opacity="0.93">
<path fill-rule="evenodd" clip-rule="evenodd" d="M46.38 22.6035H41.5681C43.1714 22.6108 44.7754 22.6108 46.38 22.6035ZM7.97156 22.6035H6.25043C6.82474 22.6108 7.39845 22.6108 7.97156 22.6035Z" fill="#262728"/>
<path fill-rule="evenodd" clip-rule="evenodd" d="M22.4653 36.1293V41.5759H23.9147V36.1293C24.1749 36.1038 24.4375 36.1347 24.6847 36.22C25.2886 39.6696 25.8925 43.1191 26.4964 46.5686C26.5465 46.6162 26.6095 46.6478 26.6776 46.6594C27.0501 46.5611 27.4283 46.4853 27.8099 46.4325C27.8645 46.3351 27.8955 46.2263 27.9005 46.1147C27.3165 42.7215 26.7126 39.3325 26.0888 35.9477C26.3408 35.8191 26.6213 35.7567 26.904 35.7662C27.4475 37.4449 28.0363 39.1092 28.6705 40.7589C29.0988 40.5813 29.5374 40.4297 29.9839 40.305C29.4507 38.6444 28.877 36.9953 28.2628 35.3577C28.2752 35.2897 28.3066 35.2268 28.3534 35.1761C28.5337 35.1368 28.7035 35.0594 28.8516 34.9492L29.021 35.2369C29.3091 35.7277 29.5971 36.2176 29.8852 36.7066L34.2415 44.1176C34.6631 43.9081 35.0585 43.6491 35.4191 43.346C34.0265 40.9338 32.6414 38.5152 31.2639 36.0902C30.9807 35.5891 30.6966 35.0884 30.4115 34.5879L30.2557 34.3137C30.3274 34.2053 30.4208 34.113 30.5299 34.0427C30.6391 33.9724 30.7616 33.9256 30.8898 33.9052C31.969 35.1598 33.0258 36.4306 34.0603 37.7179C34.1588 37.7379 34.2609 37.7317 34.3563 37.6998C34.4517 37.668 34.537 37.6116 34.6038 37.5363C34.8698 37.3409 35.0742 37.0731 35.1926 36.7647C34.1883 35.5071 33.1617 34.2665 32.1127 33.0428C32.184 32.784 32.3445 32.5589 32.5656 32.4074L40.5372 39.1249L41.4884 37.9902C38.8463 35.7813 36.2193 33.5572 33.6074 31.3181C33.729 31.0748 33.8985 30.8586 34.1056 30.6826C35.4946 31.5468 36.9138 32.3638 38.3631 33.1336C38.6656 32.7722 38.924 32.3761 39.1331 31.9535C37.6988 31.1293 36.2797 30.282 34.8756 29.4118C34.9887 29.167 35.1567 28.9517 35.3666 28.7827L35.3738 28.7763C37.813 29.6659 40.2507 30.5613 42.6868 31.4624C43.3747 31.716 44.0622 31.9705 44.7495 32.2258C44.98 31.8252 45.1625 31.3986 45.293 30.955C45.2744 30.9028 45.2433 30.856 45.2024 30.8188L35.7814 27.3693C35.8811 27.1478 35.9717 26.9208 36.0532 26.6884L36.2344 26.5977C37.7176 26.8591 39.1971 27.1314 40.6731 27.4147C40.8525 26.9471 40.9741 26.4594 41.0354 25.9622L36.5967 25.1906C36.5559 25.1741 36.5189 25.1494 36.4878 25.1183C36.4566 25.0871 36.4321 25.0499 36.4155 25.0091C36.469 24.7022 36.5297 24.3991 36.5967 24.1013C37.2006 24.0777 37.8045 24.0626 38.4084 24.0559C38.9822 24.0487 39.5559 24.0487 40.1296 24.0559H46.38V22.6035C44.776 22.6107 43.1721 22.6107 41.5681 22.6035C39.8808 22.5974 38.1934 22.5823 36.5061 22.5581C36.4268 22.2137 36.3664 21.8652 36.325 21.5142L41.0354 20.6972C40.9737 20.2001 40.852 19.7124 40.6731 19.2447C39.1965 19.528 37.717 19.8003 36.2344 20.0617L35.9626 19.9709C35.8742 19.7387 35.8134 19.4967 35.7814 19.2502C35.7814 19.2502 35.7814 19.2502 35.7814 19.2447L36.4328 19.0123L36.5034 18.9869L36.6755 18.9243L36.7788 18.8871L36.9301 18.8326L37.0823 18.7772L37.2553 18.7155L37.4365 18.6501L38.095 18.415L38.2508 18.3597L38.6648 18.2126L38.8949 18.1309L39.0145 18.0882L39.1576 18.0374L39.4293 17.9466L39.683 17.8558L39.7736 17.825L39.8361 17.8032L40.2283 17.6643L40.2926 17.6416L40.4185 17.5971L40.5345 17.5563L40.6405 17.5191L40.8081 17.4601C40.9602 17.405 41.113 17.3511 41.2664 17.2985L41.3652 17.264L41.4992 17.2168L42.1415 16.9898C43.1911 16.617 44.2416 16.2491 45.293 15.886C45.2028 15.3724 45.0185 14.8799 44.7495 14.4335C43.9771 14.7168 43.2053 15.0012 42.4341 15.2869L39.9883 16.1892L37.9845 16.9335L36.2181 17.5917L36.0369 17.6598L35.8557 17.726L35.1926 17.9739C35.0922 17.7274 34.9547 17.4978 34.785 17.293C36.2193 16.407 37.6687 15.5447 39.1331 14.7059C38.9237 14.2835 38.6653 13.8874 38.3631 13.5258C36.9083 14.3077 35.4741 15.1247 34.0603 15.9768C33.8344 15.8268 33.648 15.6244 33.5168 15.3867C36.174 13.1475 38.8312 10.9084 41.4884 8.66921L40.5372 7.53449C37.88 9.79 35.2077 12.0292 32.5204 14.252C32.3252 14.1015 32.1433 13.9345 31.9768 13.7527C33.0826 12.4927 34.1545 11.2067 35.1926 9.8947C35.2218 9.8553 35.2375 9.80756 35.2375 9.75853C35.2375 9.7095 35.2218 9.66177 35.1926 9.62237C34.9701 9.48988 34.7711 9.32114 34.6038 9.12309C34.5369 9.04795 34.4515 8.99166 34.3562 8.95981C34.2608 8.92796 34.1588 8.92166 34.0603 8.94154C33.0252 10.2288 31.9684 11.4996 30.8898 12.7542C30.8505 12.7834 30.8029 12.7991 30.7539 12.7991C30.705 12.7991 30.6574 12.7834 30.618 12.7542C30.459 12.6788 30.331 12.5504 30.2557 12.3911L30.2729 12.3611L30.2793 12.3493L30.2901 12.3302L30.3852 12.1596C30.3943 12.1414 30.4052 12.1233 30.416 12.1042L30.4369 12.0733L30.5112 11.9408L30.5528 11.8673C30.609 11.7656 30.6733 11.6512 30.7421 11.5287L30.7947 11.4379L31.0103 11.0539C31.1009 10.8896 31.1915 10.7344 31.2712 10.5891L31.4451 10.2796C31.5547 10.0844 31.6516 9.91648 31.7323 9.77124C32.9473 7.60954 34.1763 5.45691 35.4191 3.31336C35.0582 3.01072 34.6629 2.75173 34.2415 2.54176C32.9461 4.73311 31.6574 6.92871 30.3753 9.12854C30.1524 9.5098 29.9299 9.89107 29.7077 10.2723C29.4854 10.6536 29.2629 11.0358 29.04 11.4188L28.8969 11.6648C28.7717 11.6812 28.6444 11.6597 28.5314 11.6031C28.4184 11.5465 28.3249 11.4574 28.2628 11.3471C28.8552 9.6847 29.429 8.02045 29.9839 6.35439C29.5374 6.22983 29.0987 6.07826 28.6705 5.90051C28.0527 7.6047 27.4186 9.2992 26.7681 10.984C26.5342 10.9131 26.3069 10.822 26.0888 10.7117C26.712 7.32752 27.3159 3.93851 27.9005 0.544662C27.895 0.433187 27.864 0.324467 27.8099 0.226943C27.3938 0.126589 26.9692 0.0658017 26.5417 0.0453885C25.8985 3.50157 25.2795 6.96623 24.6847 10.4394C24.4375 10.5246 24.1749 10.5556 23.9147 10.5301V5.08351H22.4653V10.5301C22.2051 10.5556 21.9425 10.5247 21.6953 10.4394C21.0914 6.98983 20.4875 3.5403 19.8836 0.090777C19.8335 0.043223 19.7705 0.0116313 19.7024 0C19.3299 0.0982727 18.9517 0.174056 18.5701 0.226943C18.5155 0.324274 18.4845 0.433106 18.4795 0.544662C19.0635 3.93791 19.6674 7.32692 20.2913 10.7117C20.0392 10.8403 19.7587 10.9027 19.476 10.8932C18.9325 9.21508 18.3437 7.55083 17.7096 5.90051C17.2812 6.07812 16.8426 6.22969 16.3961 6.35439C16.9293 8.01501 17.503 9.66412 18.1172 11.3017C18.1048 11.3697 18.0734 11.4326 18.0266 11.4833C17.8463 11.5226 17.6765 11.6 17.5284 11.7102L17.359 11.4225C17.0709 10.9317 16.7829 10.4418 16.4948 9.9528L12.1385 2.54176C11.7169 2.7513 11.3215 3.01031 10.9609 3.31336C12.3535 5.72561 13.7386 8.14421 15.1161 10.5692C15.3993 11.0703 15.6834 11.571 15.9685 12.0715L16.1243 12.3439C16.0526 12.4523 15.9592 12.5445 15.8501 12.6149C15.7409 12.6852 15.6184 12.732 15.4902 12.7524C14.411 11.4978 13.3542 10.2269 12.3197 8.93972C12.2212 8.91966 12.1191 8.92587 12.0237 8.95773C11.9283 8.98959 11.843 9.04599 11.7762 9.12128C11.5102 9.31664 11.3058 9.58446 11.1874 9.89288C12.1917 11.1498 13.2183 12.3905 14.2673 13.6147C14.196 13.8735 14.0355 14.0987 13.8144 14.2502L5.84279 7.53268L4.89164 8.66921C7.53433 10.8781 10.1613 13.1022 12.7726 15.3413C12.651 15.5846 12.4815 15.8008 12.2744 15.9768C10.8854 15.1126 9.46623 14.2956 8.01686 13.5258C7.71445 13.8872 7.45597 14.2833 7.24688 14.7059C8.68115 15.5301 10.1003 16.3774 11.5044 17.2476C11.3913 17.4924 11.2233 17.7077 11.0134 17.8767L11.0062 17.8831C8.56641 16.9935 6.12874 16.0981 3.69319 15.197C3.00594 14.944 2.3184 14.6895 1.63055 14.4335C1.39999 14.8342 1.21755 15.2608 1.08703 15.7044C1.1056 15.7566 1.13671 15.8034 1.17762 15.8406L10.5986 19.2901C10.4989 19.5116 10.4083 19.7386 10.3268 19.9709C10.2661 20.0009 10.2054 20.0309 10.1456 20.0617C8.66243 19.8003 7.18286 19.528 5.70691 19.2447C5.52754 19.7123 5.40586 20.2 5.34457 20.6972L9.78328 21.4688C9.82407 21.4853 9.86112 21.51 9.89224 21.5411C9.92336 21.5723 9.94792 21.6095 9.96445 21.6503C9.91101 21.9571 9.85032 22.2603 9.78328 22.5581C9.17938 22.5817 8.57547 22.5968 7.97156 22.6035C7.39785 22.6107 6.82414 22.6107 6.25043 22.6035H0V24.0559C1.60458 24.0487 3.20855 24.0487 4.81192 24.0559C6.49984 24.0626 8.18716 24.0777 9.87387 24.1013C9.95316 24.4457 10.0136 24.7942 10.055 25.1452L5.34457 25.9622C5.40629 26.4593 5.52796 26.947 5.70691 27.4147C7.18347 27.1314 8.66304 26.8591 10.1456 26.5977L10.4174 26.6884C10.5058 26.9207 10.5666 27.1627 10.5986 27.4092C10.5986 27.4092 10.5986 27.4092 10.5986 27.4147L9.94724 27.6471L9.87659 27.6725L9.70447 27.7351L9.6012 27.7723L9.44993 27.8268L9.29774 27.8822L9.12472 27.9439L8.94355 28.0093L8.28499 28.2444L8.12918 28.2997L7.7152 28.4468L7.48512 28.5285L7.36554 28.5712L7.22242 28.622L6.95066 28.7173L6.69702 28.8081L6.60643 28.839L6.54393 28.8607L6.15169 28.9996L6.08737 29.0223L5.96146 29.0668L5.84551 29.1077L5.73953 29.1449L5.57194 29.2039C5.41976 29.2596 5.26697 29.3134 5.11358 29.3655L5.01484 29.4L4.88077 29.4472L4.23852 29.6741C3.18893 30.0439 2.13843 30.4103 1.08703 30.7734C1.1772 31.287 1.36147 31.7795 1.63055 32.2258C2.40355 31.9426 3.17534 31.6582 3.94592 31.3725L6.39174 30.4702L8.3955 29.7258L10.1619 29.0677L10.3431 28.9996L10.5243 28.9334L11.1874 28.6855C11.2878 28.932 11.4253 29.1616 11.595 29.3664C10.1613 30.2524 8.71195 31.1147 7.24688 31.9535C7.45629 32.3759 7.71474 32.772 8.01686 33.1336C9.47167 32.3517 10.9059 31.5347 12.3197 30.6826C12.5456 30.8326 12.732 31.035 12.8632 31.2727C10.206 33.5119 7.54883 35.751 4.89164 37.9902L5.84279 39.1249C8.49998 36.8688 11.1723 34.6296 13.8596 32.4074C14.0548 32.5579 14.2367 32.7249 14.4032 32.9067C13.2974 34.1667 12.2255 35.4527 11.1874 36.7647C11.1582 36.8041 11.1425 36.8518 11.1425 36.9009C11.1425 36.9499 11.1582 36.9976 11.1874 37.037C11.41 37.1695 11.6089 37.3383 11.7762 37.5363C11.8431 37.6114 11.9285 37.6677 12.0238 37.6996C12.1192 37.7314 12.2212 37.7377 12.3197 37.7179C13.3554 36.4306 14.4122 35.1598 15.4902 33.9052C15.5295 33.876 15.5771 33.8603 15.6261 33.8603C15.675 33.8603 15.7226 33.876 15.762 33.9052C15.921 33.9806 16.049 34.109 16.1243 34.2683L16.1071 34.2983L16.1007 34.3101L16.0899 34.3292L15.9948 34.4998C15.9857 34.518 15.9748 34.5361 15.964 34.5552L15.9477 34.5851L15.8734 34.7177L15.8317 34.7912C15.7755 34.8929 15.7112 35.0073 15.6424 35.1298L15.5898 35.2206L15.3742 35.6046C15.2837 35.7689 15.1931 35.9241 15.1134 36.0693L14.9394 36.3789C14.8298 36.5741 14.7329 36.742 14.6523 36.8872C13.4342 39.0496 12.2037 41.2025 10.9609 43.346C11.3218 43.6487 11.7171 43.9077 12.1385 44.1176C13.4339 41.9263 14.7226 39.7307 16.0047 37.5309C16.2276 37.1496 16.4501 36.7683 16.6723 36.3871C16.8946 36.0058 17.1171 35.6236 17.34 35.2406L17.4831 34.9945C17.6083 34.9782 17.7356 34.9997 17.8486 35.0563C17.9616 35.1129 18.0551 35.202 18.1172 35.3123C17.5248 36.9747 16.951 38.6389 16.3961 40.305C16.8426 40.4296 17.2813 40.5811 17.7096 40.7589C18.3273 39.0553 18.9614 37.3608 19.6119 35.6754C19.8458 35.7463 20.0731 35.8374 20.2913 35.9477C19.668 39.3319 19.0641 42.7209 18.4795 46.1147C18.485 46.2262 18.516 46.3349 18.5701 46.4325C18.9862 46.5328 19.4108 46.5936 19.8383 46.614C20.4815 43.1584 21.1005 39.6938 21.6953 36.22C21.9425 36.1348 22.2051 36.1038 22.4653 36.1293ZM33.8366 28.1917C32.8776 30.1513 31.4231 31.7344 29.473 32.9412C28.7538 31.6776 28.0324 30.4161 27.3089 29.1567C28.2186 28.4189 28.9154 27.4512 29.3272 26.3535C31.4071 27.2104 32.8546 27.7987 33.8366 28.1917ZM35.0568 24.0559C34.929 25.0109 34.706 25.9506 34.391 26.8609C33.1227 26.3825 31.5583 25.7789 29.6705 25.0209C29.7175 24.7014 29.7411 24.3789 29.7412 24.0559H35.0568ZM34.9662 22.6035H29.7412C29.7414 22.2025 29.7051 21.8023 29.6325 21.4079C31.86 20.6309 33.3628 20.1044 34.3366 19.7622C34.6634 20.6794 34.8749 21.6339 34.9662 22.6035ZM33.4715 17.8831C33.5856 18.0846 33.6943 18.2879 33.7958 18.4931C32.286 19.0541 30.779 19.6133 29.2747 20.1707C28.8593 19.1332 28.1872 18.2188 27.3216 17.5136C28.3135 15.7888 29.0101 14.5752 29.4866 13.7436C31.0338 14.7295 32.3621 16.1093 33.4715 17.8831ZM28.1224 13.002C27.4122 14.2287 26.7072 15.4536 26.0072 16.6767C25.3483 16.3607 24.6408 16.1585 23.9147 16.0784V11.9417C25.3684 12.0456 26.7926 12.4044 28.1224 13.002ZM18.2676 12.9811C18.4264 12.9049 18.5876 12.8307 18.7513 12.7587C19.9477 12.3142 21.1958 12.0244 22.4653 11.8963V16.083C21.7492 16.1621 21.0513 16.36 20.4 16.6685C19.6946 15.4369 18.9838 14.2078 18.2676 12.9811ZM12.5434 18.4722C13.503 16.5126 14.9576 14.9295 16.907 13.7228C17.6262 14.9858 18.3476 16.2473 19.0711 17.5073C18.1614 18.245 17.4646 19.2127 17.0528 20.3105C14.9729 19.449 13.5254 18.8607 12.5434 18.4677V18.4722ZM11.3232 22.6035C11.451 21.6485 11.674 20.7088 11.989 19.7985C13.2573 20.2769 14.8217 20.8805 16.7095 21.6385C16.6625 21.958 16.6389 22.2805 16.6388 22.6035H11.3232ZM17.7612 23.3106C17.7612 23.0744 17.7735 22.8384 17.7983 22.6035C18.1127 19.6078 20.4018 17.2903 23.1782 17.2903C25.9547 17.2903 28.2447 19.6078 28.559 22.6035C28.5838 22.8384 28.5962 23.0744 28.5962 23.3106C28.5965 23.5597 28.5826 23.8085 28.5545 24.0559C28.4607 24.9258 28.1896 25.7671 27.7582 26.5278L27.7392 26.5623C27.4759 27.0398 27.1397 27.4732 26.7428 27.8468C25.7943 28.7895 24.515 29.3223 23.1791 29.331C20.4144 29.331 18.1335 27.0289 17.8038 24.0559C17.7754 23.8085 17.7611 23.5597 17.7612 23.3106ZM11.4138 24.0559H16.6388C16.6386 24.4569 16.6749 24.8571 16.7475 25.2514C14.52 26.0285 13.0172 26.555 12.0434 26.8972C11.7166 25.98 11.5051 25.0255 11.4138 24.0559ZM12.9085 28.7763C12.7944 28.5748 12.6857 28.3715 12.5842 28.1663C14.094 27.6053 15.601 27.0461 17.1053 26.4887C17.5207 27.5262 18.1928 28.4406 19.0584 29.1458C18.0665 30.8705 17.3699 32.0842 16.8934 32.9158C15.3462 31.9299 14.0179 30.5501 12.9085 28.7763ZM18.2576 33.6574C18.9678 32.4313 19.6728 31.2064 20.3728 29.9827C21.0317 30.2987 21.7392 30.5009 22.4653 30.581V34.7177C21.0116 34.6138 19.5874 34.2549 18.2576 33.6574ZM23.9147 30.581C24.6308 30.5018 25.3287 30.304 25.98 29.9955C26.6854 31.2234 27.3962 32.4525 28.1124 33.6828C27.9542 33.7591 27.793 33.8332 27.6287 33.9052C26.4323 34.3497 25.1842 34.6395 23.9147 34.7676V30.581Z" fill="#262728"/>
</g>
</g>
<defs>
<clipPath id="clip0_24_2193">
<rect width="46.38" height="46.6594" fill="white"/>
</clipPath>
</defs>
</svg>
