<svg width="97" height="50" viewBox="0 0 97 50" fill="none" xmlns="http://www.w3.org/2000/svg">
<g clip-path="url(#clip0_15_2040)">
<g opacity="0.93">
<path fill-rule="evenodd" clip-rule="evenodd" d="M77.252 39.0283L76.9349 39.1434L81.0319 37.6849C79.7713 38.1283 78.3295 38.6415 77.252 39.0283Z" fill="#262728"/>
<path fill-rule="evenodd" clip-rule="evenodd" d="M76.0518 46.8868C75.8866 46.1709 75.7606 45.4466 75.6744 44.717L85.4875 43.0189C85.3589 41.9858 85.1054 40.9721 84.7326 40C81.6566 40.5887 78.5743 41.1547 75.4856 41.6981L74.9195 41.5094C74.7353 41.0266 74.6086 40.5238 74.5421 40.0113C74.5421 40.0113 74.5421 40.0113 74.5421 40L75.8989 39.517L76.0461 39.4642L76.4047 39.334L76.6198 39.2566L76.935 39.1434L77.252 39.0283C78.3296 38.6509 79.7713 38.1283 81.0263 37.6849L81.2754 37.5962L81.5736 37.4906L82.1397 37.3019L82.6681 37.1132L82.8568 37.0491L82.987 37.0038L83.8042 36.7151L83.9381 36.6679L84.2005 36.5755L84.442 36.4906L84.6628 36.4132L85.0119 36.2906C85.329 36.1761 85.6473 36.0642 85.9668 35.9547L86.1725 35.883L86.4518 35.7849L87.7898 35.3132C89.9776 34.5384 92.1667 33.7736 94.357 33.0189C94.1692 31.9513 93.7853 30.9278 93.2248 30C91.6157 30.5887 90.0078 31.1799 88.4012 31.7736L83.306 33.6491L79.1316 35.1962L75.4517 36.5642L75.0742 36.7057L74.6968 36.8434L73.3154 37.3585C73.1062 36.8463 72.8198 36.369 72.4662 35.9434C75.4542 34.1019 78.4736 32.3094 81.5245 30.566C81.0882 29.6882 80.5498 28.8648 79.9204 28.1132C76.8897 29.7384 73.9017 31.4365 70.9565 33.2075C70.4859 32.8958 70.0975 32.4751 69.8242 31.9811C75.3598 27.327 80.8954 22.673 86.4311 18.0189L84.4496 15.6604C78.9139 20.3484 73.3469 25.0025 67.7484 29.6226C67.3418 29.3099 66.963 28.9627 66.6161 28.5849C68.9196 25.966 71.1528 23.2931 73.3154 20.566C73.3761 20.4841 73.4089 20.3849 73.4089 20.283C73.4089 20.1811 73.3761 20.0819 73.3154 20C72.8517 19.7246 72.4372 19.3739 72.0888 18.9623C71.9494 18.8061 71.7715 18.6891 71.5729 18.6229C71.3743 18.5567 71.1618 18.5436 70.9565 18.5849C68.8001 21.2604 66.5985 23.9019 64.3515 26.5094C64.2696 26.5701 64.1704 26.6028 64.0684 26.6028C63.9665 26.6028 63.8673 26.5701 63.7854 26.5094C63.454 26.3527 63.1873 26.086 63.0305 25.7547L63.0664 25.6925L63.0796 25.6679L63.1022 25.6283L63.3004 25.2736C63.3192 25.2358 63.3419 25.1981 63.3645 25.1585L63.4079 25.0943L63.5627 24.8189L63.6495 24.666C63.7665 24.4547 63.9005 24.217 64.0439 23.9623L64.1534 23.7736L64.6025 22.9755C64.7912 22.634 64.9799 22.3113 65.146 22.0094L65.5083 21.366C65.7367 20.9604 65.9386 20.6113 66.1065 20.3094C68.6378 15.8164 71.1981 11.3421 73.7872 6.88679C73.0353 6.25775 72.2118 5.71945 71.3339 5.28302C68.6353 9.83774 65.9505 14.4013 63.2796 18.9736C62.8154 19.766 62.3518 20.5585 61.8888 21.3509C61.4258 22.1434 60.9622 22.9377 60.498 23.734L60.1998 24.2453C59.9389 24.2793 59.6737 24.2346 59.4384 24.1169C59.203 23.9993 59.0082 23.814 58.8788 23.5849C60.113 20.1296 61.3082 16.6704 62.4644 13.2075C61.534 12.9486 60.6202 12.6336 59.728 12.2642C58.441 15.8063 57.12 19.3283 55.765 22.8302C55.2777 22.6829 54.8042 22.4935 54.3497 22.2642C55.648 15.2302 56.9061 8.18616 58.1239 1.13208C58.1126 0.900376 58.0481 0.674401 57.9352 0.471698C57.0684 0.263114 56.1838 0.136768 55.2932 0.0943396C53.9534 7.27799 52.6638 14.4792 51.4246 21.6981C50.9096 21.8753 50.3626 21.9396 49.8205 21.8868V10.566H46.8011V21.8868C46.2591 21.9398 45.712 21.8754 45.197 21.6981C43.9389 14.5283 42.6808 7.35849 41.4227 0.188679C41.3184 0.0898387 41.187 0.0241756 41.0453 0C40.2691 0.204259 39.4814 0.361775 38.6864 0.471698C38.5726 0.674 38.508 0.900207 38.4977 1.13208C39.7143 8.18491 40.9723 15.2289 42.272 22.2642C41.7468 22.5314 41.1625 22.6612 40.5735 22.6415C39.4412 19.1535 38.2146 15.6943 36.8936 12.2642C36.0013 12.6333 35.0875 12.9483 34.1573 13.2075C35.2682 16.6591 36.4633 20.0868 37.7428 23.4906C37.7171 23.6317 37.6516 23.7626 37.5541 23.8679C37.1786 23.9497 36.8247 24.1105 36.5162 24.3396L36.1633 23.7415C35.5632 22.7214 34.9631 21.7031 34.3629 20.6868L25.2877 5.28302C24.4093 5.71854 23.5857 6.25691 22.8344 6.88679C25.7356 11.9006 28.621 16.9277 31.4907 21.9679C32.0808 23.0094 32.6727 24.0503 33.2665 25.0906L33.5911 25.6566C33.4418 25.8819 33.2472 26.0737 33.0198 26.2199C32.7924 26.366 32.5371 26.4633 32.2701 26.5057C30.0219 23.8981 27.8202 21.2566 25.6651 18.5811C25.4599 18.5394 25.2473 18.5523 25.0486 18.6186C24.8498 18.6848 24.672 18.802 24.5328 18.9585C23.9787 19.3645 23.553 19.9212 23.3062 20.5623C25.3984 23.1748 27.5372 25.7535 29.7225 28.2981C29.574 28.836 29.2397 29.304 28.7789 29.6189L12.1721 15.6566L10.1906 18.0189C15.696 22.6101 21.1687 27.2327 26.6087 31.8868C26.3553 32.3925 26.0022 32.8417 25.5708 33.2075C22.6771 31.4113 19.7206 29.7132 16.7012 28.1132C16.0712 28.8644 15.5327 29.6878 15.0971 30.566C18.0851 32.2792 21.0416 34.0403 23.9667 35.8491C23.7311 36.3579 23.381 36.8054 22.9439 37.1566L22.9288 37.1698C17.8461 35.3208 12.7678 33.4598 7.69387 31.5868C6.26216 31.061 4.82982 30.5321 3.39685 30C2.91654 30.8328 2.53647 31.7194 2.26457 32.6415C2.30324 32.7499 2.36806 32.8471 2.45328 32.9245L22.0795 40.0943C21.872 40.5547 21.6833 41.0264 21.5134 41.5094C21.387 41.5717 21.2605 41.634 21.136 41.6981C18.0461 41.1547 14.9638 40.5887 11.889 40C11.5153 40.9718 11.2618 41.9856 11.1341 43.0189L20.3811 44.6226C20.4661 44.6571 20.5433 44.7082 20.6081 44.7731C20.6729 44.8379 20.7241 44.9151 20.7586 45C20.6472 45.6377 20.5208 46.2679 20.3811 46.8868C17.9278 46.9811 15.4746 47.0126 13.0213 46.9811H0V50H96.6216V46.9811C89.7637 47.0113 82.9071 46.9799 76.0518 46.8868ZM49.8205 24.8208C52.849 25.0366 55.8159 25.7825 58.5863 27.0245C57.1068 29.5742 55.638 32.1201 54.1798 34.6623C52.807 34.0056 51.3332 33.5852 49.8205 33.4189V24.8208ZM39.0638 26.5094C41.5562 25.5855 44.1563 24.9832 46.8011 24.717V33.4189C45.3093 33.5834 43.8553 33.9946 42.4984 34.6359C41.0277 32.0824 39.5469 29.5277 38.0561 26.9717C38.387 26.8132 38.7229 26.6591 39.0638 26.5094ZM34.663 46.9811H23.5893C23.8554 44.9962 24.3201 43.0431 24.9763 41.1509C27.6183 42.1453 30.8774 43.4 34.8102 44.9755C34.7124 45.6395 34.6632 46.3099 34.663 46.9811ZM26.1312 38.3849C28.1304 34.312 31.1605 31.0214 35.2216 28.5132C36.72 31.1384 38.2228 33.7604 39.73 36.3792C37.8349 37.9127 36.3834 39.924 35.5254 42.2057C31.1926 40.4245 28.1769 39.2019 26.1312 38.3849ZM37.4937 46.9811C37.4937 46.6755 37.5069 46.3717 37.5333 46.0717C37.571 45.5994 37.6416 45.1303 37.7447 44.6679C38.3159 42.0634 39.8292 39.7616 41.9941 38.2046C44.1591 36.6476 46.823 35.945 49.4744 36.2318C52.1258 36.5187 54.5778 37.7746 56.3595 39.7586C58.1413 41.7426 59.1272 44.3147 59.1279 46.9811H37.4937ZM56.9181 36.4019C58.9845 32.817 60.4357 30.2943 61.4283 28.566C64.6516 30.6151 67.4194 33.483 69.7318 37.1698C69.9695 37.5887 70.196 38.0113 70.4073 38.4377C67.2621 39.6038 64.1225 40.766 60.9886 41.9245C60.1228 39.7679 58.722 37.8673 56.9181 36.4019ZM61.9586 46.9811C61.9592 46.1477 61.8834 45.3159 61.7322 44.4962C66.3726 42.8811 69.5034 41.7868 71.5321 41.0755C72.2129 42.9819 72.6534 44.9658 72.8436 46.9811H61.9586Z" fill="#262728"/>
</g>
<path fill-rule="evenodd" clip-rule="evenodd" d="M75.8989 39.517L74.627 39.9811L74.5439 40.0113C74.5439 40.0113 74.5439 40.0113 74.5439 40L75.8989 39.517Z" fill="#262728"/>
<path fill-rule="evenodd" clip-rule="evenodd" d="M85.9706 35.9453C85.6322 36.0711 85.3139 36.183 85.0157 36.2812C85.3302 36.1667 85.6485 36.0547 85.9706 35.9453Z" fill="#262728"/>
<path fill-rule="evenodd" clip-rule="evenodd" d="M22.9438 37.1566L22.9287 37.1698C17.846 35.3208 12.7677 33.4598 7.69385 31.5868C7.69303 31.5825 7.69303 31.578 7.69385 31.5736L9.16582 32.1151L10.751 32.7C15.5311 34.4585 15.5444 34.4359 18.0863 35.383C18.9488 35.7038 20.2282 36.1849 22.0663 36.8453L22.925 37.151L22.9438 37.1566Z" fill="#262728"/>
</g>
<defs>
<clipPath id="clip0_15_2040">
<rect width="96.6216" height="50" fill="white"/>
</clipPath>
</defs>
</svg>
