<svg width="47" height="24" viewBox="0 0 47 24" fill="none" xmlns="http://www.w3.org/2000/svg">
<g clip-path="url(#clip0_21_1063)">
<g opacity="0.93">
<path fill-rule="evenodd" clip-rule="evenodd" d="M37.081 18.7336L36.9288 18.7888L38.8953 18.0887C38.2902 18.3016 37.5982 18.5479 37.081 18.7336Z" fill="#262728"/>
<path fill-rule="evenodd" clip-rule="evenodd" d="M36.5049 22.5057C36.4256 22.162 36.3651 21.8144 36.3237 21.4642L41.034 20.6491C40.9723 20.1532 40.8506 19.6666 40.6717 19.2C39.1952 19.4826 37.7156 19.7543 36.2331 20.0151L35.9614 19.9245C35.8729 19.6928 35.8121 19.4514 35.7802 19.2054C35.7802 19.2054 35.7802 19.2054 35.7802 19.2L36.4315 18.9682L36.5021 18.9428L36.6742 18.8803L36.7775 18.8432L36.9288 18.7888L37.081 18.7336C37.5982 18.5525 38.2902 18.3016 38.8926 18.0888L39.0122 18.0462L39.1553 17.9955L39.4271 17.9049L39.6807 17.8143L39.7713 17.7835L39.8338 17.7618L40.226 17.6232L40.2903 17.6006L40.4162 17.5562L40.5322 17.5155L40.6381 17.4783L40.8057 17.4195C40.9579 17.3645 41.1107 17.3108 41.2641 17.2583L41.3628 17.2238L41.4969 17.1768L42.1391 16.9503C43.1893 16.5784 44.24 16.2113 45.2914 15.8491C45.2012 15.3366 45.017 14.8453 44.7479 14.4C43.9755 14.6826 43.2038 14.9663 42.4326 15.2513L39.9869 16.1515L37.9832 16.8942L36.2168 17.5508L36.0356 17.6187L35.8545 17.6848L35.1914 17.9321C35.091 17.6862 34.9535 17.4571 34.7838 17.2528C36.218 16.3689 37.6673 15.5085 39.1318 14.6717C38.9223 14.2503 38.6639 13.8551 38.3618 13.4943C36.907 14.2744 35.4728 15.0895 34.0591 15.9396C33.8332 15.79 33.6468 15.588 33.5156 15.3509C36.1727 13.117 38.8298 10.883 41.4869 8.64906L40.5358 7.51698C37.8787 9.76725 35.2065 12.0012 32.5192 14.2189C32.3241 14.0688 32.1422 13.9021 31.9757 13.7208C33.0814 12.4637 34.1533 11.1807 35.1914 9.8717C35.2205 9.83239 35.2362 9.78477 35.2362 9.73585C35.2362 9.68693 35.2205 9.63931 35.1914 9.6C34.9688 9.46782 34.7698 9.29948 34.6026 9.10189C34.5357 9.02692 34.4503 8.97076 34.355 8.93899C34.2596 8.90721 34.1576 8.90093 34.0591 8.92075C33.0241 10.205 31.9673 11.4729 30.8887 12.7245C30.8494 12.7536 30.8018 12.7694 30.7528 12.7694C30.7039 12.7694 30.6563 12.7536 30.617 12.7245C30.4579 12.6493 30.3299 12.5213 30.2546 12.3623L30.2719 12.3324L30.2782 12.3206L30.2891 12.3016L30.3842 12.1313C30.3932 12.1132 30.4041 12.0951 30.415 12.0761L30.4358 12.0453L30.5101 11.9131L30.5518 11.8397C30.6079 11.7383 30.6722 11.6242 30.7411 11.5019L30.7936 11.4113L31.0092 11.0282C31.0998 10.8643 31.1904 10.7094 31.2701 10.5645L31.444 10.2557C31.5536 10.061 31.6505 9.89343 31.7311 9.74853C32.9462 7.59185 34.1751 5.44423 35.4179 3.30566C35.0569 3.00372 34.6617 2.74534 34.2403 2.53585C32.945 4.72211 31.6563 6.9126 30.3742 9.10732C30.1514 9.4877 29.9288 9.86808 29.7066 10.2485C29.4844 10.6288 29.2619 11.0101 29.039 11.3923L28.8959 11.6377C28.7707 11.6541 28.6434 11.6326 28.5304 11.5761C28.4174 11.5196 28.3239 11.4307 28.2618 11.3208C28.8542 9.66219 29.4279 8.00181 29.9829 6.33962C29.5363 6.21535 29.0977 6.06413 28.6694 5.88679C28.0517 7.58702 27.4176 9.27759 26.7672 10.9585C26.5333 10.8878 26.306 10.7969 26.0878 10.6868C26.711 7.31049 27.3149 3.92936 27.8995 0.543396C27.8941 0.43218 27.8631 0.323712 27.8089 0.226415C27.3928 0.126295 26.9682 0.0656488 26.5408 0.045283C25.8976 3.49343 25.2786 6.95004 24.6838 10.4151C24.4366 10.5001 24.174 10.531 23.9139 10.5057V5.0717H22.4645V10.5057C22.2043 10.5311 21.9417 10.5002 21.6946 10.4151C21.0907 6.97359 20.4868 3.53208 19.8829 0.090566C19.8328 0.0431226 19.7698 0.0116043 19.7018 0C19.3292 0.0980443 18.9511 0.173652 18.5695 0.226415C18.5148 0.32352 18.4838 0.432099 18.4789 0.543396C19.0628 3.92875 19.6667 7.30989 20.2905 10.6868C20.0385 10.8151 19.758 10.8774 19.4753 10.8679C18.9318 9.19366 18.343 7.53328 17.7089 5.88679C17.2806 6.06399 16.842 6.21521 16.3955 6.33962C16.9287 7.99638 17.5024 9.64166 18.1166 11.2755C18.1042 11.3432 18.0728 11.4061 18.026 11.4566C17.8457 11.4958 17.6759 11.573 17.5278 11.683L17.3584 11.3959C17.0703 10.9063 16.7823 10.4175 16.4942 9.92966L12.1381 2.53585C11.7164 2.7449 11.3211 3.00332 10.9605 3.30566C12.3531 5.7123 13.7381 8.12528 15.1155 10.5446C15.3988 11.0445 15.6829 11.5442 15.9679 12.0435L16.1237 12.3152C16.052 12.4233 15.9587 12.5154 15.8495 12.5855C15.7404 12.6557 15.6178 12.7024 15.4897 12.7227C14.4105 11.4711 13.3537 10.2032 12.3193 8.91894C12.2207 8.89893 12.1187 8.90513 12.0233 8.93691C11.9279 8.9687 11.8426 9.02496 11.7758 9.10008C11.5098 9.29498 11.3054 9.56219 11.187 9.86989C12.1912 11.1239 13.2178 12.3617 14.2668 13.5831C14.1955 13.8413 14.0351 14.0659 13.8139 14.2171L5.84259 7.51517L4.89147 8.64906C7.53407 10.8528 10.161 13.0717 12.7722 15.3057C12.6505 15.5484 12.4811 15.764 12.274 15.9396C10.885 15.0774 9.4659 14.2623 8.01657 13.4943C7.71418 13.8549 7.45571 14.2501 7.24662 14.6717C8.68085 15.494 10.1 16.3393 11.504 17.2075C11.3909 17.4518 11.2229 17.6666 11.0131 17.8352L11.0058 17.8415C8.56611 16.954 6.12853 16.0607 3.69306 15.1617C3.00584 14.9093 2.31831 14.6554 1.63049 14.4C1.39994 14.7997 1.21751 15.2253 1.08699 15.6679C1.10556 15.72 1.13667 15.7666 1.17758 15.8038L10.5982 19.2453C10.4985 19.4663 10.408 19.6927 10.3264 19.9245C10.2657 19.9544 10.2051 19.9843 10.1453 20.0151C8.66213 19.7543 7.18261 19.4826 5.70671 19.2C5.52735 19.6665 5.40567 20.1531 5.34438 20.6491L9.78294 21.4189C9.82372 21.4354 9.86077 21.46 9.89189 21.4911C9.92301 21.5222 9.94757 21.5592 9.9641 21.6C9.91066 21.9061 9.84997 22.2086 9.78294 22.5057C8.60536 22.5509 7.42779 22.566 6.25021 22.5509H0V24H46.3784V22.5509C43.0866 22.5654 39.7954 22.5503 36.5049 22.5057ZM23.9139 11.914C25.3675 12.0176 26.7917 12.3756 28.1214 12.9718C27.4113 14.1956 26.7062 15.4177 26.0063 16.6379C25.3474 16.3227 24.6399 16.1209 23.9139 16.0411V11.914ZM18.7506 12.7245C19.947 12.2811 21.195 11.9919 22.4645 11.8642V16.0411C21.7485 16.12 21.0505 16.3174 20.3992 16.6252C19.6933 15.3995 18.9825 14.1733 18.2669 12.9464C18.4257 12.8703 18.587 12.7964 18.7506 12.7245ZM16.6382 22.5509H11.3228C11.4506 21.5982 11.6736 20.6607 11.9886 19.7525C13.2568 20.2297 14.8212 20.832 16.7089 21.5882C16.6619 21.907 16.6383 22.2287 16.6382 22.5509ZM12.543 18.4248C13.5026 16.4697 14.957 14.8903 16.9064 13.6863C17.6256 14.9464 18.3469 16.205 19.0704 17.462C18.1607 18.1981 17.464 19.1635 17.0522 20.2587C14.9724 19.4038 13.5249 18.8169 12.543 18.4248ZM17.997 22.5509C17.997 22.4042 18.0033 22.2584 18.016 22.1144C18.0341 21.8877 18.068 21.6626 18.1175 21.4406C18.3916 20.1904 19.118 19.0856 20.1572 18.3382C21.1964 17.5908 22.475 17.2536 23.7477 17.3913C25.0204 17.529 26.1973 18.1318 27.0526 19.0841C27.9078 20.0365 28.381 21.2711 28.3814 22.5509H17.997ZM27.3207 17.4729C28.3125 15.7522 29.0091 14.5413 29.4856 13.7117C31.0328 14.6952 32.3613 16.0718 33.4712 17.8415C33.5854 18.0426 33.6941 18.2454 33.7955 18.4501C32.2858 19.0098 30.7788 19.5677 29.2745 20.1238C28.859 19.0886 28.1865 18.1763 27.3207 17.4729ZM29.7401 22.5509C29.7404 22.1509 29.704 21.7516 29.6314 21.3582C31.8589 20.5829 33.3616 20.0577 34.3354 19.7162C34.6622 20.6313 34.8737 21.5836 34.9649 22.5509H29.7401Z" fill="#262728"/>
</g>
<path fill-rule="evenodd" clip-rule="evenodd" d="M36.4315 18.9681L35.821 19.1909L35.7811 19.2054C35.7811 19.2054 35.7811 19.2054 35.7811 19.2L36.4315 18.9681Z" fill="#262728"/>
<path fill-rule="evenodd" clip-rule="evenodd" d="M41.2659 17.2538C41.1034 17.3142 40.9506 17.3679 40.8075 17.415C40.9585 17.36 41.1113 17.3063 41.2659 17.2538Z" fill="#262728"/>
<path fill-rule="evenodd" clip-rule="evenodd" d="M11.0131 17.8351L11.0058 17.8415C8.56612 16.9539 6.12854 16.0606 3.69307 15.1616C3.69268 15.1595 3.69268 15.1574 3.69307 15.1553L4.39962 15.4152L5.16051 15.696C7.45498 16.54 7.46132 16.5292 8.68147 16.9838C9.09543 17.1378 9.70958 17.3687 10.5919 17.6857L11.004 17.8324L11.0131 17.8351Z" fill="#262728"/>
</g>
<defs>
<clipPath id="clip0_21_1063">
<rect width="46.3784" height="24" fill="white"/>
</clipPath>
</defs>
</svg>
