<svg width="187" height="32" viewBox="0 0 187 32" fill="none" xmlns="http://www.w3.org/2000/svg">
<g clip-path="url(#clip0_64_1259)">
<path d="M57.5553 16.4796C57.9498 11.9071 57.7569 8.33187 55.992 3.89393C56.5755 3.16603 57.1198 2.40751 57.6225 1.62158C59.7542 4.17907 61.6286 5.79632 63.6127 8.16225C61.9238 11.445 60.058 14.2306 57.5553 16.4796Z" fill="#5FADE0"/>
<path d="M36.4699 13.6546C34.7733 12.8386 32.9813 12.2383 31.1357 11.8677C28.6912 11.3836 26.1849 11.2947 23.7123 11.6045C26.6852 9.80499 29.8769 8.39552 33.2089 7.41073C36.9219 6.31196 40.7881 5.8221 44.6575 5.96017C43.0692 6.79909 41.598 7.84331 40.2817 9.066C38.8195 10.4253 37.5383 11.9675 36.4699 13.6546Z" fill="#5FADE0"/>
<path d="M184.649 8.66089H182.483L180.95 10.1948V12.3633L182.483 13.8958H184.649L186.182 12.3633V10.1948L184.649 8.66089Z" fill="#5FADE0"/>
<path d="M179.758 5.36209V31.5233H176.266V13.5887H174.206V31.5233H170.714V5.36209L171.586 2.68031L172.458 0L173.332 2.68031L174.206 5.36209V11.4977H176.266V5.36209L177.14 2.68031L178.012 0L178.884 2.68031L179.758 5.36209Z" fill="#8FC1DD"/>
<path d="M17.5322 5.36206V8.85539H13.4414C10.2943 8.85539 7.83544 9.85898 6.06468 11.8662C5.23829 12.7839 4.58622 13.8448 4.14052 14.9969C3.70788 16.1087 3.47969 17.2897 3.46699 18.4829C3.43575 20.9356 4.35228 23.3056 6.02524 25.0981C7.76969 27.0536 10.2154 28.0309 13.3625 28.0299H17.5322V31.5233L13.3668 31.5628C9.24288 31.5628 5.93758 30.198 3.45092 27.4684C2.31638 26.2468 1.43364 24.8133 0.853234 23.2498C0.28874 21.7306 -0.000204739 20.1227 1.08844e-07 18.5019C0.00266439 16.8806 0.299694 15.2733 0.876611 13.7583C1.46674 12.1934 2.35436 10.7578 3.49037 9.53095C5.97605 6.75169 9.29304 5.36206 13.4414 5.36206H17.5322Z" fill="#8FC1DD"/>
<path d="M32.3659 19.5738C31.8595 19.0872 31.2682 18.6976 30.6215 18.4245C29.9999 18.1624 29.3323 18.0272 28.6578 18.0267C27.2658 18.0338 25.9328 18.5902 24.9483 19.5753C24.4535 20.0644 24.0672 20.6523 23.8146 21.3007C23.312 22.5626 23.312 23.9694 23.8146 25.2313C24.3742 26.5323 25.4104 27.5694 26.7103 28.1295C27.9706 28.6325 29.3757 28.6325 30.6361 28.1295C31.2913 27.8735 31.881 27.4738 32.3615 26.9597L32.6537 26.6672C32.7532 26.5658 32.8395 26.4523 32.9109 26.3294V30.896C31.751 31.5431 30.4597 31.9187 29.134 31.9947C27.8083 32.0707 26.4827 31.845 25.2566 31.3347C23.6721 30.6704 22.3207 29.5495 21.3743 28.1146C20.4279 26.6797 19.9291 24.9956 19.9414 23.2762C19.9358 22.1115 20.1685 20.958 20.6252 19.8867C21.0616 18.8489 21.6947 17.9054 22.4894 17.1084C23.2882 16.3108 24.2299 15.6708 25.2654 15.2221C26.3414 14.7557 27.5028 14.5191 28.6754 14.5276C29.8344 14.5223 30.9823 14.7536 32.0489 15.2075C33.0862 15.6436 34.029 16.2773 34.8248 17.0733C35.6216 17.8729 36.261 18.8154 36.7095 19.8516C37.1756 20.929 37.4115 22.092 37.402 23.266C37.4034 23.7074 37.3638 24.148 37.2837 24.582H27.1749L24.1199 21.0887H33.4412C33.2049 20.5072 32.8368 19.9885 32.3659 19.5738Z" fill="#8FC1DD"/>
<path d="M39.7397 25.0529C39.615 24.4652 39.5485 23.8667 39.541 23.266V23.2265C39.5345 22.0654 39.7709 20.9158 40.235 19.8516C40.683 18.8151 41.3224 17.8725 42.1197 17.0733C42.9157 16.2776 43.8584 15.6439 44.8956 15.2075C45.9621 14.7553 47.1094 14.5254 48.2676 14.5319C50.0063 14.5061 51.7104 15.0195 53.146 16.0015C54.5435 16.9448 55.6441 18.2664 56.3193 19.8121H52.2285C52.1759 19.7595 52.1306 19.7127 52.0824 19.6659L51.9436 19.527C51.4603 19.0403 50.8856 18.654 50.2526 18.3904C49.6196 18.1268 48.9408 17.9911 48.2552 17.9911C47.5696 17.9911 46.8908 18.1268 46.2578 18.3904C45.6248 18.654 45.0501 19.0403 44.5669 19.527C43.987 20.09 43.5514 20.7847 43.2973 21.5522H56.8336C56.9432 22.101 56.9961 22.6596 56.9914 23.2192C56.9989 24.3682 56.7784 25.5072 56.3426 26.5702C55.9069 27.6332 55.2645 28.5989 54.4528 29.4115C53.6411 30.224 52.6762 30.8671 51.6142 31.3034C50.5522 31.7397 49.4142 31.9606 48.2662 31.9532C46.5644 31.9745 44.8967 31.4756 43.4857 30.5232C42.1005 29.6059 41.0064 28.311 40.3328 26.7915H44.4573L44.5771 26.9509C45.0564 27.4412 45.631 27.828 46.2655 28.0873C46.9 28.3466 47.581 28.4729 48.2662 28.4585C48.9562 28.4654 49.6409 28.3358 50.2807 28.0771C50.9206 27.8183 51.5031 27.4356 51.9947 26.9509C52.53 26.4157 52.9367 25.7656 53.184 25.0499L39.7397 25.0529Z" fill="#8FC1DD"/>
<path d="M68.3011 24.5762V31.5628H64.8107V14.3301C64.8112 12.9952 65.0283 11.6692 65.4536 10.404C65.8711 9.14052 66.6253 8.01509 67.6349 7.149C68.4649 6.41738 69.4182 5.83909 70.4503 5.44109C71.456 5.04947 72.5255 4.84769 73.6046 4.84595C74.6798 4.84697 75.7466 5.03499 76.7575 5.4016C77.7991 5.77927 78.7559 6.35919 79.5729 7.10806C80.5562 8.00204 81.2882 9.13847 81.6957 10.404C82.1023 11.6728 82.3074 12.9976 82.3035 14.3301V31.5628H78.8131V24.5762H71.4744L68.4209 21.0828H78.8131V15.4064C78.8131 14.9033 78.8063 14.3872 78.7927 13.8578C78.7811 13.344 78.7214 12.8324 78.6144 12.3298C78.5094 11.8434 78.3496 11.3705 78.1381 10.9202C77.921 10.4634 77.6104 10.0574 77.2265 9.72842C76.7244 9.26985 76.1385 8.91284 75.501 8.67706C74.8845 8.45136 74.2333 8.33555 73.5768 8.33489C72.9129 8.3358 72.2547 8.45667 71.6337 8.69168C71.0055 8.92623 70.4267 9.27638 69.9272 9.72403C69.5446 10.079 69.2288 10.5001 68.9951 10.9669C68.7693 11.4199 68.6028 11.9 68.4998 12.3956C68.3937 12.8984 68.334 13.4099 68.3216 13.9236C68.3069 14.4398 68.3011 14.9472 68.3011 15.4531V24.5835V24.5762Z" fill="#8FC1DD"/>
<path d="M88.1344 16.3583C88.8814 15.8248 89.6947 15.3913 90.5539 15.0686C91.4542 14.7326 92.4084 14.5641 93.3692 14.5714C94.5747 14.5741 95.766 14.8312 96.8654 15.3259V19.4202C96.1329 18.7518 95.2237 18.3084 94.2462 18.143C93.2688 17.9776 92.2645 18.0971 91.353 18.4873C90.097 19.027 89.0959 20.0289 88.5566 21.2861C88.2783 21.9242 88.1364 22.6136 88.1403 23.3098V31.6067H84.6484V15.0481H88.1403L88.1344 16.3583Z" fill="#8FC1DD"/>
<path d="M102.016 23.187C102.01 23.9027 102.152 24.6119 102.432 25.2707C102.964 26.5443 103.976 27.5571 105.249 28.0899C105.906 28.3724 106.615 28.5168 107.331 28.514C108.68 28.514 109.817 28.143 110.742 27.4012V31.4107C109.649 31.81 108.494 32.012 107.331 32.0073C106.152 32.0143 104.984 31.7778 103.9 31.3127C101.795 30.4187 100.118 28.741 99.225 26.6335C98.7596 25.5492 98.5233 24.3802 98.531 23.2001V5.36206H102.021L102.016 23.187ZM102.096 14.9691L105.193 18.4624H109.869V14.9691H102.096Z" fill="#8FC1DD"/>
<path d="M135.729 24.5762V31.5233H132.24V5.36212H140.212C141.503 5.35158 142.781 5.61731 143.961 6.1415C145.087 6.64079 146.104 7.3556 146.955 8.24569C147.808 9.14203 148.481 10.1933 148.939 11.3427C149.418 12.5347 149.661 13.8087 149.653 15.0934C149.664 16.3678 149.416 17.631 148.923 18.8061C148.453 19.9285 147.766 20.9468 146.901 21.8023C146.029 22.6579 145.007 23.3445 143.885 23.8275C142.728 24.332 141.479 24.589 140.217 24.582H138.902L135.848 21.0887H140.211C141.009 21.0933 141.799 20.9315 142.531 20.6134C143.237 20.3118 143.877 19.8752 144.416 19.3281C144.951 18.7773 145.382 18.1331 145.685 17.4272C146.004 16.6973 146.166 15.9088 146.162 15.1124C146.162 14.2989 146.007 13.4929 145.704 12.7377C145.417 11.9992 144.993 11.3215 144.455 10.7403C143.92 10.1691 143.281 9.70549 142.572 9.37455C141.833 9.02944 141.026 8.8536 140.211 8.85983H135.729V24.5762Z" fill="#8FC1DD"/>
<path d="M163.733 19.5737C163.227 19.0866 162.636 18.6965 161.989 18.4229C161.367 18.1608 160.7 18.0256 160.025 18.0252C158.633 18.0322 157.3 18.5887 156.316 19.5737C155.822 20.0636 155.438 20.652 155.186 21.3006C154.684 22.5625 154.684 23.9693 155.186 25.2312C155.746 26.5322 156.782 27.5693 158.082 28.1294C159.342 28.6324 160.748 28.6324 162.008 28.1294C162.663 27.8734 163.253 27.4737 163.733 26.9596L164.026 26.6671C164.125 26.5657 164.211 26.4522 164.283 26.3293V30.896C163.123 31.543 161.832 31.9186 160.506 31.9946C159.18 32.0706 157.854 31.8449 156.628 31.3346C155.044 30.6703 153.693 29.5494 152.746 28.1145C151.8 26.6796 151.301 24.9955 151.313 23.2761C151.306 22.1171 151.536 20.9688 151.987 19.9013C152.423 18.8634 153.056 17.9199 153.851 17.123C154.65 16.3253 155.591 15.6854 156.627 15.2367C157.703 14.7702 158.864 14.5336 160.037 14.5421C161.195 14.5356 162.342 14.7655 163.409 15.2177C164.446 15.6541 165.389 16.2877 166.185 17.0835C166.982 17.8831 167.621 18.8256 168.07 19.8618C168.536 20.9393 168.772 22.1021 168.764 23.2761C168.765 23.7175 168.725 24.1581 168.645 24.5922H158.531L155.476 21.0988H164.803C164.57 20.5142 164.203 19.992 163.733 19.5737Z" fill="#8FC1DD"/>
<path d="M181.821 31.6418H185.311V15.0481H181.821V31.6418Z" fill="#8FC1DD"/>
</g>
<defs>
<clipPath id="clip0_64_1259">
<rect width="186.182" height="32" fill="white"/>
</clipPath>
</defs>
</svg>
