<svg width="97" height="50" viewBox="0 0 97 50" fill="none" xmlns="http://www.w3.org/2000/svg">
<g opacity="0.93">
<path fill-rule="evenodd" clip-rule="evenodd" d="M19.3696 10.9718L19.6866 10.8567L15.5897 12.3152C16.8503 11.8718 18.292 11.3586 19.3696 10.9718Z" fill="#8FC1DD"/>
<path fill-rule="evenodd" clip-rule="evenodd" d="M20.5698 3.1132C20.735 3.82907 20.861 4.55342 20.9472 5.28301L11.1341 6.98113C11.2627 8.01423 11.5162 9.02793 11.889 9.99999C14.965 9.41131 18.0473 8.84528 21.1359 8.30188L21.7021 8.49056C21.8863 8.97338 22.013 9.47622 22.0795 9.98867C22.0795 9.98867 22.0795 9.98867 22.0795 9.99999L20.7227 10.483L20.5755 10.5358L20.2169 10.666L20.0018 10.7434L19.6866 10.8566L19.3696 10.9717C18.292 11.349 16.8503 11.8717 15.5953 12.3151L15.3462 12.4038L15.048 12.5094L14.4819 12.6981L13.9535 12.8868L13.7648 12.9509L13.6346 12.9962L12.8174 13.2849L12.6834 13.3321L12.4211 13.4245L12.1796 13.5094L11.9588 13.5868L11.6097 13.7094C11.2926 13.8239 10.9743 13.9358 10.6548 14.0453L10.4491 14.117L10.1698 14.2151L8.83178 14.6868C6.64395 15.4616 4.45488 16.2264 2.26454 16.9811C2.45237 18.0487 2.83627 19.0722 3.39682 20C5.00592 19.4113 6.61376 18.8201 8.22035 18.2264L13.3156 16.3509L17.49 14.8038L21.1699 13.4358L21.5473 13.2943L21.9248 13.1566L23.3062 12.6415C23.5154 13.1537 23.8018 13.6309 24.1554 14.0566C21.1674 15.8981 18.148 17.6906 15.0971 19.434C15.5334 20.3118 16.0718 21.1351 16.7012 21.8868C19.7319 20.2616 22.7199 18.5635 25.6651 16.7924C26.1357 17.1042 26.5241 17.5249 26.7974 18.0189C21.2618 22.6729 15.7261 27.327 10.1905 31.9811L12.172 34.3396C17.7076 29.6516 23.2747 24.9975 28.8732 20.3774C29.2798 20.6901 29.6586 21.0373 30.0055 21.4151C27.7019 24.034 25.4688 26.7069 23.3062 29.434C23.2455 29.5158 23.2127 29.6151 23.2127 29.717C23.2127 29.8189 23.2455 29.9181 23.3062 30C23.7699 30.2754 24.1844 30.6261 24.5328 31.0377C24.6722 31.1939 24.8501 31.3109 25.0487 31.3771C25.2473 31.4433 25.4598 31.4564 25.6651 31.4151C27.8215 28.7396 30.0231 26.0981 32.2701 23.4906C32.352 23.4299 32.4512 23.3972 32.5531 23.3972C32.6551 23.3972 32.7543 23.4299 32.8362 23.4906C33.1675 23.6473 33.4343 23.914 33.5911 24.2453L33.5552 24.3075L33.542 24.3321L33.5194 24.3717L33.3212 24.7264C33.3023 24.7641 33.2797 24.8019 33.2571 24.8415L33.2136 24.9057L33.0589 25.1811L32.9721 25.334C32.8551 25.5453 32.7211 25.783 32.5777 26.0377L32.4682 26.2264L32.0191 27.0245C31.8304 27.366 31.6417 27.6887 31.4756 27.9906L31.1133 28.634C30.8849 29.0396 30.683 29.3887 30.515 29.6906C27.9838 34.1836 25.4235 38.6579 22.8344 43.1132C23.5863 43.7422 24.4097 44.2805 25.2877 44.717C27.9863 40.1623 30.671 35.5987 33.342 31.0264C33.8062 30.234 34.2698 29.4415 34.7328 28.6491C35.1958 27.8566 35.6594 27.0623 36.1236 26.266L36.4218 25.7547C36.6827 25.7207 36.9479 25.7654 37.1832 25.8831C37.4186 26.0007 37.6134 26.186 37.7428 26.4151C36.5086 29.8704 35.3134 33.3296 34.1572 36.7924C35.0876 37.0514 36.0014 37.3664 36.8936 37.7358C38.1806 34.1937 39.5016 30.6717 40.8566 27.1698C41.3439 27.3171 41.8174 27.5065 42.2719 27.7358C40.9736 34.7698 39.7155 41.8138 38.4976 48.8679C38.509 49.0996 38.5735 49.3256 38.6864 49.5283C39.5532 49.7369 40.4378 49.8632 41.3284 49.9057C42.6682 42.722 43.9578 35.5207 45.197 28.3019C45.712 28.1247 46.259 28.0603 46.8011 28.1132L46.8011 39.434L49.8205 39.434L49.8205 28.1132C50.3625 28.0602 50.9096 28.1246 51.4246 28.3019C52.6826 35.4717 53.9407 42.6415 55.1988 49.8113C55.3032 49.9102 55.4346 49.9758 55.5763 50C56.3524 49.7957 57.1402 49.6382 57.9352 49.5283C58.049 49.326 58.1136 49.0998 58.1239 48.8679C56.9073 41.8151 55.6492 34.7711 54.3496 27.7358C54.8748 27.4686 55.4591 27.3388 56.0481 27.3585C57.1803 30.8465 58.407 34.3057 59.728 37.7358C60.6203 37.3667 61.5341 37.0516 62.4643 36.7924C61.3534 33.3409 60.1582 29.9132 58.8788 26.5094C58.9045 26.3683 58.97 26.2374 59.0675 26.1321C59.443 26.0503 59.7969 25.8895 60.1054 25.6604L60.4583 26.2585C61.0584 27.2786 61.6585 28.2969 62.2586 29.3132L71.3339 44.717C72.2123 44.2815 73.0359 43.7431 73.7872 43.1132C70.886 38.0994 68.0006 33.0723 65.1309 28.0321C64.5408 26.9906 63.9489 25.9497 63.3551 24.9094L63.0305 24.3434C63.1798 24.1181 63.3744 23.9263 63.6018 23.7801C63.8292 23.634 64.0845 23.5367 64.3515 23.4943C66.5997 26.1019 68.8014 28.7434 70.9565 31.4189C71.1617 31.4606 71.3743 31.4477 71.573 31.3814C71.7717 31.3152 71.9496 31.198 72.0888 31.0415C72.6429 30.6354 73.0686 30.0788 73.3154 29.4377C71.2232 26.8252 69.0844 24.2465 66.8991 21.7019C67.0476 21.164 67.3819 20.696 67.8427 20.3811L84.4495 34.3434L86.431 31.9811C80.9256 27.3899 75.4529 22.7673 70.0129 18.1132C70.2663 17.6075 70.6194 17.1583 71.0508 16.7925C73.9444 18.5887 76.901 20.2868 79.9204 21.8868C80.5504 21.1356 81.0889 20.3122 81.5245 19.434C78.5365 17.7208 75.58 15.9597 72.6549 14.1509C72.8905 13.6421 73.2405 13.1946 73.6777 12.8434L73.6928 12.8302C78.7755 14.6792 83.8538 16.5402 88.9277 18.4132C90.3594 18.939 91.7918 19.4679 93.2247 20C93.705 19.1672 94.0851 18.2806 94.357 17.3585C94.3183 17.2501 94.2535 17.1529 94.1683 17.0755L74.542 9.90566C74.7496 9.44528 74.9383 8.97358 75.1082 8.49056C75.2346 8.4283 75.3611 8.36603 75.4856 8.30189C78.5755 8.84528 81.6578 9.41132 84.7326 10C85.1063 9.02821 85.3598 8.01441 85.4875 6.98113L76.2405 5.37736C76.1555 5.34291 76.0783 5.29176 76.0135 5.22694C75.9486 5.16212 75.8975 5.08495 75.863 5C75.9744 4.36226 76.1008 3.73207 76.2405 3.1132C78.6937 3.01887 81.147 2.98742 83.6003 3.01887L96.6216 3.01887L96.6216 0L-3.37758e-05 -8.44693e-06L-3.40398e-05 3.01886C6.85784 2.98867 13.7145 3.02012 20.5698 3.1132ZM46.8011 25.1792C43.7726 24.9634 40.8056 24.2175 38.0353 22.9755C39.5148 20.4258 40.9836 17.8799 42.4418 15.3377C43.8146 15.9944 45.2884 16.4147 46.8011 16.5811L46.8011 25.1792ZM57.5578 23.4906C55.0654 24.4145 52.4653 25.0168 49.8205 25.283L49.8205 16.5811C51.3122 16.4166 52.7663 16.0053 54.1232 15.3641C55.5939 17.9176 57.0747 20.4723 58.5655 23.0283C58.2346 23.1868 57.8987 23.3409 57.5578 23.4906ZM61.9586 3.01886L73.0323 3.01887C72.7662 5.00376 72.3015 6.95693 71.6453 8.84905C69.0033 7.85471 65.7442 6.6 61.8114 5.02453C61.9092 4.36045 61.9584 3.69011 61.9586 3.01886ZM70.4903 11.6151C68.4912 15.688 65.4611 18.9786 61.4 21.4868C59.9016 18.8616 58.3988 16.2396 56.8916 13.6208C58.7867 12.0873 60.2382 10.0759 61.0962 7.79434C65.429 9.57547 68.4447 10.7981 70.4903 11.6151ZM59.1279 3.01886C59.1279 3.32452 59.1147 3.6283 59.0882 3.9283C59.0506 4.40058 58.98 4.86965 58.8769 5.33207C58.3057 7.93659 56.7924 10.2384 54.6274 11.7954C52.4625 13.3524 49.7986 14.055 47.1472 13.7682C44.4958 13.4813 42.0438 12.2254 40.2621 10.2414C38.4803 8.25738 37.4944 5.68525 37.4937 3.01886L59.1279 3.01886ZM39.7035 13.5981C37.6371 17.183 36.1859 19.7057 35.1933 21.434C31.97 19.3849 29.2022 16.517 26.8898 12.8302C26.6521 12.4113 26.4256 11.9887 26.2142 11.5623C29.3595 10.3962 32.499 9.23396 35.633 8.07546C36.4987 10.2321 37.8996 12.1327 39.7035 13.5981ZM34.663 3.01886C34.6624 3.85234 34.7382 4.68412 34.8894 5.50377C30.249 7.11886 27.1182 8.2132 25.0895 8.92452C24.4087 7.01806 23.9681 5.03423 23.7779 3.01886L34.663 3.01886Z" fill="#8FC1DD"/>
</g>
<path fill-rule="evenodd" clip-rule="evenodd" d="M20.7227 10.4829L21.9946 10.0188L22.0776 9.98857C22.0776 9.98857 22.0776 9.98857 22.0776 9.99989L20.7227 10.4829Z" fill="#8FC1DD"/>
<path fill-rule="evenodd" clip-rule="evenodd" d="M10.6509 14.0547C10.9894 13.9289 11.3077 13.817 11.6058 13.7188C11.2913 13.8333 10.973 13.9453 10.6509 14.0547Z" fill="#8FC1DD"/>
<path fill-rule="evenodd" clip-rule="evenodd" d="M73.6777 12.8435L73.6928 12.8303C78.7755 14.6793 83.8538 16.5403 88.9277 18.4133C88.9285 18.4177 88.9285 18.4221 88.9277 18.4265L87.4558 17.885L85.8706 17.3001C81.0904 15.5416 81.0772 15.5642 78.5352 14.6171C77.6728 14.2963 76.3933 13.8152 74.5553 13.1548L73.6966 12.8492L73.6777 12.8435Z" fill="#8FC1DD"/>
</svg>
